<svg preserveAspectRatio="xMidYMid meet" data-bbox="4.083 4.451 193.417 191.02" viewBox="4.083 4.451 193.417 191.02" height="200" width="200" xmlns="http://www.w3.org/2000/svg" data-type="color" role="presentation" aria-hidden="true">
    <g>
        <path d="M113.668 80.551a184.548 184.548 0 0 0-23.496 11.73 2.042 2.042 0 0 0-1.763.411c-5.686 4.535-12.987 6.282-18.938 10.412a2.04 2.04 0 0 0-.695.818 4.307 4.307 0 0 0-1 .372c-4.774 2.492-8.815 6.194-12.969 9.576-4.128 3.361-8.39 6.63-12.299 10.256-.052.071-.104.142-.172.21-3.339 3.339-4.623 8.214-7.875 11.625a1.534 1.534 0 0 1-.529.369 831.797 831.797 0 0 0-7.109 11.556c-.01.049-.014.096-.029.146-.508 1.665-.923 3.352-1.358 5.036-.207.803-.462 1.601-.682 2.406.01.41.016.82.023 1.229 1.006.87 2.357 1.304 3.57 1.005-1.037 3.015-2.108 6.016-3.494 8.877-3.644 7.525-9.567 10.574-17.433 12.515-2.498.616-1.337 4.445 1.161 3.829 6.088-1.502 11.94-3.552 16.077-8.511 3.696-4.43 5.54-10.048 7.381-15.432 7.295-9.366 11.49-20.903 19.07-29.993 6.013-7.21 11.912-14.555 19.558-20.112a256.921 256.921 0 0 1 8.187-5.71c1.383-.925 2.77-1.843 4.175-2.734.623-.395 1.29-.626 1.947-.969.243-.127 1.903-1.224 2.068-1.131a.478.478 0 0 0 .47.014c1.766-.883 3.284-2.239 5.055-3.166 1.715-.898 3.375-1.8 4.779-3.15a.436.436 0 0 0 .118-.492 177.565 177.565 0 0 1 16.998-8.101c1.762-.724.99-3.627-.796-2.891z" fill="#F4EADC" data-color="1"></path>
        <path d="M154.617 56.066c.052.158.071.324.075.493.222.319.315.736.174 1.227-.656 2.278-1.942 4.055-3.584 5.47a44.871 44.871 0 0 0 2.981-1.901c.163-.102.33-.198.492-.301a.52.52 0 0 0 .147-.14 28.95 28.95 0 0 0 2.152-1.737c1.791-1.611-.562-4.174-2.437-3.111z" fill="#F4EADC" data-color="1"></path>
        <path d="M182.997 54.884c.055-.11.127-.207.17-.326.604-1.661.159-3.028-.805-4.002-3.076-2.805-9.518-1.723-12.43.317-1.707 1.196-.693 3.722.886 3.81.229.292.561.526 1.014.654 3.17.897 8.404 2.224 11.165-.453z" fill="#F4EADC" data-color="1"></path>
        <path d="M161.402 45.518c-.784-.684-2.086-.747-3.239-.513-2.194 1.745-3.92 4.734-3.422 7.167.014.07.015.135.021.202.036-.007.074-.003.11-.013.072 1.482.165 2.959-.167 4.411-.36 1.574 1.984 2.766 2.742 1.156 1.141-2.425 2.3-4.843 3.423-7.277.635-1.379 2.006-3.846.532-5.133z" fill="#F4EADC" data-color="1"></path>
        <path d="M173.349 38.098c-.559-5.343-.448-10.708-.278-16.095a1.506 1.506 0 0 0-.064-.479c.075-.275.144-.551.226-.825.554-1.854-2.341-2.646-2.893-.798-1.036 3.466-1.595 7.016-1.369 10.644.155 2.494.837 4.892 1.356 7.313.159 1.67.374 3.34.667 5.008.295 1.682 2.974 1.265 2.946-.399-.024-1.507-.278-2.944-.591-4.369z" fill="#F4EADC" data-color="1"></path>
        <path d="M193.656 18.58c-.212.355-.412.717-.608 1.081a1.49 1.49 0 0 0-1.17.652c-1.095 1.544-2.205 3.094-3.058 4.79-.8 1.591-1.16 3.525-2.321 4.9a1.579 1.579 0 0 0-.317.58c-1.844 1.993-3.821 3.884-5.703 5.817-1.348 1.384.772 3.508 2.121 2.121 2.762-2.837 5.744-5.579 8.207-8.686 2.038-2.572 3.186-5.592 4.713-8.45l.725-1.289c.949-1.687-1.598-3.175-2.589-1.516z" fill="#F4EADC" data-color="1"></path>
        <path d="M167.511 52.95c2.588 3.269 7.877 5.201 11.875 4.756a9.15 9.15 0 0 0 1.144-.21l-.252-1.078a8.47 8.47 0 0 1-1.013.187c-3.431.426-8.327-1.337-10.648-4.062 1.093-1.005 2.264-2.035 3.518-2.808 1.106-.683 2.264-1.163 3.477-1.28.887-.094 2.944.221 4.839.831 1.908.588 3.706 1.547 4.175 2.364.064.104.106.201.132.293.404 1.423-.418 2.486-1.796 3.364a9.014 9.014 0 0 1-1.612.772c-.342.129-.685.235-1.021.323l.279 1.071c.37-.095.748-.213 1.127-.356a10.087 10.087 0 0 0 1.808-.868c1.548-.931 2.872-2.532 2.281-4.61a2.293 2.293 0 0 0-.256-.572c-.844-1.307-2.77-2.179-4.782-2.839-2.022-.636-4.08-.986-5.281-.878-1.436.14-2.753.699-3.952 1.44-1.525.944-2.875 2.183-4.083 3.299l-.089.083-.04.094-.008.021.395.161.171.196-.388.303v.003z" fill="#070707" data-color="2"></path>
        <path d="M174.347 46.85l.005.01-.005-.01zm-.263-3.34c-.08 1.677.045 2.971.263 3.34l-.712.429-.296.267-.001-.002c-3.828-4.293-5.686-12.773-5.891-18.353-.042-1.555.564-5.114 1.641-7.782.645-1.515 1.353-2.808 2.601-3.136.526-.117 1.042-.092 1.493.093 1.576.719 2.002 2.721 2.199 5.238.251 3.813-.327 9.089-.793 13.726-.231 2.318-.438 4.474-.504 6.18zm-2.157-24.153c-.449.044-1.199.962-1.753 2.321-.02.05-.041.1-.06.151-1.01 2.456-1.611 6.06-1.56 7.325.144 4.724 1.658 11.807 4.411 16.072-.038-1.007.032-2.23.125-3.643.298-4.001 1.003-9.324 1.195-13.802.098-2.236.064-4.263-.197-5.769-.252-1.529-.77-2.423-1.322-2.618-.218-.089-.476-.116-.839-.037z" fill="#070707" data-color="2"></path>
        <path d="M178.785 39.981a.088.088 0 0 1-.01.006l.01-.006zm2.072-2.632c.891-1.456 1.915-3.364 3.007-5.42 2.185-4.116 4.631-8.825 6.954-11.857 1.559-1.984 3.025-3.413 4.734-3.135.478.096.92.363 1.293.752.857.966.728 2.435.424 4.054-.584 2.817-2.054 6.114-2.951 7.384-3.265 4.527-9.514 10.547-15.079 11.99l-.002.001-.098-.387-.354-.752c.387-.184 1.209-1.191 2.072-2.63zm15.191-18.89c-.259-.267-.488-.388-.718-.436-.567-.145-1.494.311-2.552 1.443-1.053 1.108-2.205 2.774-3.364 4.689-2.324 3.832-4.691 8.651-6.662 12.144-.706 1.227-1.327 2.283-1.917 3.099 4.655-2.018 9.843-7.067 12.583-10.916.744-1.024 2.244-4.355 2.766-6.959l.034-.159c.294-1.438.179-2.618-.17-2.905z" fill="#070707" data-color="2"></path>
        <path d="M155.448 61.02l-.24.33-.389-.284-.323.073a2.276 2.276 0 0 1-.045-.343l-.137-.1h.001l.113-.156a9.867 9.867 0 0 1-.038-.889c.001-.73.059-1.433.058-2.083 0-.486-.032-.94-.133-1.356-.439-2.035-1.913-3.236-1.962-5.382a4.58 4.58 0 0 1 .305-1.607c.909-2.314 3.837-5.362 6.925-5.427.263 0 .527.025.787.077.768.149 1.496.552 2.12 1.197l.306.315-.014.021c.354.445.485 1 .484 1.571-.026 2.057-1.541 4.83-3.246 7.537-1.64 2.576-3.488 5.026-4.451 6.34l.008.04-.045.01-.084.116zm5.915-15.451l.012-.02a2.762 2.762 0 0 0-1.223-.59 2.886 2.886 0 0 0-.571-.056c-2.291-.065-5.222 2.805-5.887 4.704-.17.465-.235.862-.236 1.223-.049 1.492 1.333 2.725 1.934 5.126.128.537.163 1.079.163 1.612-.001.51-.03 1.013-.048 1.502 1.005-1.365 2.354-3.227 3.578-5.15 1.686-2.62 3.099-5.431 3.073-6.942-.002-.422-.095-.7-.249-.887a1.775 1.775 0 0 0-.186-.209l-.36-.313z" fill="#070707" data-color="2"></path>
        <path d="M24.74 155.864c-.022-1.114.46-2.319.717-3.336.359-1.418.82-2.809 1.361-4.167 1.06-2.66 2.426-5.187 3.913-7.63 1.321-2.173 2.737-4.287 4.135-6.41 4.417-6.709 9.791-12.747 15.767-18.104 5.962-5.344 12.498-10.017 19.297-14.234 6.881-4.268 14.037-8.077 21.277-11.695a735.111 735.111 0 0 1 10.897-5.312c3.547-1.7 7.211-3.255 10.676-5.114.354-.19 4.294-2.294 3.957-.867a.35.35 0 0 1-.166.234C113 81 112.326 81.315 110.374 82.25c-1.825.874-3.652 1.744-5.477 2.616a936.68 936.68 0 0 0-11.009 5.326c-7.316 3.613-14.56 7.392-21.545 11.615-6.88 4.159-13.516 8.755-19.597 14.023-6.055 5.245-11.537 11.166-16.07 17.781-.299.436-.594.876-.885 1.318-3.177 4.832-6.5 9.669-8.438 15.163a30.96 30.96 0 0 0-.913 3.073c-.277 1.152-.374 2.354-.986 3.398-.073.124-.164.254-.302.292-.424.118-.408-.763-.412-.991z" fill="#070707" data-color="2"></path>
        <path d="M4.298 194.528c4.06-2.539 7.562-5.507 10.678-8.785 7.182-7.547 12.324-16.741 17.486-26.086 1.233-2.229 2.47-4.468 3.733-6.696a225.574 225.574 0 0 1 3.033-5.186c15.74-26.71 36.482-43.342 60.433-57.339 7.756-4.534 15.849-8.798 24.225-13.038 3.383-1.714 6.813-3.424 10.287-5.151l3.337-1.656a347.846 347.846 0 0 0 6.446-3.392c.259-.141.517-.283.812-.442l.032-.022.043-.02h.005l.043-.029.039-.017.001.001.037-.026.032-.014c.014-.007.037-.021.045-.024a201.972 201.972 0 0 0 9.548-5.55c15.895-9.88 30.787-23.033 30.757-39.427 0-5.15-1.449-10.654-4.816-16.546.075-.641.446-.729.96-.551 3.447 6.029 4.964 11.736 4.962 17.097-.03 17.134-15.324 30.424-31.278 40.368a201.663 201.663 0 0 1-9.626 5.593v.001l-.035.02a1.256 1.256 0 0 1-.098.054c-.025.015-.047.026-.063.034a.242.242 0 0 1-.057.03l-.813.444a341.727 341.727 0 0 1-6.474 3.408c-1.118.554-2.235 1.108-3.343 1.659a1536.315 1536.315 0 0 0-10.28 5.148c-8.367 4.236-16.438 8.488-24.167 13.007-23.865 13.951-44.41 30.435-60.04 56.949a228.118 228.118 0 0 0-3.022 5.165c-1.259 2.22-2.494 4.456-3.726 6.686-5.166 9.344-10.346 18.629-17.653 26.312-3.172 3.338-6.747 6.368-10.895 8.962-.789.03-1.021-.262-.588-.941zM180.532 5.082v.001-.001z" fill="#070707" data-color="2"></path>
    </g>
</svg>