<svg preserveAspectRatio="xMidYMid meet" data-bbox="1.496 10.499 197.004 179.022" viewBox="1.496 10.499 197.004 179.022" height="200" width="200" xmlns="http://www.w3.org/2000/svg" data-type="color" role="presentation" aria-hidden="true">
    <g>
        <path d="M136.817 113.911c-.001-.033.006-.061.006-.093a3.349 3.349 0 0 1-.173-.912c-.377-8.866-4.612-16.468-7.876-24.508-.519.089-1.009.256-1.411.515-1.696 1.089-2.471 2.98-2.022 4.946l.037.162c.005.189.002.379-.008.568-.011-.204-.198.711-.264.914l-.04.122c-.101.212-.212.423-.326.627a14.29 14.29 0 0 1-.457.76c-.046.071-.514.743-.477.705a9.933 9.933 0 0 1-.192.233c.118.511.088 1.092-.178 1.741-3.22 7.852-4.809 17.039-10.207 23.766-2.596 3.235-6.094 6.229-7.95 9.986a15.82 15.82 0 0 0-.627 1.457c.465.666.705 1.513.533 2.502-.444 2.548.03 5.15-.941 7.617-.786 1.996-2.25 3.281-3.97 4.396.044.205.091.411.165.607-.445.16-.889.32-1.335.478-.678.239-1.358.476-2.037.713-4.565 2.654-9.627 4.588-13.577 8.25-.515.478-.999.979-1.469 1.49a2.122 2.122 0 0 0-.949.417c-6.161 4.77-6.693 12.636-6.737 19.85-.006.944.527 1.541 1.205 1.796a25.2 25.2 0 0 0 1.773 4.295 4.508 4.508 0 0 0 1.196-1.28 9.107 9.107 0 0 0 .96-2.111c.509-.269 1.03-.512 1.553-.751.484-.212.544-.238.18-.077.276-.11.553-.217.831-.321 2.237-.838 4.537-1.49 6.813-2.211 2.487-.787 4.957-1.677 7.3-2.829 2.282-1.122 4.325-2.608 6.322-4.166 1.812-1.414 3.534-2.935 5.289-4.417.383-.324.769-.644 1.156-.962 1.717.225 3.758-.439 4.542-2.086.241-.505.475-1.013.705-1.522 1.53-.924 3.077-1.875 4.463-2.988a3.446 3.446 0 0 1 .218-2.723c1.022-1.919 1.901-3.84 2.519-5.928.127-.429.321-.779.549-1.081-.18-.2-.385-.39-.617-.568a4.372 4.372 0 0 0-1.903-.838c1.165-3.779 2.213-7.599 3.243-11.425.421-1.563.851-3.124 1.282-4.685-.323-1.117-.003-2.405.793-3.283.226-.25.407-.428.683-.642.308-.238.619-.394.941-.513a3.296 3.296 0 0 1 .72-1.695l.131-.157c.155-.426.391-.83.706-1.184.481-.541 1.032-1.032 1.607-1.505 2.466-2.754 5.015-5.438 6.92-8.622.301-.856.445-1.757.402-2.83z" fill="#FEEFEF" data-color="1"></path>
        <path d="M69.327 118.099c3.674-4.217 5.654-9.326 7.474-14.535.41-1.175.304-2.469-.163-3.643a14.407 14.407 0 0 0 1.008-3.419c.013-.022.033-.038.045-.061.497-.572.663-1.376.113-2.166-.028-.04-.063-.073-.091-.113-1.769-6.313-11.049-6.943-17.989-6.404a64.618 64.618 0 0 0-5.218.08c-.975.055-1.578.665-1.813 1.395a23.812 23.812 0 0 0-7.19 3.222c-1.227.823-2.336 1.736-3.106 3.018-.706 1.174-1.132 2.526-1.497 3.839a31.604 31.604 0 0 0-.824 4.037c-.609 1.145-1.216 2.287-1.865 3.403l.011.023c-.032.033-.057.075-.088.109a33.169 33.169 0 0 1-2.297 3.462 44.104 44.104 0 0 0-.914 1.666 29.131 29.131 0 0 1-2.557 2.416l-.015.013a4.688 4.688 0 0 1-.077.053c-.336.233-.666.474-1.005.703-.618.417-1.249.815-1.887 1.2a59.447 59.447 0 0 1-4.659 2.525c-.75.365-1.513.698-2.272 1.045l-.336.136c-.359.143-.72.28-1.081.419-.29.111-.573.225-.853.341.289 1.202-.091 2.499-1.549 3.229-3.021 1.514-4.367 6.319-6.249 9.027-2.445 3.518-5.207 6.795-7.87 10.146.104.19.221.371.346.547 7.931-3.553 15.799-7.025 24.29-9.204 6.747-1.731 13.612-2.909 20.494-3.978a518.175 518.175 0 0 0 7.993-4.428c4.084-2.312 8.563-4.512 11.691-8.103zm-10.709-6.981c.122-.01.244-.024.365-.044.011.16.035.318.065.475l-.234.209c-.291.193-.647.411-.846.533.222-.388.436-.781.65-1.173z" fill="#FEEFEF" data-color="1"></path>
        <path d="M61.038 67.888c.85.498 2.314.28 2.749-.722.127-.293.265-.58.426-.856.089-.154.187-.301.282-.45l.111-.159.023-.028c.293-.355.577-.631.852-.858.548.704 1.478 1.059 2.451.423a45.707 45.707 0 0 1 2.627-1.581c4.398-.925 8.796-1.866 13.217-2.653 6.45-1.148 12.919-.894 19.441-.851 8.811.058 17.831.55 26.279-1.859a45.501 45.501 0 0 0 2.523-.266c1.402-.192 2.794-.488 4.112-1.013 1.518-.605 2.897-1.442 4.295-2.279l2.877-1.72c.855.02 1.419-.418 1.693-1.012l.141-.084c.716-.428 1.041-1.454.572-2.183-.424-.659-1.256-.974-1.98-.673a2.208 2.208 0 0 0-.475-.071c-8.499-.37-17.156 1.263-25.653 2.954-.424.011-.847.032-1.271.04-1.242.003-2.485.015-3.727.035-7.168-.095-14.278-1.609-21.401-1.537-8.548.087-22.576 2.744-27.595 10.744-1.412 1.002-2.592 2.306-3.287 3.907-.435.995-.297 2.158.718 2.752z" fill="#FEEFEF" data-color="1"></path>
        <path d="M194.465 36.248c-.683-1.777-2.05-3.063-4.012-3.326a4.777 4.777 0 0 0-1.85.1 5.59 5.59 0 0 0-1.936.107l.007-.023c.344-1.505-.018-3.199-.959-4.424-.029.01-.052.026-.082.036-4.608 1.493-9.721.063-14.339-1.763l-.052.037a1.574 1.574 0 0 0-.326-.034l-.066.002a4.056 4.056 0 0 0-.081-.218c-1.366-.553-2.687-1.13-3.932-1.669-7.825-3.387-15.36-6.758-23.785-8.423-4.236-.837-8.394-1.285-12.525-1.208a5.477 5.477 0 0 0-1.678-.449c-8.898-.953-17.831.357-26.049 3.926-8.572 3.723-15.349 10.325-23.693 14.447-2.619 1.294-3.013 3.772-2.129 5.839-.811.694-1.626 1.385-2.432 2.086-.067.059-.138.095-.207.147l.023.035-.046.044c-.276.277-.485.731-.467 1.128.036.797.705 1.679 1.594 1.595 5.986-.565 11.912-1.648 17.751-3.074.725-.177 1.449-.359 2.172-.546l2.677-.18a54.446 54.446 0 0 0 5.274-1.107c5.734-1.521 10.982-4.057 17.042-3.949 7.732.138 14.788 3.625 21.964 6.508 4.081.816 8.305.868 12.459.486 3.227-.297 6.47-.721 9.662-1.28 2.9-.508 5.626-1.782 7.377-4.149a18.882 18.882 0 0 0 2.719-.638 1.73 1.73 0 0 0 .753-.488c.848.052 1.692.128 2.542.196l.112.013c.254.038.507.076.76.119l.14.026c-3.851.838-7.648 2.041-10.868 4.306-3.209 2.257-5.779 5.188-7.196 8.674-2.285 1.943-4.328 4.118-5.938 6.701-1.596 2.56-2.444 5.306-2.969 8.163a3.268 3.268 0 0 0-.102-.398c-.415-1.277-1.2-2.146-2.195-2.642-.18.266-.468.471-.898.545-4.273.742-8.325 2.262-12.714 1.592a1.372 1.372 0 0 1-.706-.311c-5.148.728-10.11 1.982-14.899 3.839-.102.01-.205.034-.307.049a3.119 3.119 0 0 1-.83 1.223 6.032 6.032 0 0 0-1.993.253 7.032 7.032 0 0 0-4.053 3.174c-.435.746-.627 1.607-.633 2.472-.106.163-.224.308-.327.477-.095.157-.155.33-.23.496-1.505 1.751-3.008 3.512-4.739 5.054-.821-.022-1.696.181-2.586.678-6.763 3.776-13.503 7.758-18.833 13.452-.978.54-1.957 1.076-2.94 1.606a2.83 2.83 0 0 1-1.103.595c-.596.318-1.193.634-1.791.948a6.978 6.978 0 0 0-.53.834c-.635 1.198-.905 2.444-.961 3.709-.303.99-.357 1.98-.175 3.063.024.143.074.277.138.405-.024.239-.003.499.08.779.762 2.571 2.188 4.671 3.399 7.031 1.091 2.126 1.429 4.198 1.443 6.37l-1.053 2.855c-.326.884-.638 1.775-.992 2.649l-.005.011a13.9 13.9 0 0 1-1.066 1.931 4.457 4.457 0 0 0-.122.195c-.03.021-.089.075-.203.192-.284.292-.562.587-.859.866-.298.279-.608.548-.922.81-.158.132-.318.261-.478.389l-.387.304-.356.271-.492.375c-.515.394-1.032.787-1.541 1.19a39.596 39.596 0 0 0-1.877 1.595c-.188-.019-.376-.003-.564.002a41.797 41.797 0 0 1-4.269 2.378 148.376 148.376 0 0 1-4.306 3.774 132.764 132.764 0 0 1-5.325 4.248c-1.022.769-1.828 1.878-2.099 3.082a54.16 54.16 0 0 1-1.094.576 4.641 4.641 0 0 1-.535 2.022 4.618 4.618 0 0 1-1.006 1.72c-.188.301-.361.611-.52.929-.867 2.463-1.129 5.097-1.947 7.578a6.792 6.792 0 0 1-.184.56c.267.226.564.416.883.563a210.441 210.441 0 0 0 5.262-3.568 3.634 3.634 0 0 0-.202-1.044 5.778 5.778 0 0 0 1.021-.369 53.617 53.617 0 0 0 4.315-2.324c14.359-10.838 27.473-24.345 32.772-40.864a3.43 3.43 0 0 1 .439-.882l1.672-4.532c.461-1.248.103-2.604-.668-3.65.13-.149.298-.347.357-.41.342-.362.703-.705 1.076-1.034a21.8 21.8 0 0 1 .488-.416l.231-.176.245-.171c.298-.199.592-.403.894-.597 1.661-1.067 3.422-1.969 5.215-2.792.8-.367 1.608-.717 2.417-1.063l.358-.151.42-.175 1.424-.595c2.039-.856 4.082-1.709 6.059-2.702a35.32 35.32 0 0 0 2.015-1.107c4.898-3.695 9.371-7.912 12.777-13.107 2.122-3.236 3.615-6.214 6.772-8.591 3.212-2.419 6.916-4.068 10.202-6.382 3.065-2.158 6.549 2.618 3.934 5.103-.131.124-.245.261-.374.388-.349 3.324-.69 6.65-1.032 9.975.338.8.377 1.744-.096 2.723-.834 1.723-1.862 3.306-3.023 4.781.007.025.018.049.025.074 2.648-.764 5.063-1.972 7.078-4.182 3.266-3.582 6.163-7.695 8.816-11.747.457-.699 1.051-1.116 1.685-1.326.333-.356.665-.714.997-1.071-.012-.054-.026-.105-.037-.16-.404-1.955 2.59-2.784 2.994-.826.457 2.211 1.416 4.108 1.881 6.039l.034.037c.054.054.112.106.17.159-.036.091-.065.187-.098.281.308 1.587.23 3.216-.793 5.077-.549.998-1.239 1.81-2.003 2.549.009.139.005.279.024.417-.6.235-1.152.606-1.609 1.13-4.492 5.145-7.863 10.969-10.042 17.436-.34 1.009-.246 2.119.156 3.121a5.696 5.696 0 0 0-1.504 1.474 19.686 19.686 0 0 0-1.532 2.575c.642.535.903 1.487.098 2.196-3.534 3.113-3.881 7.024-5.116 11.288a47.571 47.571 0 0 1-1.637 4.731 396.742 396.742 0 0 0-1.01 8.807l-.01.102a.234.234 0 0 0-.004.026c-.059.377-.113.754-.18 1.13-.134.746-.295 1.49-.509 2.218-.085.29-.18.576-.279.861-.034.098-.06.177-.081.242a1.204 1.204 0 0 0-.076.106c-.363.549-.655 1.156-1.015 1.712-1.43 2.206-2.896 4.577-3.033 7.237-3.094 2.248-5.719 4.914-8.013 8.02-.865 1.172-.769 2.835-.095 4.165a48.685 48.685 0 0 0 2.649-1.143 44.17 44.17 0 0 1 3.131-1.707 1.92 1.92 0 0 0 .802-.146c5.637-2.249 9.838-6.468 12.057-12.122.115-.294.137-.557.122-.806.351-.863.693-1.724 1.053-2.557a2.073 2.073 0 0 0 .062-1.54c.058-.07.109-.144.169-.212.639-.722.77-1.772.231-2.56.43-.336.905-.549 1.398-.626.232-.3.474-.595.734-.881.071-.504.138-1.01.201-1.519.426-3.432.837-6.865 1.245-10.299 1.644-.351 3.076-1.497 3.518-3.248.337-1.335.498-2.706.641-4.073l.037-.376a1.501 1.501 0 0 1-.295-1.302c.562-2.592 2.187-4.499 3.26-6.858.043-.094.071-.193.11-.289a4.692 4.692 0 0 0-.12-1.996c.345-.18.66-.411.957-.668.076-.232.151-.465.247-.691.457-1.079 1.137-2.007 1.804-2.954.102-.281.195-.565.304-.844.07-.18.143-.359.216-.539.039-.091.134-.313.219-.499.05-.11.107-.216.157-.326 2.995-8.025 7.308-15.237 12.264-22.241-.17-.7-.072-1.487.457-2.291 1.643-2.496 3.735-4.672 5.447-7.102.206-.554.405-1.109.615-1.662 3.618-9.534 9.382-19.753 8.449-30.22z" fill="#FEEFEF" data-color="1"></path>
        <path d="M101.268 17.695c-2.421.87-4.609 2.129-6.682 3.634-.105.076-.206.157-.311.234 2.555-1.402 5.117-2.784 7.699-4.091-.235.072-.473.139-.706.223z" fill="#FEEFEF" data-color="1"></path>
        <path d="M171.487 94.89c6.998-12.756 26.952-33.921 27.013-52.449.003-4.223-1.105-8.443-3.623-12.213-.011-.008-.143-.072-.153-.081-.569-.426-1.248-.682-1.991-.809-11.284-4.042-24.394-5.464-35.1-10.84-6.899-3.457-12.307-6.352-20.183-7.359-3.341-.428-6.496-.64-9.545-.64-10.991 0-20.25 2.837-30.575 8.216C91.026 22 83.354 27.527 78.268 32.412c-1.969 1.894-3.436 4.34-4.749 6.713a53.348 53.348 0 0 0-1.799 3.506c-.291.631-.586 1.261-.872 1.895-.19.421-.786 1.229-.332 1.643.168.153.413.24.634.191 1.03-.228 1.469-.497 2.208-.69a29.645 29.645 0 0 1 2.375-.538c1.723-.305 3.459-.52 5.19-.773l.274-.04c3.247-.479 6.523-.882 9.809-.904l.279-.001c.584 0 1.147.013 1.689.041.938.055 1.866.078 2.777.078 8.747-.005 16.362-2.2 24.637-3.616.9-.15 1.766-.22 2.602-.22 6.941-.053 12.265 4.925 20.069 5.385.497.029 1.003.039 1.517.039 6.637-.004 14.75-2.056 20.786-4.176 4.459-1.571 12.251-5.945 18.812-8.442.883-.126 1.759-.262 2.626-.402-9.747 3.937-20.053 8.013-27.24 14.933-.195.015-.387.032-.595.051-10.641.657-21.25 1.665-31.914 1.665-3.578 0-7.162-.11-10.757-.392-2.504-.19-5.083-.273-7.702-.273-7.514 0-15.338.687-22.426 1.512-2.854.332-8.282 1.154-13.483 2.66-5.196 1.53-10.186 3.631-12.196 6.968-.738 1.254-.972 2.705-.972 4.177 0 1.353.232 2.707.377 4.05.135 1.251.264 2.503.385 3.755.039.404.007 2.115.677 2.115.598.199 1.138-1.302 1.354-1.66.984-1.636 2.282-3.112 3.447-4.622.226-.293.426-.472 1.244-.751.804-.264 2.143-.551 4.328-.951 7.952-1.454 17.458-1.672 26.146-2.169 8.612-.507 17.788-.687 25.968-1.662 11.653-1.423 20.858-9.539 31.214-12.19 1.016-.106 2.018-.2 3.002-.287-2.865 3.279-5.053 7.14-6.227 11.786-.17-.002-.342-.003-.519-.003-8.663.007-24.581 1.957-32.267 4.129-3.855 1.096-5.988 3.048-8.444 5.522-.74.741-.946 1.593-1.092 2.251-.151.677-.261 1.171-.659 1.639-2.641 3.185-8.103 5.194-11.779 8.044-3.686 2.895-9.874 6.453-14.612 10.837-5.197-5.178-12.843-7.752-20.423-7.755-10.371 0-20.736 4.89-24.267 14.931-.735 2.095-.615 3.739-.721 5.201-.109 1.471-.364 2.794-1.828 4.725-3.354 4.463-9.372 5.188-14.072 8.857-3.894 3.09-3.871 5.451-6.18 9.022-.877 1.356-1.956 2.542-3.095 3.681-1.306 1.307-2.672 2.553-3.979 3.858-1.319 1.317-2.594 2.695-3.652 4.234a14.723 14.723 0 0 0-1.542 2.823c-.328.814-.691 1.693-.794 2.571-.022.189-.013.415.146.52.103.068.236.061.358.051 2.656-.213 5.307-.458 7.938-.893l.08-.013.04-.007c.335-.056.67-.116 1.004-.179 2.469-.469 4.906-1.099 7.313-1.822 2.401-.722 4.773-1.538 7.132-2.385 2.354-.845 4.697-1.721 7.05-2.567.575-.207 1.15-.411 1.726-.613.547-.192 1.176-.325 1.693-.584 9.268-3.155 17.553-5.255 25.891-11.167 5.386-3.849 10.739-11.616 13.851-18.689.007.042.012.083.02.125.877 4.298 5.082 7.287 5.274 10.908.025.31.035.607.035.9-.006 3.991-2.122 6.741-5.117 9.121-2.986 2.367-6.801 4.238-9.895 6.338a32.25 32.25 0 0 0-3.242 2.535 36.935 36.935 0 0 0-3.002 2.999 41.753 41.753 0 0 0-2.727 3.395 45.208 45.208 0 0 0-2.415 3.724 46.907 46.907 0 0 0-3.748 8.169 45.13 45.13 0 0 0-1.261 4.31 42.214 42.214 0 0 0-.75 3.974c-.061.437-.084.87.116 1.276.108.22.263.417.45.575.158.133.471.375.691.287.086-.034.142-.116.193-.194.359-.546.714-1.094 1.103-1.62.477-.645.974-1.275 1.497-1.884a34.841 34.841 0 0 1 2.999-3.077 42.02 42.02 0 0 1 3.2-2.619 62.1 62.1 0 0 1 3.359-2.313 148.11 148.11 0 0 1 3.478-2.161c1.186-.719 2.375-1.432 3.555-2.161a98.789 98.789 0 0 0 3.591-2.314 61.314 61.314 0 0 0 3.585-2.619 51.079 51.079 0 0 0 2.977-2.548l.211-.197c.035-.033.167-.199.21-.199 7.873-7.542 15.264-18.337 17.439-28.842.882-4.329 1.24-7.268 2.321-9.459 1.072-2.179 2.833-3.8 6.9-5.658 6.49-2.955 13.728-6.753 19.703-11.572 0 0-.086.087-.086.089a45.278 45.278 0 0 1-.11 2.201c-5.091 12.9-7.824 24.009-16.877 34.602-3.203 3.723-5.406 6.197-5.906 11.19-.051.507-.069.979-.069 1.42.003 1.71.289 2.968.284 4.09-.015 1.512-.408 2.954-2.892 5.663-5.019 5.446-11.745 7.563-17.461 10.485-5.703 2.88-10.451 6.874-10.701 15.757-.084 2.744-.778 6.675-.781 10.125.004 1.962.214 3.791.99 5.232.493.916 1.269 1.555 2.24 1.912.725.267 2.406.74 3.127.407.691-.32.767-1.48 1.111-2.079.448-.78.994-1.5 1.602-2.161 1.231-1.338 2.718-2.421 4.28-3.338 3.086-1.81 6.499-2.99 9.899-4.057 8.516-2.673 19.635-8.872 24.787-16.549 2.478-3.716 2.923-8.018 2.926-12.244-.003-2.627-.174-5.239-.174-7.698 0-2.488.181-4.813.858-6.824.624-1.831 1.638-3.415 3.34-4.721 7.006-5.349 12.977-9.182 12.988-17.546 0-1.836-.286-3.868-.902-6.165-2.01-7.506-5.988-15.284-9.761-22.134 1.734-1.621 3.315-3.343 4.669-5.172 1.989-2.711 2.988-5.279 4.966-7.622 1.056-1.313 4.166-2.589 7.139-3.927 1.737-.817 3.474-1.652 4.778-2.727a34.856 34.856 0 0 0-.267 3.317c-.092 2.77-.084 5.546-.313 8.31-.221 2.662-.661 5.344-1.699 7.819a15.207 15.207 0 0 1-1.926 3.357 14.407 14.407 0 0 1-1.333 1.514c-.46.454-.958.727-1 1.453-.019.326.105.77.473.851.123.027.25.001.373-.024.66-.134 1.33-.212 1.995-.316l.059-.009a31.842 31.842 0 0 0 1.682-.304 17.825 17.825 0 0 0 1.638-.426 17.917 17.917 0 0 0 1.663-.615 16.714 16.714 0 0 0 5.461-3.75c1.712-1.769 3.034-3.878 4.101-6.088.118-.245.452-.708.452-.977.817-1.815 3.091-6.387 4.422-9.964.759 1.607 1.916 3.16 2.375 6.685.062.442.088.841.088 1.203-.013 1.665-.521 2.586-1.374 3.644-.855 1.045-2.088 2.142-3.274 3.861-3.724 5.378-7.512 13.32-9.984 20.917-8.646 6.552-8.759 14.301-8.737 22.241 0 .125.003.247.003.363 0 2.271-.007 4.579-.205 6.913-.726 9.355-10.724 16.771-15.883 25.719-1.578 2.758-2.68 5.688-2.838 8.891l-.005.036.002.03c.03.457-.063.934-.041 1.397.028.601.082 1.208.195 1.799.018.093.039.19.098.265.091.115.25.15.396.149.678-.006.987-.492.905-1.12a13.917 13.917 0 0 1-.101-2.414s.004-.038.002-.062c.501-4.265 5.017-6.423 10.211-8.393 5.135-2.001 10.787-3.67 12.736-8.034 2.184-5.155 1.862-10.423 4.34-14.551.242.785.48 1.57.712 2.359a96.926 96.926 0 0 0 2.063 12.622s-.018.833.841.851c.337.007.564-.198.617-.532.084-.528-.054-1.116-.092-1.646-.068-.955-.09-1.909-.196-2.86-.107-.961-.324-1.959-.324-2.927a264.048 264.048 0 0 1-.29-4.07c-.17-2.724-.286-5.451-.295-8.181l-.001-.325c0-3.381.171-6.709.61-9.887 1.489-10.705 7.167-19.161 12.411-28.644zM60.965 63.402c0-1.325.219-2.511.773-3.448 1.51-2.654 6.267-4.863 11.35-6.311 5.076-1.47 10.454-2.29 13.246-2.612 7.057-.822 14.833-1.503 22.258-1.503 2.588 0 5.132.082 7.589.269 3.64.284 7.261.396 10.87.396 3.511 0 7.01-.109 10.5-.277-13.148 1.688-27.094 3.487-38.964 3.485-2.129 0-4.191-.058-6.167-.186a16.874 16.874 0 0 0-1.104-.032c-4.002.004-11.547 1.029-18.204 3.562-5.298 2.022-10.157 5.05-11.896 9.482-.149-.964-.252-1.921-.251-2.825zm62.305-3.329c-8.076.965-17.231 1.148-25.88 1.653-8.654.5-18.202.71-26.325 2.191-2.203.406-3.566.688-4.521 1.001-1.434.419-2.043 1.232-2.46 2.112-.344.649-.954 1.59-2.094 2.901-.001-.053-.004-.107-.004-.159-.042-5.365 5.169-9.216 11.643-11.681 6.427-2.453 13.909-3.467 17.686-3.463.378 0 .719.009 1.012.027 2.014.133 4.106.19 6.26.19 15.283-.003 33.8-2.928 49.669-4.815-8.334 3.546-16.031 9.001-24.986 10.043zm41.608-20.489c-5.921 2.085-13.957 4.097-20.302 4.093-.492 0-.972-.011-1.437-.037-7.163-.321-12.492-5.333-20.149-5.388-.919 0-1.864.078-2.846.243-8.381 1.44-15.901 3.596-24.393 3.594a46.46 46.46 0 0 1-2.698-.076 32.748 32.748 0 0 0-1.768-.044c-5.588.003-12.626 1.216-18.07 2.067 8.399-10.883 32.132-16.062 44.539-17.052a97.884 97.884 0 0 1 8.059-.338c13.171 0 24.537 2.738 37.986 5.919 2.761.654 5.72.91 8.749.91 2.103 0 4.243-.127 6.379-.331-5.375 2.426-10.792 5.302-14.049 6.44zm18.922-8.485c-3.74.54-7.573.931-11.252.931-2.95 0-5.795-.25-8.414-.871-13.438-3.176-24.941-5.955-38.321-5.958-2.646 0-5.362.111-8.181.345-11.731 1.025-33.164 5.327-43.425 15.266 1.215-2.666 2.664-5.037 5.07-7.361 4.951-4.763 12.581-10.26 18.725-13.456 10.215-5.314 19.183-8.045 29.929-8.05 2.956 0 6.046.205 9.334.628 7.594.97 12.781 3.739 19.714 7.214 9.917 4.96 21.56 6.605 31.844 9.774-1.55.321-3.244.866-5.023 1.538zM15.794 128.993c2.504-3.945 2.321-5.868 5.861-8.668 4.192-3.395 10.427-4.1 14.322-9.11 1.635-2.118 2.021-3.9 2.12-5.503.106-1.612.002-3.005.642-4.821 3.247-9.292 12.949-13.958 22.919-13.965 6.794-.002 13.632 2.192 18.459 6.468-8.953 1.298-12.536 7.968-16.462 14.363-4.502 7.323-12.172 11.163-19.992 14.689-9.432 4.267-19.892 7.074-29.265 11.845-5.001 2.535-7.03 4.682-10.121 8.03 2.293-4.746 8.485-8.731 11.517-13.328zm45.243-4.444c-8.082 5.737-16.167 7.8-25.515 10.976-9.486 3.22-20.963 7.646-31.116 8.789 3.699-3.978 5.354-6.037 10.652-8.736 9.183-4.684 19.624-7.492 29.204-11.816 7.833-3.541 15.836-7.479 20.63-15.25 4.049-6.558 7.242-12.56 15.583-13.707-2.286 2.416-4.063 5.088-4.685 8.097-2.516 7.573-8.819 17.458-14.753 21.647zM77.03 188.05c-1.534-.055-2.297-.624-2.88-1.646-.584-1.061-.818-2.694-.814-4.546-.004-3.273.684-7.169.779-10.079.315-8.343 4.367-11.625 9.915-14.519 5.535-2.854 12.514-5.014 17.865-10.791 2.61-2.794 3.292-4.767 3.276-6.641-.007-1.353-.289-2.553-.287-4.09 0-.399.018-.821.064-1.275.485-4.582 2.316-6.596 5.566-10.4 8.036-9.414 11.198-19.17 15.17-29.888-.807 5.891-2.049 11.985-2.378 18.038-.342 6.443-2.301 14.411-5.221 21.745-1.999 5.034-4.437 9.769-7.099 13.542-6.953 10.028-22.438 11.873-29.533 22.745-3.451 5.37-4.17 11.897-4.423 17.805zm60.527-81.653c.586 2.203.851 4.11.851 5.795.011 7.5-5.264 10.937-12.42 16.401-1.945 1.484-3.141 3.355-3.834 5.408-.754 2.254-.931 4.728-.933 7.282.002 2.525.174 5.135.174 7.698 0 4.138-.454 8.113-2.683 11.443-4.785 7.21-15.755 13.411-24.013 15.974-5.036 1.602-12.722 4.05-16.094 9.413.353-5.152 1.276-10.457 4.072-14.787 6.433-10.195 21.887-12.058 29.498-22.694 2.748-3.898 5.225-8.721 7.26-13.841 2.966-7.463 4.963-15.535 5.32-22.198.417-7.748 2.412-15.742 2.964-23.441.346-.864.7-1.737 1.066-2.616 3.525 6.459 6.937 13.306 8.772 20.163zm7.808-40.539c-2.936 1.365-6.087 2.509-7.645 4.313-2.153 2.573-3.161 5.18-5.024 7.694-1.514 2.046-3.339 3.974-5.37 5.779-6.092 5.387-14.053 9.626-21.148 12.854-4.193 1.893-6.365 3.788-7.601 6.338-1.231 2.54-1.556 5.537-2.438 9.802-2.064 10.066-9.312 20.722-17.023 28.089-9.286 8.94-20.38 11.705-28.527 22.098 1.686-10.889 8.03-21.618 16.275-27.205 2.971-2.022 6.821-3.906 9.982-6.4 3.156-2.477 5.672-5.693 5.665-10.251 0-.327-.011-.665-.04-1.015-.442-4.527-4.747-7.547-5.294-11.052a9.634 9.634 0 0 1-.159-1.749c0-.63.064-1.255.175-1.873.053-.153.111-.318.163-.484l-.051-.016c.732-2.967 2.822-5.739 5.527-8.287 4.589-4.325 10.849-7.916 14.739-10.958 3.375-2.678 8.925-4.647 11.991-8.249.661-.779.82-1.617.964-2.255.15-.656.27-1.103.707-1.549 2.462-2.465 4.274-4.129 7.813-5.15 7.417-2.109 23.346-4.07 31.816-4.072-.936 1.305-3.097 2.529-5.497 3.598zm21.406-1.507l-.672-.19a6.507 6.507 0 0 0-.263 1.784l.002.1c-.897 3.34-4.042 9.68-5.057 11.918-3.291 7.198-7.282 10.398-14.473 11.451 5.318-6.009 5.363-14.569 5.623-21.605.071-2.188.342-4.216.776-6.1l.022-.094v-.014c1.244-5.265 3.809-9.442 7.239-12.945l.211-.202.014-.014.172-.165.105-.099.01-.024c.057-.056.117-.109.174-.164.178-.171.357-.341.54-.509 8.068-7.414 20.254-11.529 31.109-16.076-.546 2.82-2.639 4.638-5.349 6.395-3.043 1.974-6.758 3.698-9.218 6.602-3.58 4.258-6.672 10.388-9.453 15.108-1.149 1.958-1.835 3.421-2.183 4.646l.696.195-.025.002zm-17.009 87.759c-1.418 3.462-6.689 5.294-11.925 7.257-3.174 1.223-6.396 2.551-8.567 4.647.415-1.071.93-2.123 1.525-3.163 4.843-8.607 15.136-16.027 16.068-26.312.205-2.412.209-4.761.209-7.034v-.363c.022-7.432.043-13.868 6.509-19.716-.828 2.851-1.446 5.605-1.765 8.113a32.152 32.152 0 0 0-.254 4.043c.002 6.085 1.684 11.473 3.324 16.778-3.518 4.843-2.891 10.683-5.124 15.75zm5.993-17.853c-1.449-4.738-2.744-9.474-2.743-14.676 0-1.255.075-2.54.241-3.863.389-3.056 1.249-6.559 2.415-10.164 2.424-7.526 6.22-15.49 9.865-20.752 1.081-1.569 2.237-2.595 3.204-3.766.968-1.16 1.715-2.554 1.701-4.557 0-.434-.031-.895-.1-1.397-.763-5.406-2.973-6.913-3.046-8.862.15-.577.251-1.088.255-1.557 0-.081-.005-.164-.014-.25.308-1.016.927-2.353 1.999-4.176 2.806-4.774 5.896-10.857 9.311-14.909 2.151-2.573 5.729-4.287 8.894-6.317 2.532-1.62 4.875-3.558 5.769-6.46-.717 8.397-6.18 21.746-10.354 28.513-3.318 5.468-27.459 31.917-27.444 70.499.004.892.022 1.791.047 2.694zm1.891-10.924a59.83 59.83 0 0 0-.327 2.915c2.053-35.127 23.708-58.954 27.076-64.432 4.201-6.879 9.578-19.794 10.505-28.644 1.498 2.937 2.148 6.036 2.15 9.269.06 17.573-19.607 38.77-26.832 51.753-5.191 9.406-11.022 18.029-12.572 29.139z" fill="#070707" data-color="2"></path>
    </g>
</svg>