<svg viewBox="1.001 62.5 197.999 75.001" xmlns="http://www.w3.org/2000/svg" aria-hidden="true">
    <g>
        <path d="M161.538 119.323c-.041-1.697-.022-3.402-.282-5.082-.513-3.319-1.635-6.601-2.499-9.845a1.014 1.014 0 0 0-.283-.49c.066-.233.04-.499-.131-.77l-.362-.571a.679.679 0 0 0 .2-.428c.1-.895-.603-1.56-1.264-2.07a.49.49 0 0 0-.022-.136c-.273-.876-.941-1.499-1.679-2.01-.79-.547-1.632-1.027-2.449-1.532a.6.6 0 0 0-.606.009 3.038 3.038 0 0 1-.211-.128c-.187-.123-.366-.257-.555-.377a7.688 7.688 0 0 0-1.334-.658c-.276-.107-.63.107-.711.378a.597.597 0 0 0-.229.353 1.922 1.922 0 0 0-.994.805 2.742 2.742 0 0 0-.317-.252c-.761-.531-1.614-.638-2.46-.325a2.852 2.852 0 0 0-1.303-.017c.044.264.003.547-.147.778a.548.548 0 0 0-.543-.134 14.681 14.681 0 0 0-4.309 2.269.447.447 0 0 0-.179.076l-.045.033a.675.675 0 0 0-.322.155c-.256.216-.506.439-.751.666-2.071 1.922-4.072 3.794-5.786 6.085-1.689 2.257-3.147 4.581-4.319 7.155a52.545 52.545 0 0 0-1.503 3.684l-.056.779c-.239.02-.479.167-.525.417l-.342 1.849a.672.672 0 0 0 .132.547 3.667 3.667 0 0 0-.216.216c-.278 3.89-.422 8.024-1.073 11.972.323-.371.654-.732.995-1.083l.011-.078.282-.21c.376-.279.698-.681 1.045-.998.363-.331.733-.655 1.11-.971a45.553 45.553 0 0 1 2.329-1.823c.993-.73 2.015-1.458 3.11-2.048.629-.339 1.181-.828 1.734-1.273.255-.205.538-.264.801-.227a.964.964 0 0 0 .104-1.047l1.232-.95c.708-.546 1.451-1.078 2.18-1.631.957.528 2.126.311 2.987-.404 1.959-1.627 3.978-3.529 5.63-5.624l-.02-.053c-.254-.726.338-1.192.944-1.201.085-.124.176-.245.258-.37a1.659 1.659 0 0 0-.018.398.962.962 0 0 1 .749.643c1.818 5.185 4.882 10.34 8.651 14.376 1.423 1.524 2.77 3.08 4.294 4.546-.502-2.303-.905-4.623-1.016-6.985-.1-2.139.027-4.264.083-6.388zm-10.351-15.425a26.367 26.367 0 0 0-.119-1.747l.346.401c.235.276.475.551.707.833a2.22 2.22 0 0 0-.934.513zm2.361-5.406a1.597 1.597 0 0 1-.206-.37c-.081-.031-.159-.069-.242-.097a.953.953 0 0 1-.504-.381c.376.229.753.456 1.127.689a.522.522 0 0 0-.175.159z" fill="#F9EBD2" data-color="1"></path>
        <path d="M198.228 74.226c-.063-1.289-.377-2.546-.514-3.825a74.848 74.848 0 0 0-.336-2.752c-.095-.658-.286-1.298-.379-1.956-.074-.524-.086-1.072-.719-1.239-.162-.043-.336-.201-.525-.253-.295-.081-.621-.107-.925-.145-.732-.092-2.054-.4-2.649.191-.444.44-.191.886.001 1.371.488 1.232.331 2.577.305 3.869a24.855 24.855 0 0 1-.375 3.878c-.455 2.534-1.352 5.01-2.822 7.143-.221.32-.453.632-.698.934-2.477 3.055-5.749 5.131-9.197 6.957-1.254.664-2.492 1.34-3.813 1.862-1.882.744-3.818 1.352-5.824 1.729-2.103.395-4.212.755-6.318 1.129-1.348.239-2.696.484-4.04.748a.408.408 0 0 0-.326.267l-.031-.003c-.032.031-.075.048-.104.083-.594.038-1.188.096-1.784.162a29.171 29.171 0 0 0-5.471-.198.49.49 0 0 0-.451.348c-.529.128-.507.98.101.966a8.184 8.184 0 0 1 1.594.11c.02.003.034-.007.053-.006.044.016.086.036.138.04a81.32 81.32 0 0 1 6.105.755.569.569 0 0 0 .129.006l.095.016c1.177.156 2.366.078 3.541-.057.236-.027.471-.056.707-.085.761.039 1.523.051 2.286.039.407-.059.812-.134 1.22-.19.031.057.081.1.124.148a84.116 84.116 0 0 0 2.293-.133c2.062-.233 4.212-.473 6.365-.778.76-.108 1.559-.454 2.291-.684a66.199 66.199 0 0 0 2.305-.768 45.403 45.403 0 0 0 4.437-1.821c2.816-1.346 5.472-3.065 7.654-5.301a20.281 20.281 0 0 0 2.635-3.316c.87-1.374 1.665-2.8 2.289-4.302.628-1.513.712-3.315.633-4.939z" fill="#F9EBD2" data-color="1"></path>
        <path d="M134.982 93.689c2.038.034 4.076.055 6.113.107.317.008.634.02.952.032 1.653.065 3.313.157 4.957-.064.246-.033.496-.072.714-.189.652-.351.757-1.214.842-1.945.411-3.505 2.151-6.877 1.79-10.388-.109-1.059-.409-2.09-.767-3.094-.193-.54-.407-1.081-.749-1.543-.34-.459-.794-.821-1.245-1.173a95.88 95.88 0 0 0-5.946-4.285c-.643-.427-1.314-.855-2.077-.985-.276-.047-.564-.055-.823-.163-.311-.13-.545-.39-.778-.633a12.706 12.706 0 0 0-3.876-2.756c.213 3.593.436 7.239 1.615 10.643.746 2.155 1.859 4.164 3.011 6.135.324.554.652 1.107 1.03 1.625.654.896 1.452 1.678 2.245 2.456l3.072 3.012c.578.567.711.886-.238.785a20.89 20.89 0 0 0-2.166-.111c-2.891-.005-5.751.496-8.635.621-1.853.08-3.697-.123-5.547.07-.693.073-1.379.178-2.062.302a1.298 1.298 0 0 0-.767-.437c-2.089-.325-4.13-.17-6.166.081-.196-.238-.492-.417-.906-.489-2.242-.386-4.553-.043-6.806.107-2.248.149-4.498.291-6.744.47l-.239.02a1.675 1.675 0 0 0-.444-.321 1.513 1.513 0 0 1-.573.258c-2.822.653-5.709.504-8.576.706a1.59 1.59 0 0 1-.571.049c-.166.015-.332.025-.498.043-.087.009-.155-.011-.234-.015-17.33 1.588-34.304 7.695-47.476 19.087.132-.035.266-.088.403-.179l6.939-4.662c.125-.084.226-.178.309-.28.424.199.935.237 1.465-.004 3.147-1.432 6.28-2.898 9.449-4.28a66.96 66.96 0 0 1 2.821-1.137c.178.113.374.192.579.229 2.138-1.019 4.368-1.811 6.736-2.196.181-.029.349-.024.508 0 2.731-.81 5.436-1.363 8.184-1.823 2.359-.52 4.743-.911 7.164-1.09.661-.099 1.325-.201 1.997-.308.45-.072.837.037 1.146.244 6.932-1.236 13.96-1.946 21.11-2.04.146-.072.311-.123.499-.139 6.405-.544 12.839-.462 19.259-.353z" fill="#F9EBD2" data-color="1"></path>
        <path d="M164.533 135.16l-.048-.097c-.202-.421-.302-.845-.419-1.297-.257-.994-.461-2-.627-3.013-.332-2.024-.514-4.069-.668-6.113l-.001-.01c-.124-1.645-.224-3.292-.338-4.938-.112-1.623-.122-3.329-.415-4.931-.778-7.225-2.493-14.16-8.264-18.323a17.189 17.189 0 0 0-2.634-1.556c.706-.051 1.415-.108 2.124-.171 14.644-1.311 30.003-5.145 36.042-16.885 1.884-3.677 2.828-9.661 2.536-14.986-.352-.479-.636-.441-.863.046h-.001c.284 5.204-.636 11.024-2.445 14.558-5.737 11.255-20.766 15.133-35.346 16.42-1.272.112-2.541.205-3.799.283a16.847 16.847 0 0 0-.479-.168c4.203-9.451 3.277-14.702-.366-18.507-3.656-3.825-9.017-5.66-15.091-10.01-.014-.009-.12-.097-.13-.103l-.857-.721s-.206-.232-.492-.206c-.24.022-.137.987-.129 1.129.126 2.286.154 4.547.577 6.807a26.84 26.84 0 0 0 1.739 5.71 29.249 29.249 0 0 0 2.823 5.044c1.127 1.627 2.4 3.152 3.755 4.596 1.436 1.531 2.965 2.975 4.536 4.369.679.603 1.366 1.197 2.059 1.784l-.021.011-.025.021-.013.007-.02.009-.016.012c-.19.123-.379.242-.568.36-.708.032-1.411.059-2.107.083-.009-.002-.03 0-.042.001h-.023l-.03.004-.011-.002-.033-.001-.028.003-.046-.002-.024.004c-.26.008-.495.014-.731.023-1.963.056-3.871.086-5.695.1l-2.914-.016c-3.035-.016-6.033-.027-9-.02-7.345.017-14.498.146-21.513.577-21.391 1.312-41.496 5.47-61.63 17.987 3.619-4.948 8.968-7.775 14.02-10.636 21.769-12.316 48.239-10.765 72.984-10.332.943.015 1.878.03 2.814.043.481-.167.421-.699.012-.85l.001-.001c-.935-.01-1.869-.026-2.811-.041-24.713-.421-51.35-2.03-73.432 10.445-5.143 2.92-10.77 5.86-14.529 11.21-.023.026-.048.065-.065.09-.02.31.076.485.287.525l-.032.02a184.454 184.454 0 0 0-3.94 2.508c-1.667 1.092-3.316 2.2-4.961 3.304-6.89 4.626-13.714 9.157-21.385 11.852-3.33 1.173-6.819 1.999-10.55 2.339-.354.375-.29.648.08.847 3.809-.347 7.372-1.191 10.761-2.385 7.808-2.746 14.689-7.326 21.582-11.951 1.645-1.104 3.293-2.211 4.953-3.299a178.622 178.622 0 0 1 3.926-2.499c20.239-12.788 40.388-16.999 61.97-18.326 6.989-.429 14.125-.559 21.46-.575 2.964-.007 5.96.004 8.994.02l2.919.017c1.835-.014 3.751-.044 5.722-.101.242-.008.481-.017.723-.023-.009 0 .016.001.054-.002.015 0 .033 0 .054-.002a.667.667 0 0 0 .095-.003l.025-.001v-.001l.557-.019c-.712.403-1.418.779-2.119 1.141-5.051 2.612-9.838 4.498-13.74 10.195a22.71 22.71 0 0 0-1.053 1.842c-2.528 4.936-3.22 10.512-4.156 15.898-.395 2.273-.836 4.543-1.474 6.763a33.43 33.43 0 0 1-1.139 3.326c-.22.542-.433 1.1-.714 1.614-.179.327-.609.522-.689.901-.113.535.55.731.967.551.284-.123.5-.362.682-.611.634-.868.994-1.904 1.76-2.681a32.938 32.938 0 0 1 2.271-2.084c2.209-1.86 4.586-3.517 6.961-5.158 1.605-1.109 3.218-2.207 4.812-3.332 4.131-2.919 8.12-6.018 10.882-9.581-.087.112.357 1.092.412 1.253.143.414.293.827.451 1.236.296.771.616 1.533.965 2.283a32.124 32.124 0 0 0 2.182 3.951c1.545 2.383 3.415 4.528 5.364 6.591.949 1.004 1.915 1.993 2.875 2.987.521.539 1.04 1.079 1.555 1.623.517.546 1.128 1.083 1.555 1.701.261.169.493.791.889.447.25-.22.058-.631-.076-.901zm-3.377-20.309c.699 6.473.624 13.318 1.996 18.856-6.533-6.942-11.158-10.56-14.153-20.584.52-.739.986-1.497 1.386-2.278.074-.144.145-.288.214-.434-.081.171.36.979.437 1.165a19.576 19.576 0 0 0 1.681 3.226c.843 1.304 1.843 2.5 2.932 3.608.86.874 1.763 1.707 2.697 2.503.843.718 1.67 1.624 2.672 2.127.039.019.08.038.124.037.068-.002.127-.055.155-.116a.482.482 0 0 0 .032-.199c.008-.807-.275-1.581-.47-2.355-.561-2.221-.995-4.621-1.443-6.925-.603-3.104-1.254-6.221-2.34-9.201-1.025-2.81-2.475-5.512-4.639-7.625a11.553 11.553 0 0 0-.195-.187l-.025-.023c.355.216.696.442 1.024.678 5.443 3.912 7.146 10.551 7.915 17.727zm-24.537 7.536c-2.123 1.452-4.561 2.613-7.339 3.417.778-4.651 1.856-10.422 4.128-14.852a18.228 18.228 0 0 1 1.616-2.623c3.321-4.597 5.948-7.704 10.279-11.273.491-.407 1.005-.82 1.544-1.241-.147.231-.298.463-.451.696-2.604 3.974-5.893 8.049-8.086 12.329-1.342 2.62-2.275 5.327-2.359 8.138v.002s.024.588.231.64c.208.052.578-.261.578-.261 3.725-2.234 6.36-5.404 8.212-9.023 1.387-2.711 2.341-5.674 3.001-8.702-.287 4.981-1.424 9.665-3.492 13.699-1.851 3.617-4.449 6.715-7.862 9.054zm11.139-26.399c-.034.233-.07.466-.107.698-.633 3.934-1.69 7.829-3.45 11.266-1.705 3.327-4.064 6.222-7.342 8.337.2-2.395 1.036-4.746 2.225-7.069 2.135-4.172 5.404-8.231 8.04-12.249.217-.328.428-.656.634-.983zm3.887 1.098c5.911 5.492 6.419 15.714 8.498 24.182-4.315-3.527-7.406-6.575-9.023-12.078 1.388-3.689 1.274-7.875-1.159-12.62-.218-.422-.452-.85-.705-1.282a13.741 13.741 0 0 1 2.389 1.798zm-18.864-31.039c5.939 4.115 11.798 6.506 15.109 10.005 3.149 3.337 4.194 7.655.903 15.921-1.317-6.897-3.595-16.649-10.372-20.043-.383-.192-.767-.384-1.149-.578-.177-.09-.349-.191-.526-.277-.104-.051-.316-.151-.407-.024-.097.137-.093.313-.056.468.26 1.093.474 2.191.785 3.272a38.727 38.727 0 0 0 1.088 3.228 43.72 43.72 0 0 0 3.076 6.344 42.115 42.115 0 0 0 1.923 2.974 38.034 38.034 0 0 0 2.137 2.747 32.51 32.51 0 0 0 2.32 2.449c.167.159.6.746.771.9l.056-.704c.004-.045.185.299.229.292l-.148-.381c-.113.272-.231.549-.353.83-9.496-8.03-15.834-14.506-15.386-27.423zm15.055 25.507c-4.98-4.91-8.859-12.442-10.31-19.096.172.073.34.151.506.233 6.073 2.954 8.497 12.044 9.804 18.863zm-25.271 42.255c3.122-8.434 2.548-17.553 6.408-25.045.306-.598.64-1.186 1.005-1.76 3.75-5.471 8.297-7.261 13.416-9.907.474-.245.953-.498 1.435-.761l-.082.068c-4.391 3.616-7.094 6.813-10.423 11.426a18.964 18.964 0 0 0-1.689 2.739c-.404.79-.764 1.602-1.088 2.428a36.542 36.542 0 0 0-.898 2.571 49.315 49.315 0 0 0-.736 2.645c-.22.879-.419 1.762-.603 2.649-.178.859-.343 1.72-.498 2.583-.147.815-.286 1.631-.423 2.447-.032.192-.079.381-.097.575-.01.118-.044.442.105.501.13.052.415-.026.415-.026.323-.095.645-.193.96-.309.541-.199 1.075-.408 1.622-.589.756-.262 1.484-.59 2.201-.943.216-.106.432-.214.647-.323-4.388 3.021-8.709 5.916-11.677 9.031zm17.911-13.502c1.942-1.925 3.53-4.149 4.781-6.593 2.536-4.953 3.697-10.81 3.655-16.963l-.001-.317c.095.174.186.347.275.52 2.368 4.641 2.421 8.559 1.07 12.072a15.31 15.31 0 0 1-.646 1.437 18.559 18.559 0 0 1-1.471 2.384c-1.93 2.683-4.649 5.138-7.663 7.46z" fill="#070707" data-color="2"></path>
        <path d="M198.052 66.366c-.017-.094-.036-.181-.05-.257-.347-.321-.627-.245-.853.15.018.098.038.186.051.261 1.518 7.827 1.22 14.027-1.158 18.664-4.301 8.445-15.733 12.074-36.733 10.849l-.33-.019c-.504.264-.465.55-.053.849.11.005.22.013.331.02 21.058 1.227 32.945-2.352 37.558-11.317 2.504-4.895 2.769-11.285 1.237-19.2z" fill="#070707" data-color="2"></path>
    </g>
</svg>