<svg preserveAspectRatio="xMidYMid meet" data-bbox="34.997 2.998 130.001 194.002" viewBox="34.997 2.998 130.001 194.002" height="200" width="200" xmlns="http://www.w3.org/2000/svg" data-type="color" role="presentation" aria-hidden="true">
    <g>
        <path d="M160.983 157.056c.054-1.736.086-3.462.125-5.163.225-9.807-.195-19.648-1.548-29.369-1.4-10.058-3.63-20.185-6.622-29.887-2.479-8.039-6.139-15.359-10.006-22.722-.36-.525-.718-1.052-1.077-1.577-9.244-13.531-21.298-25.077-35.002-34.01-6.874-4.481-14.143-8.196-21.697-11.376-8.41-3.54-16.387-7.899-24.67-11.653a87.937 87.937 0 0 1-6.849-3.454c-.201-.086-.407-.164-.61-.247a4.934 4.934 0 0 0-1.174.813c-1.521 1.385 9.958 22.498 10.978 24.675a3298.163 3298.163 0 0 1 12.93 27.933c3.756 8.217 5.021 18.088 5.021 27.081.002.181-.006.355-.023.524.006.047.019.092.023.139.298 3.371-.324 6.83-1.464 10-.591 1.642-1.986 2.84-3.667 2.899l.128.081c1.144.737 2.263 1.608 3.127 2.668.763.936 1.364 1.973 1.471 3.2.099 1.139-.432 2.266-1.272 3.016-1.074.958-2.565 1.59-3.97 1.854-.929.175-1.882.16-2.82.086-2.489-.196-4.969-.742-7.264-1.738-1.828-.793-4.092-2.336-3.876-4.626.021-.223.082-.428.178-.605a16.452 16.452 0 0 1-.707-1.08l.303-.303c.148-.138.257-.298.328-.481l.494.087c.551.097 1.184-.148 1.321-.751.119-.524-.158-1.219-.75-1.324-1.025-.181-2.055-.331-3.081-.509l-1.001-.174c-2.419-.421-4.851-1.113-7.293-1.321-.626-.053-1.396.327-1.827.758-.448.449-.785 1.186-.757 1.831a.98.98 0 0 0 .004.054c-.191.369-.288.77-.333 1.229-.536 5.382-3.67 10.983-4.996 16.318-2.767 11.133-3.907 22.792-2.951 34.238.474 5.657.887 13.473 3.559 18.584a32.886 32.886 0 0 0 5.474 7.633 56.768 56.768 0 0 0 5.129 3.585c4.684 2.252 9.774 3.471 14.978 4.401 7.101-.665 14.196-1.255 21.337-1.45 14.432-.396 28.891.739 42.606 4.863 9.542 2.869 19.862-5.108 23.758-13.222 3.186-6.634 3.807-14.164 4.035-21.508z" fill="#FEF2F0" data-color="1"></path>
        <path d="M157.364 95.108c-9.189-26.86-26.682-49.637-52.359-66.663C89.314 18.041 71.037 9.854 49.266 4.113c-.937-.247-1.883-.457-2.827-.677-.855-.2-1.702-.413-2.585-.436a.338.338 0 0 0-.184.031c-.285.174.076.792.171.985.173.352.416.664.663.967 1.279 1.568 2.28 3.295 3.211 5.086a127.291 127.291 0 0 1 1.977 4.114 189.212 189.212 0 0 1 1.875 4.22 247.45 247.45 0 0 1 1.7 4.051 311.946 311.946 0 0 1 1.882 4.699c4.007 10.376 8.755 20.601 12.35 31.105.341.998.672 1.995.985 2.994 3.846 12.086 6.865 26.36 4.007 39.479-.165.775-.35 1.54-.56 2.285-.149.546.069.061-.092.581l1.745.807c.17-.541.214-.601.362-1.156a34.88 34.88 0 0 0 .586-2.386c2.946-13.598-.174-28.071-4.04-40.264a123.217 123.217 0 0 0-.997-3.029c-3.631-10.6-8.389-20.844-12.37-31.161-2.3-5.916-4.736-13.982-8.613-19.748 6.562 6.237 14.221 11.266 21.367 16.637 6.658 4.997 12.886 10.291 17.452 17.097 5.938 8.825 14.248 17.788 17.59 27.579.256.748.484 1.498.673 2.25 1.165 4.527 2.179 8.974 3.668 13.324.981 2.867 2.171 5.691 3.739 8.461 3.366 5.924 7.793 11.145 9.897 17.325.146.427.283.852.4 1.281 3.276 11.574 2.802 26.832 1.079 39.21-1.915 13.761-5.3 26.89-13.182 39.443-21.859-1.796-51.212 7.758-65.184-4.954-3.036-2.688-5.172-6.226-6.595-10.386-.848-2.46-1.403-5.016-1.765-7.591-1.118-7.954-.533-16.111.527-24.038 1.108-8.282 2.847-16.467 4.762-24.594.841-3.569 1.721-7.128 2.586-10.691.373-1.535.799-3.076 1.129-4.615.143-.664.143-1.42-.579-1.773-.595-.291-1.122.007-1.265.647-3.961 17.738-14.542 52.315-7.394 73.344 1.486 4.342 3.748 8.121 7.028 11.029 15.629 13.736 46.036 3.236 67.078 5.483 1.766.17 3.449.434 5.07.797 1.318.294 2.607.585 3.857.865 16.072 3.553 25.592 5.463 32.105 3.29 4.804-1.652 7.349-5.612 8.847-11.906 1.529-6.34 2.191-15.33 3.102-27.827 1.627-22.009-.762-42.605-7.14-61.239zm-37.486 95.642l-2.556-.574a41.707 41.707 0 0 0-4.016-.693c7.86-12.72 11.228-25.949 13.135-39.645 1.734-12.521 2.244-27.907-1.119-39.828a23.264 23.264 0 0 0-.424-1.365c-2.244-6.526-6.753-11.81-10.012-17.575-1.513-2.672-2.665-5.407-3.625-8.211-1.456-4.254-2.467-8.661-3.636-13.208a28.392 28.392 0 0 0-.706-2.365c-3.508-10.215-11.936-19.234-17.767-27.923a50 50 0 0 0-3.315-4.39c11.096 9.082 20.789 18.971 25.411 30.96.241.629.473 1.261.691 1.898 2.668 7.777 3.583 16.17 6.32 24.186a52.501 52.501 0 0 0 1.196 3.167c3.045 7.298 6.933 14.112 9.424 21.399.835 2.439 1.516 4.931 1.959 7.508 1.754 10.108.881 20.878.582 31.416-.142 5.58.214 11.197-1.845 16.434-2.121 5.456-5.682 14.548-9.697 18.809zm42.557-34.316c-.908 12.494-1.584 21.463-3.062 27.567-1.516 6.151-3.66 9.124-7.386 10.413-5.156 1.842-14.458.298-29.921-3.175 4.513-4.869 7.325-13.482 9.468-18.897 2.225-5.715 1.802-11.519 1.959-16.998.294-10.479 1.192-21.352-.603-31.714-.456-2.672-1.16-5.24-2.014-7.737-2.556-7.461-6.464-14.301-9.457-21.487a51.238 51.238 0 0 1-1.163-3.078c-2.677-7.805-3.593-16.201-6.32-24.186a50.18 50.18 0 0 0-.714-1.952C106.256 47.195 88.521 34.1 71.66 21.563c-6.435-4.785-12.755-9.479-18.313-14.311C72.654 12.846 89.42 20.5 103.632 29.925c25.379 16.83 42.645 39.31 51.736 65.871 6.305 18.426 8.677 38.816 7.067 60.638z" fill="#070707" data-color="2"></path>
        <path d="M64.374 101.308c3.036-.997 6.333-.022 9.066.992.637.24 1.267.498 1.891.768.312.135.623.273.934.414.471.213.966.35 1.147.889.138.409.036.895-.397 1.07-.765.309-1.492-.173-2.173-.476a58.726 58.726 0 0 0-2.408-1.002c-2.567-1.01-5.618-1.682-7.491-.992-.723.254-1.322.655-1.869 1.384-.776 1.078-.859 1.913-.584 2.762.716 2.439 5.684 4.555 8.381 4.843 2.409.307 4.324.094 5.748-.396 3.051-1.087 4.118-3.329 3.402-5.585-.627-1.828-2.607-3.598-6.243-4.255l.638-1.764c4.18.747 6.761 2.877 7.604 5.332.514 1.498.375 3.122-.453 4.567-.822 1.445-2.34 2.673-4.377 3.367-1.871.643-4.163.857-6.844.516-3.227-.471-8.51-2.383-9.853-5.939-.454-1.273-.239-2.811.868-4.292a6.177 6.177 0 0 1 3.013-2.203z" fill="#070707" data-color="2"></path>
    </g>
</svg>