<svg preserveAspectRatio="xMidYMid meet" data-bbox="1 39.998 198.006 120.003" viewBox="1 39.998 198.006 120.003" height="200" width="200" xmlns="http://www.w3.org/2000/svg" data-type="color" role="presentation" aria-hidden="true">
    <g>
        <path d="M197.029 54.935c-.013-.042-.004-.076-.011-.116-1.148-3.486-2.984-6.834-5.122-9.8a1.341 1.341 0 0 0-.051-.321c-.166-.582-.452-1.048-.826-1.514l-.289-.222a1.07 1.07 0 0 0-.531-.169 1.64 1.64 0 0 0-.448.002l-.679-1.394c-.01-.025-.028-.048-.036-.073l-.023-.047-.602 1.149c.06.195.029.42-.144.646-.269.352-.519.713-.759 1.079l-.539 1.03c-.017.049-.048.102-.064.144a10.68 10.68 0 0 0-.109.299c-.051.35-.118.69-.227 1.031-.086.267-.185.529-.293.788-.081.312-.163.623-.252.932-.31 1.462-.476 2.955-.963 4.377-.567 3.794-1.838 7.852-3.646 10.938-.789 1.346-1.942 2.258-3.258 2.939a.58.58 0 0 1-.192.36 58.89 58.89 0 0 1-3.455 2.725 29.537 29.537 0 0 1-4.788 3.97.807.807 0 0 1-.421.135c-1.438.874-2.986 1.547-4.597 2.108.043.221-.012.462-.186.613-.883.765-2.021 1.148-3.135 1.443-.965.256-1.945.448-2.91.701-.304.08-.609.157-.914.232l-.214.096a.835.835 0 0 1-.454.067l-.113.027c-.429.127-.865.225-1.305.311-.305.109-.61.216-.915.328-1.934.707-3.791 1.309-5.789 1.36l-.041.013c-.202.068-.405.134-.607.199-.522.177-1.038.368-1.546.58-.311.13-.675-.1-.812-.381a.957.957 0 0 1-.249-.474.833.833 0 0 1-.207-.118c-.669.122-1.337.247-2.005.369l.078.037c.687.32.492 1.441-.21 1.6-.153.035-.305.06-.457.081-.073.214-.237.399-.462.434-1.657.254-3.314.515-4.991.557a.916.916 0 0 1-.278.178c-2.404.992-5.007.165-7.509.447a.74.74 0 0 1-.467-.097c-.428.143-.959.011-1.133-.545-.358-1.144-1.121-2.114-1.751-3.12-.033-.052-.037-.102-.057-.153a.798.798 0 0 1-.391-.252c-1.58-1.777-3.621-3.174-5.901-4.282l-.111-.007c-.046-.044-.096-.077-.142-.119-1.583-.747-3.276-1.352-5.017-1.841a36.743 36.743 0 0 0-13.182-2.167.663.663 0 0 0-.36.107.907.907 0 0 1-.233-.451l-1.124-.426-3.037-.166c-.901-.776-2.128-1.128-3.242-1.481a30.303 30.303 0 0 0-3.863-.944.825.825 0 0 0-.42.032c-1.493-.432-3.005-.834-4.497-1.085-.189-.234-.439-.424-.738-.493-1.452-.338-2.951-.417-4.437-.428-1.391-.011-2.781-.006-4.172-.007l-2.414-.003c-.185 0-.374.04-.55.114a64.51 64.51 0 0 0-2.136.065c-2.536.109-5.076.421-7.544 1.021a29.679 29.679 0 0 0-3.525 1.091l-.166.054-.13-.007c-6.193 2.596-11.762 6.047-15.971 11.27-.021.042-.044.084-.066.125-.487.347-.827.881-1.156 1.388-.353.545-.693 1.1-.972 1.687-.167.352-.251.708-.144 1.096.037.135.102.274.187.403a1.424 1.424 0 0 0 .409.849c.353.352.906.512 1.39.366l.272-.082a1.49 1.49 0 0 0 .854-.654c.021-.036.04-.074.058-.113.071-.044.14-.097.203-.158l-.529.835.898-.226c-.02-.362.153-.722.614-.831a74.999 74.999 0 0 1 3.322-.701c-.314-.387-.35-.961.231-1.208 5.961-2.541 12.212-3.6 18.576-4.628 3.528-.57 7.041-1.218 10.536-1.958 3.137-.664 6.192-1.962 9.314-2.492a.889.889 0 0 1 .441.04c.233-.074.496-.059.738.048a4.3 4.3 0 0 1 .722.417c.04-.005.082-.018.121-.022 1.921-.17 4.159 1.251 5.712 2.219 2.735 1.705 5.289 3.284 8.287 4.539.222.093.363.25.456.427l6.649 2.77c1.174.038 2.347.145 3.516.382.458.092.635.434.621.787.397.449.377 1.253-.37 1.401-5.085 1.006-10.552.829-15.717 1.431-4.933.575-9.856 1.608-14.796 2.213-.417.101-.832.205-1.248.309a72.825 72.825 0 0 1-3.988 1.208c-1.482.569-2.95 1.188-4.428 1.708-3.916 1.379-7.773 2.915-11.496 4.752a167.52 167.52 0 0 0-7.184 3.761L33.54 130.412c.073-.011.147-.015.221-.011.245-.249.497-.493.764-.729a.904.904 0 0 1 .296-.175c1.775-2.254 3.752-4.411 5.859-6.297 2.286-2.549 4.761-4.944 7.445-7.065a.839.839 0 0 1 .553-.195l1.116-1.227-.008.132a.649.649 0 0 1 .317-.053c.109-.111.216-.224.32-.339a.603.603 0 0 1 .71-.159c.518-.58 1.581.08 1.121.792l-.137.21a.64.64 0 0 1 .013.644 1.168 1.168 0 0 0-.3.134c-.31.199-.563.486-.657.85a7.08 7.08 0 0 1-.174.576c-.26.126-.462.314-.636.566a5.21 5.21 0 0 0-.515.947 16.585 16.585 0 0 1-1.168 1.842c-.31.385-.64.768-.848 1.217-.246.529-.391 1.07-.535 1.632l-.757 2.955c-.04.154-.054.317-.042.478a7.7 7.7 0 0 1-.122.191.666.666 0 0 1-.691.307c-1.431 5.164-.474 10.956 1.289 16.133 3.337 4.784 6.243 9.603 11.225 12.42.819.336 1.682.541 2.546.749 2.757.118 5.61-.213 8.767-.818 6.782-1.299 9.935-8.246 12.433-14.008.229-.529.625-.756 1.043-.772.233-.127.49-.199.751-.204.452-.497 1.007-.923 1.607-1.299 2.078-1.688 4.038-3.537 6.252-5.03l6.055-7.055c.386-.775.765-1.551 1.131-2.33 1.196-3.097 2.274-6.371 2.466-9.614.338-5.696-3.712-9.625-8.514-11.725l-9.288-.73a1.489 1.489 0 0 1-.681.2c-1.843.646-3.731 1.159-5.565 1.834-1.285.473-2.571 1.034-3.717 1.794a.825.825 0 0 1-.347.392c-.258.157-.517.312-.777.465a7.76 7.76 0 0 0-.214.193.666.666 0 0 1-.447.192c-2.3 1.325-4.658 2.555-6.817 4.093.06.197.034.423-.127.653-1.266 1.809-2.117 3.889-2.432 6.073-.325 2.257.09 4.364 1.24 6.36.909 1.577 2.267 2.723 3.96 3.393 1.744.334 3.619.19 5.35-.013.285-.033.537.188.641.445l.077.016c5.079 1.291 9.212-1.532 12.192-5.327 1.539-3.088 2.708-6.29 2.672-9.808a.791.791 0 0 1 .233-.588c-.089-1.25-1.202-2.153-1.935-3.13a.94.94 0 0 1-.702-.256c-.562-.512-1.327-.91-2.15-1.201a.634.634 0 0 1-.739.283 3.792 3.792 0 0 0-.5-.102.982.982 0 0 1-.529.022l-.222-.049c-.826.051-1.613.362-2.359.801a.906.906 0 0 1-.262.232c-1.65.99-2.997 2.252-3.998 3.896a.978.978 0 0 1-.26.28.822.822 0 0 1-.158.635c-.842 1.195-.622 2.627-.536 4.004.001.022-.007.041-.008.062.427.492.215 1.479-.635 1.479a.78.78 0 0 1-.756-.482c-.207.025-.423-.033-.558-.194-2.24-2.683-.647-6.506 1.041-9.041a.716.716 0 0 1 .186-.193c.082-.114.164-.227.249-.339a.661.661 0 0 1 .146-.683c1.654-1.819 4.087-2.921 6.541-3.127a1.01 1.01 0 0 1 .258-.025l.081.003c.145-.007.289-.012.434-.013a.697.697 0 0 1 .303.063c2.046.206 4.342.976 5.81 2.313.038.034.049.073.08.109a.847.847 0 0 1 .574.387c.648.984 1.482 1.769 1.97 2.749.183.069.35.201.456.448.159.372.3.752.424 1.137a13.21 13.21 0 0 1 1.396 4.889c.087 1.005.024 2.031-.245 2.992.061 2.616-1.569 5.411-3.959 7.921a.619.619 0 0 1 .277.734c-.391 1.344-1.788 2.222-2.925 2.894-.817.483-1.674.892-2.51 1.341-.465.355-.932.707-1.402 1.049-.788.574-1.654 1.024-2.551 1.403a24.06 24.06 0 0 1-.442.18 22.95 22.95 0 0 1-1.217.665c-.879.586-1.924.965-2.898 1.287-1.421.47-2.839 1.109-4.326 1.347-.697.208-1.402.389-2.121.523a1.5 1.5 0 0 1-.671.166c-16.02.358-13.228-16.208-12.213-27.237-.116-.339-.078-.732.223-1.13 3.003-3.97 7.468-5.97 11.879-8.032 1.742-1.235 3.553-2.334 5.548-3.127.095-.073.205-.138.334-.194 4.271-1.838 8.46-3.839 12.797-5.524 3.732-1.449 7.417-3.21 11.474-3.166.7-.292 1.418-.538 2.171-.696a.986.986 0 0 1 .295-.009 7.095 7.095 0 0 1 1.043-.407c.081-.023.153-.024.226-.028.542-.24 1.108-.379 1.653-.211.239.074.446.208.636.368l36.647-5.957-3.76 4.824c-1.322.778-2.478 2.1-3.287 3.181-.2.267-.386.54-.563.818a13.365 13.365 0 0 0-1.434 1.867 12.563 12.563 0 0 0-1.746 3.795 38.612 38.612 0 0 0-2.225 7.951l-1.612 22.328 24.069-27.998.193.191c-.046.319.056.687.212 1.046a.897.897 0 0 1 .683.203c3.251 2.627 5.713 5.99 9.028 8.589 2.623 2.057 5.329 4.007 8.048 5.939-.361-.695-.614-1.468-.82-2.095-.602-1.833-.905-3.734-1.42-5.588a.793.793 0 0 1 .057-.588l-6.683-17.836-3.87-6.342a20.614 20.614 0 0 0-1.727-.849.795.795 0 0 1-.274-.191c-.151-.009-.3-.01-.453-.023a.887.887 0 0 1-.848-.895c.854-.26 1.716-.493 2.586-.696.214-.05.426-.177.597-.338a45.415 45.415 0 0 0 3.67-.587l.107-.028.046-.017.003.004c2.33-.657 4.744-1.1 7.138-1.548a59.58 59.58 0 0 1 1.4-.268c.827-.16 1.65-.325 2.461-.509a.837.837 0 0 1 .739.163 66.428 66.428 0 0 0 7.122-2.493c.016-.007.028-.003.043-.008 3.216-2.253 6.817-3.715 10.326-5.519 5.559-2.859 8.468-6.813 9.777-12.369.051-1.73-.114-3.412-.608-5.007z" fill="#EFE6D2" data-color="1"></path>
        <path d="M124.568 59.453c1.692 5.662 4.97 10.408 9.449 14.328.314.375.659.725 1.016 1.054.308.283.627.554.946.824.4.338.788.638 1.248.852 1.639 1.113 3.169 2.377 4.871 3.397a.822.822 0 0 1 .131-.118c.013.027.028.054.043.08.173.295.513.576.854.654.366.083.776.065 1.101-.143.295-.189.594-.491.657-.85.017-.098.033-.197.048-.296l.075-.013-.047-.186c.03-.222.053-.444.067-.667.034-.033.068-.066.1-.101.354-3.124 1.117-5.832-.443-9.138a22.829 22.829 0 0 0-.978-1.833c-.83-1.086-1.802-2.086-2.842-3.046a14.992 14.992 0 0 0-5.181-3.766c-1.003-1.007-2.458-1.41-3.768-1.89-.212-.078-.483-.067-.728-.005l-.861-.409a.765.765 0 0 1-.637-.027 31.58 31.58 0 0 0-2.601-1.12 15.514 15.514 0 0 1-1.886-.644l-.018-.073a74.75 74.75 0 0 1-1.22-.467c.196 1.114.372 2.232.593 3.342a.82.82 0 0 1 .011.261z" fill="#EFE6D2" data-color="1"></path>
        <path d="M28.491 137.939c.213-.444.46-.871.702-1.299.122-.215.242-.431.355-.651a8.862 8.862 0 0 0 .256-.539c.085-.209.187-.367.378-.49a.644.644 0 0 1 .15-.071c-.085-.257-.285-.526-.525-.651-.272-.143-.601-.215-.903-.118-.306.099-.512.277-.7.536-.14.193-.283.383-.428.572-1.716 2.184-3.722 4.15-5.762 6.032-.506.467-1.025.92-1.567 1.345-.716.538-1.475 1.017-2.295 1.381a8.183 8.183 0 0 1-1.362.41c-.277.057-.561.299-.7.536a1.102 1.102 0 0 0-.086.187.872.872 0 0 0-.252.044l-.677.231c-.282.096-.527.26-.681.521-.143.243-.204.602-.115.874.089.275.26.539.524.678.262.138.588.213.878.114l.677-.231c.282-.096.527-.26.681-.521.028-.048.053-.1.074-.155.098.001.199-.009.301-.03 2.154-.441 3.999-1.742 5.621-3.162.793-.694 1.55-1.429 2.305-2.163a59.692 59.692 0 0 0 2.349-2.398 34.8 34.8 0 0 0 .746-.837.96.96 0 0 1 .056-.145z" fill="#EFE6D2" data-color="1"></path>
        <path d="M1.278 151.943c3.879-1.09 7.406-2.653 10.695-4.556 7.578-4.378 13.893-10.554 20.259-16.846 1.52-1.502 3.043-3.009 4.589-4.502a189.424 189.424 0 0 1 3.668-3.451C59.484 104.832 80.154 96.33 102.8 90.692c7.335-1.827 14.877-3.358 22.644-4.805 3.137-.585 6.312-1.157 9.526-1.731l3.086-.551c1.927-.37 3.94-.773 6.005-1.216.248-.056.495-.108.768-.167l.025-.009.049-.007v.001l.029-.01.036-.006h.012l.031-.01.025-.004c.012-.003.034-.01.044-.009a170.99 170.99 0 0 0 9.021-2.224c15.168-4.216 30.294-11.292 34.117-24.452 1.208-4.134 1.329-8.887-.01-14.4h.001l.904-.218c1.372 5.642 1.259 10.574-.001 14.876-4.047 13.738-19.53 20.832-34.761 25.085-3.058.85-6.112 1.586-9.093 2.24v.001a.384.384 0 0 0-.026.006c-.042.012-.077.018-.1.022-.022.006-.041.009-.057.012-.039.011-.066.015-.057.012-.255.054-.506.11-.761.166-2.074.445-4.095.85-6.034 1.223l-3.091.55c-3.213.574-6.384 1.145-9.519 1.73-7.757 1.445-15.28 2.973-22.588 4.794-22.568 5.622-43.044 14.051-61.903 31.675a185.733 185.733 0 0 0-3.655 3.438c-1.539 1.488-3.061 2.993-4.582 4.495-6.369 6.291-12.735 12.531-20.447 16.99-3.347 1.937-6.948 3.534-10.909 4.647-.555-.09-.729-.347-.251-.893z" fill="#070707" data-color="2"></path>
        <path d="M11.953 147.792c.133-.003.098-.459.236-.469 8.853-.346 13.588-6.762 18.331-14.202.55-.834 1.101-1.668 1.65-2.505 9.736-14.852 19.11-30.352 37.174-37.625 15.082-5.936 33.284-6.355 50.516-7.584 3.181-.223 6.322-.475 9.408-.798 1.878-.191 3.729-.407 5.556-.659 2.095-.288 7.291-1.252 9.305-1.639l-.353.511-2.344.32-.258.709c-2.033.391-4.112.725-6.223 1.016-1.84.252-3.703.47-5.588.662-3.1.325-6.252.579-9.438.801-17.26 1.224-35.385 1.665-50.235 7.52-17.713 7.122-26.99 22.381-36.741 37.271-.551.839-1.101 1.673-1.647 2.501-4.722 7.421-9.701 14.251-19.065 14.626a10.35 10.35 0 0 1-.434.018l-.171-.666.321.192z" fill="#070707" data-color="2"></path>
        <path d="M36.669 126.291c.013-.029.031-.077.05-.109 2.909-6.456 8.275-10.697 13.133-14.823 20.871-17.648 49.373-21.112 75.601-25.473 1-.167 1.991-.332 2.982-.503v.001l3.622.251c-.992.169-5.45.996-6.45 1.163-26.265 4.355-54.577 7.848-75.149 25.265-4.883 4.138-10.102 8.298-12.902 14.526l-.031.069-.856-.367z" fill="#070707" data-color="2"></path>
        <path d="M93.877 103.06c-2.403-.694-5.131-.812-7.97-.489-2.819.32-5.752 1.077-8.59 2.157-7.903 3.028-15.083 8.506-16.809 14.308-.982 3.29-.055 6.715 3.495 9.528 1.184.949 2.432 1.59 3.703 1.957a9.98 9.98 0 0 0 4.103.292c5.722-.778 10.911-6.028 12.616-11.811.445-1.508.831-3.072.725-4.656a7.96 7.96 0 0 0-.237-1.462c-.124-.482-.255-.999-.486-1.442-.016-.03-.032-.061-.052-.089-.104-.15-.37-.275-.558-.238-.197.039-.285.272-.297.451-.002.024-.009.063-.017.112a13.65 13.65 0 0 1-.428 2.089c-1.445 4.944-5.452 6.984-8.362 6.682a5.004 5.004 0 0 1-.854-.165c-1.921-.593-3.117-2.194-2.278-5.21.241-.823.649-1.746 1.263-2.762 1.633-2.612 3.541-4.162 5.484-4.9 1.728-.659 3.495-.68 5.17-.197 2.701.779 5.161 2.893 6.655 5.782 1.494 2.89 2.025 6.537.899 10.386-.895 3.058-2.837 6.25-6.206 9.289a33.344 33.344 0 0 1-4.165 3.179c-6.787 4.286-12.21 5.285-16.248 4.116-4.267-1.234-7.146-4.905-8.575-10.052-1.423-5.139-1.351-11.708.288-18.518l.03-.123-.902-.208-.018-.021c-4.483 3.934-7.624 9.238-9.203 14.635a28.48 28.48 0 0 0-.413 1.567c-2.228 9.317.318 18.772 9.077 21.313 1.753.506 3.744.73 5.979.622 1.434-.068 3.048-.318 4.79-.721 5.699-1.319 12.774-4.303 19.164-8.19a67.467 67.467 0 0 0 5.303-3.577c2.546-1.904 4.841-3.944 6.713-6.055 2.155-2.437 3.756-4.972 4.508-7.538.089-.304.164-.607.23-.908 2.666-11.402-1.193-17.342-7.527-19.133zm6.617 18.935a11.71 11.71 0 0 1-.214.849c-.696 2.384-2.217 4.818-4.312 7.186-1.819 2.051-4.069 4.054-6.575 5.926a66.247 66.247 0 0 1-5.23 3.527c-6.307 3.839-13.323 6.792-18.888 8.077-1.701.394-3.265.635-4.624.699-2.145.104-4.031-.112-5.674-.586-8.098-2.327-10.568-11.105-8.43-20.214.118-.508.252-1.013.401-1.52 1.416-4.845 4.14-9.622 7.97-13.319-1.348 6.416-1.33 12.568.042 17.54 1.469 5.331 4.546 9.347 9.214 10.695 4.409 1.269 10.098.138 17.013-4.228a34.24 34.24 0 0 0 4.286-3.271c3.478-3.136 5.527-6.477 6.474-9.716 2.381-8.161-2.22-15.581-8.188-17.315-1.851-.536-3.841-.514-5.763.221-2.164.822-4.227 2.532-5.946 5.283-.65 1.078-1.094 2.071-1.362 2.986-.491 1.668-.387 3.091.173 4.189.558 1.097 1.563 1.83 2.739 2.169.326.094.667.158 1.017.196 3.406.349 7.791-2.011 9.353-7.345.022-.074.043-.15.063-.225.207 1.611-.011 3.263-.502 4.944-1.584 5.46-6.617 10.478-11.844 11.152a9.056 9.056 0 0 1-3.72-.263c-1.149-.332-2.284-.911-3.379-1.788-3.311-2.676-4.037-5.568-3.184-8.55 1.52-5.293 8.508-10.769 16.249-13.701 2.773-1.057 5.635-1.794 8.362-2.103 2.746-.313 5.356-.191 7.603.458 5.818 1.72 9.394 6.822 6.876 18.047z" fill="#070707" data-color="2"></path>
        <path d="M51.288 137.289c-1.965-4.949-1.954-10.931-.195-16.942.906-3.096 2.278-6.202 4.078-9.167.025-.045.054-.097.088-.149v.001l.786.496a3.107 3.107 0 0 0-.066.113c-1.77 2.913-3.109 5.947-3.991 8.963-3.403 11.744-.021 23.035 11.561 26.387.61.176 1.242.33 1.9.462l-.184.907a24.71 24.71 0 0 1-1.976-.48l-.017-.005c-6.06-1.748-10.026-5.64-11.984-10.586z" fill="#070707" data-color="2"></path>
        <path d="M89.974 136.608h.001-.001zm-.662-.65c1.585-1.595 3.113-3.493 4.469-5.553 1.886-2.863 3.44-6.047 4.356-9.185 1.087-3.709 1.278-7.342.146-10.316-1.138-2.971-3.559-5.342-7.919-6.609-1.305-.377-2.783-.651-4.441-.802l-.359-.029.077-.923.362.029c1.715.156 3.252.439 4.622.835 4.575 1.313 7.303 3.922 8.529 7.172 1.23 3.244.999 7.07-.121 10.901-.951 3.245-2.542 6.502-4.471 9.433-1.389 2.108-2.952 4.052-4.587 5.696l-.663-.649z" fill="#070707" data-color="2"></path>
        <path d="M71.476 130.732a2.246 2.246 0 0 0-.058-.042h.002l.548-.748c.021.015.038.026.057.041 1.019.75 2.036 1.249 3.04 1.539 2.899.834 5.726-.057 8.112-1.968 2.378-1.909 4.265-4.839 5.172-7.942.517-1.766.717-3.588.526-5.319-.203-2.417-1.053-4.057-2.204-5.083a5.3 5.3 0 0 0-2.072-1.138c-1.709-.495-3.709-.184-5.447.83a8.495 8.495 0 0 0-3.868 4.986c-.417 1.425-.519 3.077-.16 4.94l.001.004-.917.165v.001c-.385-1.991-.28-3.798.181-5.369 1.473-5.004 6.475-7.585 10.47-6.446a6.23 6.23 0 0 1 2.434 1.339c1.357 1.206 2.296 3.103 2.509 5.684.204 1.859-.012 3.798-.559 5.666-1.911 6.526-7.901 12.384-14.439 10.539-1.116-.323-2.235-.875-3.328-1.679z" fill="#070707" data-color="2"></path>
        <path d="M60.17 159.37c-11.02-3.222-19.099-17.639-15.822-28.974a16.724 16.724 0 0 1 1.327-3.244c.032-.065.064-.125.097-.184l.818.443c-.03.054-.054.099-.084.162a15.746 15.746 0 0 0-1.263 3.081c-1.573 5.364-.415 11.579 2.478 16.824 2.887 5.248 7.498 9.502 12.71 11.004 3.201.922 6.627.826 10.115-.705 7.187-2.739 9.787-11.146 13.45-18.114 1.438-2.715 3.048-5.209 5.228-7.013 1.367-1.132 2.955-1.988 4.838-2.441a13.092 13.092 0 0 1 2.226-.336l.02.302.102.614-.037.006-.023.002c-.732.048-1.422.155-2.067.313-1.74.42-3.189 1.198-4.462 2.251-2.028 1.676-3.588 4.061-5 6.733-3.628 6.811-6.201 15.533-13.919 18.538-3.659 1.613-7.335 1.72-10.72.742l-.012-.004z" fill="#070707" data-color="2"></path>
        <path d="M39.997 86.314s.033-.013.083-.027c.045-.013.015-.284.062-.3l.064-.032c1.059-.192 2.001-.424 2.933-.847 10.68-4.731 16.574-14.692 30.416-15.286a39.462 39.462 0 0 1 5.141.078c3.852.287 7.617 1.089 11.341 2.164.621.179 1.242.367 1.861.561 8.386 2.627 16.603 6.465 25.133 8.926 4.923 1.422 9.948 2.388 15.175 2.41.284.003.569.002.857-.004l.89-.048-.874.974c-.297.006-.588.006-.879.004-5.338-.023-10.451-1.009-15.429-2.447-8.624-2.492-16.847-6.335-25.153-8.934a85.697 85.697 0 0 0-1.84-.554c-3.681-1.063-7.383-1.848-11.152-2.131a38.76 38.76 0 0 0-5.026-.075c-13.333.521-19.061 10.242-30.075 15.204-.963.437-1.964.827-3.015 1.173l-.16.05-.096.032-.257-.891z" fill="#070707" data-color="2"></path>
        <path d="M39.845 86.773c.018-.058.039-.144.07-.227 4.426-14.101 25.61-20.004 38.855-16.637a17.922 17.922 0 0 1 .953.262l.077.021c3.287.949 6.27 2.121 9.06 3.39 8.163 3.71 14.671 8.208 22.396 10.434a35.235 35.235 0 0 0 8.653 1.391c2.841.101 5.914-.129 9.317-.792a52.396 52.396 0 0 0 2.853-.638c.15-.04.326.032.46-.004l.209.787c-.15.04-.292.073-.433.111-.994.251-1.962.468-2.91.652-3.466.674-6.612.912-9.528.808a36.204 36.204 0 0 1-8.88-1.428c-7.917-2.29-14.452-6.821-22.524-10.482-2.759-1.254-5.698-2.407-8.933-3.341a.41.41 0 0 0-.06-.017l-.252-.076a14.524 14.524 0 0 0-.683-.181c-12.835-3.331-33.697 2.65-37.746 16.035-.017.045-.036.115-.065.209l-.889-.277z" fill="#070707" data-color="2"></path>
        <path d="M42.947 85.177l.222-.083c13.776-5.063 30.113-6.326 43.746-10.965a55.04 55.04 0 0 1 1.602-.565 49.564 49.564 0 0 1 3.121-.946 45.01 45.01 0 0 1 7.704-1.383c5.219-.474 10.244.05 15.147 1.466 7.067 2.041 13.878 5.932 20.693 11.347l.148.117h.001l-.58.725-.153-.121c-6.747-5.361-13.454-9.183-20.369-11.18-4.799-1.385-9.7-1.897-14.803-1.433-2.462.216-4.972.668-7.545 1.354a49.455 49.455 0 0 0-3.063.928c-.522.176-1.05.361-1.587.56-13.807 4.686-30.136 5.952-43.738 10.963-.075.026-.146.053-.224.082l-.322-.866z" fill="#070707" data-color="2"></path>
        <path d="M39.753 86.713l.001.015-.001-.015zm.705-5.065c2.5-8.506 11.179-13.05 21.283-14.862 10.124-1.816 21.771-.927 30.515 1.596 2.791.806 5.286 1.78 7.346 2.893h.001l-.446.812c-1.984-1.072-4.421-2.026-7.161-2.816-8.59-2.483-20.142-3.364-30.09-1.574-9.966 1.791-18.231 6.227-20.554 14.209-.432 1.477-.665 3.08-.669 4.854l2.251-.549s-3.053 1.442-3.308 1.28c-.255-.162.376-4.284.832-5.843z" fill="#070707" data-color="2"></path>
        <path d="M123.871 134.146c.128-.385.097-.873.26-1.255 2.471-5.686 8.824-11.368 14.644-17.415 3.996-4.141 7.738-8.439 9.812-12.909.437-.941.802-1.885 1.081-2.838.162-.552.294-1.106.397-1.663.728-4.022-.11-8.204-3.541-12.71a28.59 28.59 0 0 0-1.595-1.902l-.067-.074c-.07-.077-.144-.157-.226-.243a.68.68 0 0 0-.03-.031h.001l.691-.621c.006.007.016.016.02.022.08.083.161.171.242.261.013.015.038.04.065.072.6.655 1.142 1.308 1.64 1.955 3.565 4.661 4.5 9.172 3.716 13.437-.11.589-.249 1.174-.419 1.755a21.008 21.008 0 0 1-1.13 2.966c-2.162 4.645-5.969 8.996-9.986 13.161-5.851 6.061-12.148 11.763-14.459 17.138a13.72 13.72 0 0 0-.41 1.07l-.706-.176z" fill="#070707" data-color="2"></path>
        <path d="M124.667 134.341h.001-.001zm-.866-.277c.019-.239.134-.509.184-.68.042-.143.084-.29.124-.433 2.88-10.341-.446-21.158 2.49-31.278.212-.725.457-1.446.746-2.176 2.991-6.856 7.68-9.806 12.502-13.584 1.324-1.037 2.661-2.137 3.991-3.406l.015-.016.019-.013c.013-.009.013-.009.012-.01l.023-.028.032-.025c.008-.006.032-.032.08-.076l.643.669c-.019.018-.048.049-.094.09a.932.932 0 0 1-.096.09c-1.357 1.293-2.714 2.408-4.047 3.452-4.887 3.827-9.342 6.628-12.217 13.212a23.09 23.09 0 0 0-.712 2.08c-2.877 9.747.443 20.579-2.488 31.27l-.127.441c-.058.197-.091.528-.225.688a.435.435 0 0 1-.121.096c-.14.082-.343.162-.503.093-.198-.087-.246-.261-.231-.456z" fill="#070707" data-color="2"></path>
        <path d="M130.447 120.486c.071-.039.098-.047.124-.063 3.065-1.456 5.625-3.285 7.732-5.403 3.143-3.167 5.274-6.988 6.513-11.222 1.646-5.62 1.713-11.968.462-18.434a42.533 42.533 0 0 0-.458-2.142c-.003-.027-.017-.079-.037-.166l.001.001.91-.195c.008.044.03.115.039.181.174.718.328 1.436.459 2.149 1.272 6.576 1.214 13.069-.482 18.863-1.275 4.363-3.484 8.33-6.745 11.613-2.184 2.196-4.837 4.09-7.968 5.575-.068.036-.088.042-.088.044l-.462-.801z" fill="#070707" data-color="2"></path>
        <path d="M130.219 119.222c.005-.836.006-1.672-.002-2.509a75.008 75.008 0 0 1 .083-4.79 42.67 42.67 0 0 1 .532-4.877c.225-1.314.522-2.616.897-3.896a20.588 20.588 0 0 1 1.24-3.26c2.601-5.584 4.823-9.531 8.747-14.255a78.451 78.451 0 0 1 2.888-3.302l.003-.003.02-.023.06-.066a.617.617 0 0 1 .1-.104l.461.508.128.117.053.037-.005.008.002.002-.011.011-.028.033-.022.023-.057.063c-.001-.002.001 0-.037.041l-.012.012a79.179 79.179 0 0 0-2.824 3.231c-3.87 4.662-6.029 8.498-8.625 14.064a19.814 19.814 0 0 0-1.187 3.122c-1.592 5.425-1.504 12.169-1.389 17.408.005.096 3.099-1.523 3.101-1.466.004.091-1.809 1.164-1.872 1.196-.136.068-.339.231-.471.306-.396.223-.72.441-1.092.703-.115.081-.392.33-.55.225-.102-.067-.088-.229-.1-.334a6.4 6.4 0 0 1-.03-.369 12.143 12.143 0 0 1-.011-.739c.005-.373.008-.745.01-1.117zm14.446-36.949l.007-.01-.007.01zm-.06.059z" fill="#070707" data-color="2"></path>
        <path d="M136.828 108.92c3.345-2.984 5.413-6.717 6.616-10.823 1.176-4.02 1.517-8.394 1.402-12.727a69.113 69.113 0 0 0-.103-2.29c-.001-.092-.012-.205-.019-.35.001 0-.002-.007-.004-.043l-.005-.031.001-.041h-.001c-.001-.014-.004-.037-.003-.078l.879.012.048-.008.001.006h.002l.002.03.002.017.002.039c-.002 0 .003.011.005.069.004.101.016.223.018.342.048.763.083 1.531.103 2.302.116 4.396-.226 8.862-1.438 13.009-1.237 4.234-3.393 8.138-6.888 11.254l-.62-.689zm8.813-26.37h.002-.002z" fill="#070707" data-color="2"></path>
        <path d="M136.729 110.225c-.473-3.025-.236-6.968.66-10.033 1.466-5.007 4.132-10.008 6.094-14.767.386-.93.74-1.844 1.059-2.752.015-.038.031-.089.051-.142l.878.309-.049.141a53.218 53.218 0 0 1-1.077 2.797c-1.987 4.813-4.635 9.792-6.062 14.672-.874 2.987-1.289 5.927-.844 8.77l.001.004.1.327-.405.336-.406.338z" fill="#070707" data-color="2"></path>
        <path d="M169.499 123.727c-3.157-5.838-4.493-14.03-6.742-21.548-2.246-7.529-5.372-14.302-11.91-17.428a17.54 17.54 0 0 0-2.725-1.034 20.642 20.642 0 0 0-2.962-.617c-.032-.001-.048-.005-.056-.006h-.047l-.039-.009-.018-.001-.033-.006v-.002h-.149l-.101-.076a.117.117 0 0 1-.019-.014l.217-.288.051-.552c0 .004.021 0 .08.011.026.002.046.006.059.008a.964.964 0 0 1 .065.008c.033.002.05.006.076.007 1.109.147 2.152.364 3.137.648 1.019.294 1.974.66 2.87 1.089 6.935 3.331 10.134 10.418 12.398 17.998 2.26 7.591 3.617 15.757 6.672 21.382.027.053.066.118.108.199.133.577-.2.657-.828.423-.027-.054-.066-.119-.104-.192zm-24.62-40.66h.002-.002zm.189-.907l.01.002-.01-.002z" fill="#070707" data-color="2"></path>
        <path d="M169.562 123.876c-9.09-6.936-15.361-9.793-20.962-20.874l.831-.416c5.499 10.855 11.497 13.537 20.688 20.548.064.045.108.312.144.339l.006-.226h.001l-.424.577c-.063-.046-.238.086-.284.052z" fill="#070707" data-color="2"></path>
        <path d="M163.564 110.533c-4.24-8.839-6.694-20.548-14.413-25.512a14.838 14.838 0 0 0-4.005-1.828l-.104-.029a.492.492 0 0 0-.059-.018.268.268 0 0 0-.045-.011l-.018-.004-.034.006-.087-.036-.038-.008-.015-.012-.035-.009.004-.017-.029-.024-.015-.012.076-.09.14-.55-.032-.176a.618.618 0 0 1 .08-.008l.005-.019.067.018a.705.705 0 0 1 .029.009.57.57 0 0 1 .053.012.244.244 0 0 1 .04.013l.009.003.032.01.072.019.072.022.091.025a15.83 15.83 0 0 1 4.255 1.941c8.169 5.334 10.536 17.225 14.749 25.897.039.089.08.172.124.258l-.572.363c-.049-.1-.357-.145-.397-.233zM144.71 83.071h.001-.001z" fill="#070707" data-color="2"></path>
        <path d="M162.879 110.274c-5.949-3.24-9.63-5.576-12.77-11.919l.836-.41c3.031 6.097 7.316 8.735 13.27 11.985.073.043.061.178.153.228v-.067s.675.985.541 1.143c-.135.158-.745-.225-.745-.225-.075-.042-.458-.302-.546-.352l-.739-.383z" fill="#070707" data-color="2"></path>
        <path d="M103.018 90.762c8.733 1.586 15.29.573 23.409-1.953 3.382-1.063 8.134-2.002 13.626-2.989l1.943-.349c.604-.105 1.215-.216 1.839-.324.458-.079.926-.163 1.391-.244l.429-.078 1.157-.203c.828-.148 1.668-.295 2.509-.445.549-.101 1.098-.198 1.646-.299 9.962-1.811 20.754-4.03 29.483-7.355 8.743-3.323 15.345-7.76 17.1-13.821 1.604-5.459-.604-12.496-9.013-21.684-.063-.071-.497.166-.583.099-.019-.015.225-.224.324-.351l-.773.894c.013 0 .597-.932.642-1.023.064-.128.296-.639.642-.639.127 0 .249.039.332.139.037.045.087.1.118.148.101.159.157.27.193.32.081.11.035.052.122.157.192.231.408.437.611.658.209.228.392.488.611.706a59.61 59.61 0 0 1 1.582 1.894c.48.599.947 1.209 1.399 1.829.421.579.829 1.168 1.221 1.767.365.56.716 1.129 1.048 1.708.311.541.605 1.092.881 1.652.258.524.499 1.057.719 1.598.207.508.396 1.024.563 1.547.158.493.296.993.412 1.498.11.48.199.964.266 1.452.064.467.106.937.126 1.408a13.758 13.758 0 0 1-.544 4.48c-1.936 6.558-8.838 11.059-17.66 14.427-8.836 3.364-19.67 5.585-29.647 7.4-.552.101-1.101.199-1.647.3l-2.512.445-1.156.202-.43.079c-.466.081-.933.165-1.396.244-.618.109-1.229.22-1.835.324l-1.941.35c-5.48.984-10.214 1.922-13.51 2.96-8.182 2.551-14.971 3.604-23.858 1.981l.161-.909zm85.289-49.996c0 .001.001.001 0 0l.001.001-.001-.001z" fill="#070707" data-color="2"></path>
        <path d="M153.817 79.973l.353-.044c22.46-2.777 33.83-8.887 36.695-18.761 1.591-5.426.669-12.118-2.498-20.197-.029-.078-.067-.168-.106-.269l.872-.326c.03.078.068.168.104.265 3.2 8.172 4.195 15.061 2.522 20.786-3.092 10.49-14.954 16.635-37.476 19.422l-.354.043-.112-.919z" fill="#070707" data-color="2"></path>
        <path d="M143.942 82.371c.078-.022.132-.035.173-.049.244-.067.489-.137.735-.206l.003-.002.085-.023c9.848-2.748 18.603-5.263 27.534-11.131 5.555-3.741 7.641-7.973 8.962-12.459.842-2.877 1.35-5.854 2.217-8.822.897-3.065 2.188-6.122 4.632-8.972.058-.081.117-.144.165-.196.041-.052.07-.082.081-.096l.004-.004.712.597-.001.001c-.043.051-.061.069-.062.073l-.017.022-.02.022c-.047.049-.084.09-.132.154-2.354 2.752-3.591 5.661-4.468 8.658-.849 2.899-1.357 5.876-2.217 8.822-1.336 4.589-3.582 9.111-9.338 12.97-9.046 5.944-17.905 8.491-27.716 11.23l-.032.024-.102.015c-.253.07-.514.145-.762.213-.076.022-.129.035-.151.043l-.285-.884z" fill="#070707" data-color="2"></path>
        <path d="M144.812 83.024l.203-.346-.312-.06-.057-.003-.041.007-.002-.009-.026-.001.001-.017-.003-.001.006-.022.001-.006a.17.17 0 0 1 .006-.041l-.006-.037.038-.098c2.616-11.081.665-15.959-3.64-19.145-4.348-3.208-11.345-4.749-18.726-8.246v.135c-.06-.023-.104-.179-.136-.195v.135l.422-.96c.029.015.046.021.081.037l.189-.248c7.294 3.472 14.093 5.217 18.724 8.599 4.665 3.399 6.686 8.921 3.993 20.098l-.003.024c-.01.048-.019.078-.024.097l-.008.041-.002.008-.019.095-.012.018-.114.453-.533-.312zm.317.055l-.068-.372h-.001l.069.372zm-.51-.678l.002-.006-.002.006zm.003-.012z" fill="#070707" data-color="2"></path>
        <path d="M144.866 82.807l-.025-.008-.04-.03c-12.162-6.972-20.944-12.806-22.889-27.909l-.064-.607c0-.001-.128-.575.015-.755.178-.139.595.148.595.148l.35.246a.522.522 0 0 1 .008.053l.068.538c1.931 14.726 10.216 20.47 22.372 27.478l.024.008.059.042v-.001h.001v.001l-.001.001-.382.706-.035.107-.019-.006-.004.006a.315.315 0 0 1-.033-.018z" fill="#070707" data-color="2"></path>
        <path d="M129.882 61.567a10.42 10.42 0 0 0-1.413-.306c-.014-.003-.046-.005-.105-.014l.154-.913c.014.003-.426-.209-.377-.2l.449.096c.521.075 1.055.305 1.552.448 8.076 2.38 12.454 12.895 15.211 20.046l.001.001-.873.327c-2.705-7.147-7.176-17.391-14.599-19.485z" fill="#070707" data-color="2"></path>
        <path d="M127.82 60.165c.128-.224 1.092.256 1.092.256 2.859 7.513 9.195 15.784 16.191 20.132v.001l-.298 1.055c-7.203-4.491-13.874-12.826-16.823-20.549-.002 0-.29-.671-.162-.895z" fill="#070707" data-color="2"></path>
    </g>
</svg>