<svg preserveAspectRatio="xMidYMid meet" data-bbox="8.999 3 182.001 194.007" viewBox="8.999 3 182.001 194.007" height="200" width="200" xmlns="http://www.w3.org/2000/svg" data-type="color" role="presentation" aria-hidden="true">
    <g>
        <path d="M184.027 87.986c-5.258-2.018-9.924-.813-15.238-.433-2.099.15-4.022-.558-5.938-1.351-.293-.052-.588-.116-.882-.177a9.12 9.12 0 0 0-2.441-1.44 7.86 7.86 0 0 0-2.86-.729 13.66 13.66 0 0 0-.531-.057c-2.673-.228-5.35.471-7.833 1.402-1.47.551-2.905 1.19-4.35 1.801-.941.395-1.89.776-2.854 1.108-.23.073-.459.149-.688.227-.78.246-1.571.456-2.377.612-.499.096-.984.202-1.451.387a1.728 1.728 0 0 1-.126-.632l-.423.115c.135-.236.278-.468.414-.703a1.45 1.45 0 0 1 .085-.439.866.866 0 0 1 .109-.621c.494-.773 1.052-1.533 1.7-2.185a.918.918 0 0 1 .138-.114 92.353 92.353 0 0 1 4.262-6.211l.291-.361c1.483-.874 2.97-1.742 4.46-2.603 1.237-.714 2.124-1.963 2.503-3.341a5.303 5.303 0 0 0-.03-.403c.08-.382.067-.784-.048-1.157.033-.971-.123-1.937-.658-2.781a3.606 3.606 0 0 0-1.513-1.359l-.004-.011a5.858 5.858 0 0 0 1.035-1.577c.46-1.034.678-2.121.744-3.249.026-.441.026-.883.014-1.324l.039-.108.652-1.806c.181-.501-.3-1.161-.844-1.107-.919.092-1.832.24-2.73.457a.82.82 0 0 0-.417.261c-.349-.268-.571-.7-.527-1.296.482-6.514 6.755-13.159 13.171-15.362.177-.152.387-.261.626-.299.642-.101 1.179-.252 1.655-.511.741-1.479.868-3.236.083-4.876a22.59 22.59 0 0 1-1.882-1.476c-.405.077-.845-.024-1.228-.399-1.304-1.276-3.694-1.269-5.381-.983a1.827 1.827 0 0 1-.536.012l-.036.022c-.438.272-.995.08-1.259-.33-.18-.278-.158-.623-.007-.898a1.604 1.604 0 0 1 .029-.612 38.75 38.75 0 0 1 .844-3.012c-.128-.513.003-1.027-.047-1.549a.67.67 0 0 1 .004-.168 6.325 6.325 0 0 0-.14-.313 1.909 1.909 0 0 1-.251.01c.03-.368-.181-.757-.528-.895a2.256 2.256 0 0 0-1.344-.947 3.163 3.163 0 0 0-.548-.08c-1.865-.622-5.62.755-8.42 1.664l-.354.262a.963.963 0 0 0-.361.108 6.018 6.018 0 0 1-.388.187c-.684.273-1.404.435-2.133.541-.511.065-1.024.106-1.537.141a10.738 10.738 0 0 0-.177-.627c-.724-2.291-2.317-3.787-4.266-5.084l-.051-.035c.036.042.071.087.103.137a.883.883 0 0 0-.148-.167l.045.03c-.159-.185-.337-.292-.334-.265.102.077.204.155.29.234-.207-.143-.287-.217-.29-.234-.119-.09-.236-.176-.32-.254a13.114 13.114 0 0 1-.707-.708l-.047-.052-.085-.052.028.038-.029-.038c-.753-.46-1.472-.97-2.026-1.664a1.153 1.153 0 0 1-.25-.489 5.305 5.305 0 0 0-1.168-.474c-1.391-.382-3.242-.21-4.477.585-.2.128-.393.272-.58.429-.021.07-.049.139-.082.207l-.017.037c-.202.524-.333 1.059-.738 1.481a.85.85 0 0 1-.491.253l-.032.061-.144.186a.904.904 0 0 1-.314.205 6.18 6.18 0 0 0-.123.291h-.001c-.175-.077-.35-.154-.524-.234a18.764 18.764 0 0 1-1.457-.738c-.137-.078-.271-.162-.405-.245a6.351 6.351 0 0 0-.332-.299 6.627 6.627 0 0 0-1.281-1.394.561.561 0 0 0-.038-.245c-.059-.144-.112-.293-.204-.42a2.04 2.04 0 0 0-.29-.345c-.726-1.382-.925-2.967-1.13-4.758-.215-1.874-.489-4.22-2.902-4.372-1.713-.107-3.489 1.311-4.738 2.31-1.149.919-2.63.112-2.931-.928a.893.893 0 0 1-.104-.671 5.713 5.713 0 0 1 .836-1.787 6.655 6.655 0 0 0-.373-.521c.03-.019.059-.038.086-.059a.835.835 0 0 0 .314-.454c.082-.36-.047-.813-.402-.987a2.174 2.174 0 0 0-1.412-.19.689.689 0 0 0-.291.143l-.124-.078a1.469 1.469 0 0 1-1.279.262c-.531-.146-.918-.596-1.035-1.113a10.775 10.775 0 0 0-.321-.046.792.792 0 0 0-.089-.097 1.241 1.241 0 0 0-.196-.15 1.435 1.435 0 0 0-.259-.109 1.145 1.145 0 0 0-.584 0 1.13 1.13 0 0 0-.485.275l-.027.028a1.376 1.376 0 0 0-.075.089c-.4.067-.793.173-1.177.309-.032.052-.064.104-.094.158a7.971 7.971 0 0 0-.189.353c-.11.218-.28.387-.481.506-.189.276-.433.437-.742.553-.237.089-.496.104-.749.129a.733.733 0 0 0-.05.011 2.48 2.48 0 0 0-.251.154c-.3.252-.561.546-.819.84-.269.306-.539.609-.792.927-.337.446-.645.911-.914 1.401-.311.567-.554 1.166-.806 1.761l.101-.238c-.143.34-.286.681-.422 1.025-.586 4.054.077 8.225-.375 12.315l-.002.005.002.003c-.099.368-.196.736-.293 1.104l-.067.028a6.614 6.614 0 0 1-.863 1.901.597.597 0 0 1-.217.197 11.65 11.65 0 0 1-.117.219c-.141.26-.478.321-.725.19-.258-.136-.322-.481-.19-.724a16.574 16.574 0 0 0 .514-1.032l.076-.172.017-.039.012-.028c.074-.178.143-.358.209-.539a.56.56 0 0 1-.274-.462.497.497 0 0 1 .18-.394.896.896 0 0 1-.007-.256c.143-1.29.181-2.586.182-3.883a.867.867 0 0 1-.162-.127c-.178-.178-.253-.405-.27-.65a15.737 15.737 0 0 0-.08-.866c-.126-.834-.374-1.628-.695-2.407-.069-.161-.14-.322-.211-.482a1.107 1.107 0 0 1-.114-.579c-1.496-1.206-3.355-1.909-5.337-1.901-2.186.893-3.645 2.59-4.823 4.649.426.981-.094 1.892-.833 2.304l-.67-.637c-.458-.436-.905-.891-1.406-1.279-.275-.214-.554-.419-.871-.567a3.843 3.843 0 0 0-1.195-.342c-.664-.081-1.358.065-1.972.314-.386.156-.76.333-1.123.538-.159.09-.316.183-.473.279l-.006.004a2.983 2.983 0 0 0-.277-.233 2.559 2.559 0 0 0-.735-.363 2.49 2.49 0 0 0-1.635.037 3.18 3.18 0 0 0-1.318.964c-.214.264-.403.54-.577.827-.46.314-.762.759-.98 1.253-.383.293-.767.586-1.144.887-.242-.103-.491-.187-.752-.189-.408-.003-.749.247-.966.573-.088.132-.16.276-.236.414-.348.637-.65 1.293-.933 1.961-.082.193-.012.502.088.674a.883.883 0 0 0 .118.155 7.766 7.766 0 0 0-.269.331c.135.23.219.5.215.817-.009.836-.781 1.813-1.701 1.699-1.462-.182-2.486-.852-3.571-1.814-.347-.307-.696-.71-1.08-.965a1.878 1.878 0 0 0-.774-.45 7.72 7.72 0 0 0-.268-.144c-.399-.203-.907-.423-1.367-.381a.889.889 0 0 0-.783.639l-.004.015a1.96 1.96 0 0 1-.326-.394c-.154-.008-.306-.022-.462-.022l-.046.001a.573.573 0 0 0-.269-.367.583.583 0 0 0-.589 0 1.286 1.286 0 0 0-.164.13 1.165 1.165 0 0 0-.124.169c-.027.055-.055.112-.071.172a8.572 8.572 0 0 0-.356.066l-.002.009-.003.054a.934.934 0 0 1-.174.528c0 .39-.365.716-.746.716-.404 0-.706-.318-.743-.704a.776.776 0 0 1-.037-.056l-.102.045a.86.86 0 0 0-.493-.165c-.388-.006-.765.23-1.111.382a.474.474 0 0 0-.239.277 3.13 3.13 0 0 0-.28.201 3.717 3.717 0 0 0-.591.605c-.234.296-.416.633-.387 1.006a8.338 8.338 0 0 0-1.577 2.651c.087.489.114.988.001 1.474-.117.501-.662.749-1.132.642a.811.811 0 0 1-.144-.048l-.16.273a.609.609 0 0 0-.426-.052.723.723 0 0 0-.533.624 1.142 1.142 0 0 0-.091.149 1.91 1.91 0 0 0-.186.619c-.053.393-.026.786-.014 1.181l.02.634c.007.208.011.424.076.623.104.318.373.583.684.677.184 1.16.494 2.301.529 3.485a.767.767 0 0 1-.032.245c.03.081.046.167.046.251 0 .096-.01.185-.022.281a1.35 1.35 0 0 1-.135.428c-.106.232-.402.369-.644.369-.277 0-.493-.147-.644-.369-.054-.08-.114-.155-.168-.234a1.613 1.613 0 0 1-.173-.357c-.951-.351-1.935-.776-2.837-.533.152.625-.034 1.287-.639 1.641a1.458 1.458 0 0 1-.695.19c-.32-.553-.926-.896-1.537-1.061a1.989 1.989 0 0 0-.094-.109c-.082.01-.164.022-.246.034-.683-.12-1.415-.1-2.062.161a2.76 2.76 0 0 0-.985.639c-.306.321-.509.707-.66 1.121-.286.784-.392 1.665-.434 2.494-.05.994.049 1.999.273 2.968.02.085.063.162.121.227.38 1.911 1.189 3.816 1.927 5.273.539 1.063-.092 2.053-.936 2.42l.03.038a.493.493 0 0 1 .041-.014c.215-.059.418.074.487.277.056.164.075.209.156.363.032.061.066.12.101.179a.65.65 0 0 1 .227.242l.135.258c.069.083.14.164.212.244.238.265.482.525.704.803a.78.78 0 0 1 .117.152c.054.072.106.146.156.222.306.465.502 1.007.615 1.549.25 1.2.147 2.428.145 3.644a.401.401 0 0 1-.136.296.5.5 0 0 1 .174.371c-.003.435-.067.866-.129 1.296a.342.342 0 0 1-.057.146c.14.153.174.405.063.581a1.882 1.882 0 0 0-.089.158l-.022.048a2.613 2.613 0 0 0-.109.377c-.013.063-.022.126-.034.189l-.001.006-.011.098a6.75 6.75 0 0 0-.024.377c-.016.5.021.999.022 1.498a.498.498 0 0 1-.489.489c-.265.012-.489-.233-.489-.489-.001-.528-.043-1.055-.019-1.583l.002-.041c-.07.024-.142.042-.215.054l-.014-.896c-.007-.468-.014-.938-.112-1.398-.07-.329-.194-.645-.318-.958a5.544 5.544 0 0 0-.5-1.379l-.026-.284c-.045-.528-.089-1.058-.194-1.578-.194-.958-.582-1.869-1.019-2.739l-.013-.026a9.064 9.064 0 0 0-.108-.4c-.148-.492-.401-.966-.864-1.225a.563.563 0 0 0-.539-.015 18.516 18.516 0 0 0-1.506-2.146c-.193-.238-.627-.215-.825 0-.233.253-.205.57 0 .824l.053.067a.595.595 0 0 0-.224.615l-.261.499a23.507 23.507 0 0 0-.388-.32c-.487.82-1 1.626-1.455 2.464-.149.273-.323.928-.534 1.15.401.285.54.691.492 1.094.058.089.102.189.13.294a.803.803 0 0 1 .19.488c.018.402-.356.745-.746.745a.716.716 0 0 1-.376-.104.738.738 0 0 1-.081-.007c.007.001-.476.505-.55.55a1.78 1.78 0 0 1-.923.247c-.578-.006-1.382-.577-1.511.313-.205 1.415-.213 2.917.149 4.308.092.352.456.907.456 1.246.171.344.325.756.394 1.175a.43.43 0 0 1 .173.153c.398.621.864 1.194 1.04 1.927a.402.402 0 0 1-.277.487c-.202.055-.437-.069-.487-.277a2.798 2.798 0 0 0-.389-.882 10.027 10.027 0 0 0-.157-.242 1.446 1.446 0 0 1-.121.23 1.894 1.894 0 0 1-.622.602c-.195.355-.433.7-.714 1.032a1.37 1.37 0 0 1-.465.356c-.029.562-.339 1.112-1.013 1.343-1.285.442-2.528.332-3.844.156a.62.62 0 0 0-.281.005c-.118.039-.201.143-.264.25-.636 1.08.037 2.576.382 3.647.865 2.685 1.862 5.012 3.48 7.323 1.523 2.177 3.154 4.274 4.712 6.426 1.737 2.398 2.706 1.522 2.678 7.066 2.507 3.316 5.266 6.45 8.274 9.306a92.79 92.79 0 0 0 5.361 4.681c-1.877 1.178-3.921 2.411-5.275 4.119-.842 2.279-1.577 4.417-.759 6.944.481 1.485-.945 2.319-2.125 2.004-.015.199-.03.397-.035.597a6.592 6.592 0 0 1-.9.024.948.948 0 0 0-.196.014.584.584 0 0 1-.094.105 9.854 9.854 0 0 1-.799.61l-.054.038a1.253 1.253 0 0 0-.084.317c-.084.624.296 1.181.896 1.371l.324.101a.937.937 0 0 0 .029.116c.094.29.284.616.575.747a28.002 28.002 0 0 0 4.068 1.478 28.135 28.135 0 0 0 5.523.91c.33.223.515.596.557.996-1.9.739-3.831 1.485-5.54 2.613-.822.543-1.611 1.163-2.288 1.88-.367.388-.703.809-1.01 1.245-.236.335-.399.711-.411 1.128-.012.422.144.813.398 1.141.436.564 1.082.837 1.752 1.025.101.028.202.054.304.078a.912.912 0 0 0-.089.137c-.589 1.15-1.162 2.305-1.662 3.497-.461 1.099-.846 2.239-1.041 3.418-.084.508-.144 1.03-.116 1.545l-.025.145c-.158 2.568.194 5.124.895 7.638.072.023.139.057.214.077a4.1 4.1 0 0 0 .264.484c1.069 1.655 3.353 2.926 5.356 2.175l5.27-1.976c.255-.17.522-.321.795-.459.373-.188.79-.089 1.02.267.209.324.082.844-.267 1.019a7.393 7.393 0 0 0-.877.514c-.037.026-.075.052-.111.079-.021.015-.157.108-.051.037.101-.068-.008.008-.03.026a4.161 4.161 0 0 0-.101.086l-.092.084c-.119.864.037 1.76.555 2.562 1.196 1.852 3.848 2.843 5.84 1.528 2.544-1.679 4.408-3.998 5.849-6.66.254-.47.513-.952.766-1.442-.383-.526-.477-1.278.067-1.901.43-.492.874-.969 1.312-1.453l.03-.088c.052-.149.106-.299.162-.448.115-.455.202-.914.249-1.376l.541-.315c.192-.309.434-.593.673-.865a8.77 8.77 0 0 1 .656-.666c1.015-.934 2.179-1.688 3.276-2.519a.937.937 0 0 1 .439-.17c1.382-.986 2.913-1.697 4.521-1.839.064-.057.133-.109.208-.156.498-.306 1.057-.508 1.611-.695a192.6 192.6 0 0 0 7.007-4.661l.391-.277c3.157.831 6.721-.354 9.063-2.662.108.028.217.055.326.079-2.694 3.296-5.374 6.604-7.992 9.957-4.915 6.295-9.715 13.107-11.551 20.994.284.462.426 1.03.306 1.689-.811 4.468 1.281 10.2 3.027 14.219 1.593 3.669 4.563 9.628 8.408 5.814 2.749-6.819 7.424-14.339 14.81-14.794 2.918-.926 6.002-.137 9.017-.526.143-.018.27-.013.391.003 2.41-.622 4.654-1.429 5.948-3.861.142-2.063-.168-3.97-.658-5.889a29.225 29.225 0 0 1-.066-.427 4.578 4.578 0 0 1-.026-.794c.013-.212-.065-.451-.185-.649-.029-.675-.075-1.35-.115-2.025-.057-.965-.102-1.93-.136-2.896.077-.116.164-.224.264-.323-.108-.29-.209-.582-.302-.877a126.358 126.358 0 0 1-.017-6.054 1.269 1.269 0 0 0-.268-.771c.417-.251.97-.315 1.439-.134-.19.55-.26 1.169-.124 1.86.589 3.01.861 6.37 2.191 9.163.456.957 1.058 1.787 1.749 2.536.007.009.009.021.015.029l1.825 2.406c.301.397.6.748.955 1.028.101.139.227.253.378.343.903.668 2.16.736 3.218.477a5.154 5.154 0 0 0 1.46-.618c1.536-.566 2.859-1.681 4.493-3.261.534-.516 1.061-.999 1.637-1.402.173.388.407.749.696 1.061a.74.74 0 0 1 .046-.031c.212-.136.53-.166.768-.1a.971.971 0 0 1 .489.324l.006.003-.037-.048c.016.02.033.038.05.056l.026.014c.13.042.263.071.398.093.44.048.892.056 1.319.168a.943.943 0 0 1 .569.425c2.35-.618 4.09-2.149 5.352-4.079.348-.152.668-.337.975-.584.363-.293.652-.68.908-1.067.225-.341.42-.702.586-1.075.363-.818.625-1.662.77-2.546a15.69 15.69 0 0 0 .202-2.339 8.529 8.529 0 0 0-.206-3.546l-.014-.15c-.024-.249-.084-.47-.252-.658a8.56 8.56 0 0 0-.766-1.516c-.25-.393-.592-.599-.952-.665a39.05 39.05 0 0 0 1.984-3.855.962.962 0 0 0 .061-.091l.167-.222a.647.647 0 0 0 .104-.325c.014-.063.019-.126.014-.189 2.212-3.03 3.043-6.94 1.949-11.005a3.422 3.422 0 0 0-.593-1.215 5.388 5.388 0 0 0-.124-.481 2.4 2.4 0 0 1 .849-.686c1.397.341 2.807.625 4.227.85.695.11 1.392.206 2.091.292a.514.514 0 0 0 .177-.013c2.652.712 5.375 1.223 8.108 1.462 1.525.133 3.053.108 4.559-.186a13.416 13.416 0 0 0 4.019-1.494c.619-.35 1.224-.772 1.708-1.295.142-.154.279-.318.402-.491.165-.125.321-.26.464-.408.232-.24.447-.518.591-.821.185-.389.281-.756.327-1.183.078-.73-.138-1.552-.585-2.136a1.354 1.354 0 0 0-.253-.268c.011-.521.19-1.038.534-1.448.324-.036.648-.082.971-.136a.75.75 0 0 0 .362-.204c1.192.317 2.713-.02 3.739-.411 1.56-.595 2.781-1.629 3.722-2.993.036-.052.058-.104.087-.157.811-.958-.043-2.545-1.23-2.45a3.636 3.636 0 0 0 1.472-.827c2.016-1.873 2.857-4.995 1.943-7.609a4.057 4.057 0 0 0-.651-1.176c.021-.033.043-.064.066-.096l1.363-.019c.763-.011 1.598-.062 2.304-.378l.026.031c3.199-1.3 7.061-2.814 8.517-6.047.525-.644.905-1.381 1.037-2.197 1.096-4.082-.126-8.488-4.963-10.345zM23.847 58.399l.019-.025.041.082-.06-.057z" fill="#F2EADC" data-color="1"></path>
        <path fill="#070707" d="M74.506 65.948h-.002.002z" data-color="2"></path>
        <path fill="#070707" d="M79.362 64.955h-.001.001z" data-color="2"></path>
        <path fill="#070707" d="M115.563 33.951h-.002.002z" data-color="2"></path>
        <path d="M190.043 91.668c-3.106-5.861-10.318-6.321-17.103-6.325-1.405 0-2.795.02-4.131.02-2.198 0-4.252-.057-5.977-.35-1.539-1.79-3.747-2.598-6.002-2.595-6.598.016-15.298 5.669-20.643 6.424.189-.496.399-.983.637-1.465 1.328-3.089 5.042-5.753 8.479-8.328 3.408-2.595 6.647-5.089 6.696-8.399-.001-1.723-.947-3.496-3.054-5.378 1.108-2.022 1.714-4.367 1.714-6.823 0-.272.018-.543.02-.815.001-.231.029-.548-.069-.763a.222.222 0 0 0-.064-.087c-.072-.053-.175-.03-.254.011-.282.145-.585.194-.892.269-.908.223-1.854.486-2.796.486-.075 0-.147-.003-.215-.007 1.123-3.706 4.207-9.036 6.713-11.603.919-.79 3.085-1.634 5.102-2.502 2.018-.891 3.906-1.747 4.403-2.938a3.33 3.33 0 0 0 .215-1.188c-.009-1.762-1.258-3.525-2.683-4.784-.182-.16-.366-.308-.551-.451-.671-.514-1.355-.903-1.976-1.115.191-.299.292-.547.297-.792a.603.603 0 0 0-.331-.549c-.19-.098-.408-.125-.657-.126-1.468.007-4.428 1.125-5.619 1.407l-.001-.093c-.004-1.762.653-4.272.656-6.376.01-1.631-.422-3.127-1.991-3.697-.352-.135-.747-.191-1.175-.191-3.463.022-9.44 3.684-12.559 3.661l-.077-.001c-1.098-3.299-4.432-4.553-7.383-6.971-1.759-1.29-1.982-3.577-3.925-3.657-.419.001-.891.123-1.451.383-1.353.654-2.5 2.383-3.55 4.539-3.962-.153-4.417-2.941-4.455-6.057 0-1.142.078-2.301.078-3.336 0-.162-.002-.32-.006-.475-.135-3.494-1.523-4.903-3.434-4.882-2.524.016-5.821 2.224-8.59 3.917a4.387 4.387 0 0 1-.045-.63c-.001-1.207.424-2.332 1.061-3.49 0 0 .167-.222.127-.332-.04-.11-.122-.132-.122-.132-.62-.669-1.362-1-2.108-.997-.763 0-1.513.337-2.155.936C99.809 3.64 99.09 2.997 98.221 3a2.382 2.382 0 0 0-.875.193 3.306 3.306 0 0 0-.137.058c-.574.258-1.079.648-1.526 1.086-.223.218-.439.443-.642.679-.184.214-.41.722-.503.698s-.162-.943-.578-.956c-.158-.005-.256.143-.363.235-.142.121-.29.236-.438.349-.285.218-.574.432-.841.672-.466.418-.892.88-1.263 1.383a9.532 9.532 0 0 0-1.408 2.815c-.316 1.006-.488 2.051-.583 3.099-.097 1.072-.113 2.149-.113 3.225 0 .707.009 1.414.009 2.12.001 2.397-.093 4.751-.866 6.86.032-.435.048-.907.049-1.405-.022-3.616-.761-8.446-1.883-9.686-1.206-1.126-2.451-1.606-3.647-1.603-1.435 0-2.77.678-3.897 1.662-.354.308-.696.649-1.011 1.014-1.049 1.219-1.841 2.671-2.25 3.99-1.271-1.569-3.044-3.492-5.035-3.516-.959-.003-1.92.484-2.792 1.62-.741-.952-1.494-1.385-2.24-1.386-1.134.013-2.035.958-2.757 2.092-.509.8-.93 1.72-1.247 2.553-.549-.501-1.021-.751-1.475-.757-1.211.084-1.472 1.611-1.653 3.233-.103 1.09-.12 2.288-.146 3.269-.47-.818-1.24-1.354-2.076-1.362-.589-.002-1.178.285-1.647.88-1.001-1.16-2.607-2.742-4.076-2.772-.751-.008-1.401.482-1.77 1.523-.396-.608-.794-.92-1.257-.933-.842.062-1.309.98-1.661 2.138-.461-.79-1.058-1.192-1.714-1.192-1.1.019-2.095 1.04-2.871 2.413-.77 1.383-1.301 3.167-1.302 4.848l.002.193a4.556 4.556 0 0 0-.819-.081c-.732-.004-1.273.243-1.594.666-.321.42-.422.963-.423 1.537.004 1.477.696 3.291.799 3.979.122.77.238 2.345.536 3.898-.801-1.025-1.882-1.701-3.018-1.709-.916-.004-1.832.467-2.568 1.494-1.11-.615-2.158-.894-3.12-.894-3.61.021-5.773 3.833-5.779 7.602 0 1.034.163 2.073.509 3.043 1.283 3.771 5.093 5.267 6.267 9.177.193.722.264 1.555.264 2.441.001 2.185-.438 4.683-.439 6.849l.001.145c-.855-5.829-1.699-11.786-6.333-15.518 0 0-.278-.305-.52-.312-.242-.007-.174.507-.174.507l.083.527c-.026.974-.585 1.377-1.264 2.245-.67.875-1.391 1.641-1.473 2.475a5.462 5.462 0 0 0-.018.451c-.003 1.005.298 1.676.684 2.237a2.607 2.607 0 0 0-.396-.028c-.693.001-1.232.272-1.825.591a.64.64 0 0 1-.281.095c-.355.007-.673-.458-.901-.681-.351-.343-.612-.679-1.027-.943-.497-.317-.95-.032-1.064.486-.35 1.599-.095 3.281.437 4.828.532 1.548 1.331 2.987 2.1 4.432.396.745.787 1.497 1.13 2.268a21.238 21.238 0 0 1-.921-1.723l-.117-.245-.234.136c-1.311.751-1.816 1.711-2.112 2.91a48.134 48.134 0 0 0-.198-.477c.011.027-1.552.355-1.696.375a10.668 10.668 0 0 1-3.598-.127c-.385-.08-.734-.305-1.117-.398-.684-.166-.497.516-.496 1.04.017 7.71 6.89 17.484 12.712 21.912a5.621 5.621 0 0 0-.149 1.306c.026 4.878 5.701 10.27 8.514 13.039a46.482 46.482 0 0 0 4.177 3.977 4.841 4.841 0 0 0-.818-.072c-3.522.03-5.411 4.017-5.413 7.629 0 1.388.277 2.741.874 3.835-1.701.473-2.653 1.682-3.842 2.268 0 0-.778.278-.769.487.01.232.283.34.455.434.245.133.478.291.711.443.461.302.916.615 1.401.879 1.106.602 2.285 1.059 3.484 1.436 1.225.384 2.475.687 3.725.977.92.213 1.842.42 2.759.647-1.432.447-3.417 1.425-5.219 2.614-2.256 1.513-4.236 3.298-4.27 4.99 0 .981.735 1.796 2.282 2.316-1.911 3.267-3.434 7.585-3.437 11.455-.002 2.474.483 4.8 2.074 6.494l.495.605c-.04.239-.061.458-.061.659 0 .122.008.24.024.352.093.863.777 1.283 1.566 1.255 1.48-.01 3.693-1.056 5.864-2.085 2.04-.98 4.057-1.944 5.099-2.03-1.342 1.205-1.936 2.426-1.937 3.526.006 1.974 1.905 3.333 4.263 3.337.642 0 1.321-.099 2.015-.311.088-.027.182-.054.277-.087 6.187-1.885 6.874-11.982 11.048-15.825 5.486-4.986 10.914-4.943 17.1-7.3 5.369-2.302 7.122-5.037 11.598-8.85.707-.478 2.687-1.76 3.356-2.281l.015-.012a12.072 12.072 0 0 0 3.101-1.571c-8.862 6.405-18.417 14.671-23.546 23.702a37.523 37.523 0 0 0-5.62 19.763c0 1.123.049 2.252.151 3.381.138 2.182.743 6.324 2.051 10.098 1.318 3.748 3.296 7.237 6.527 7.842.4.096.807.143 1.19.143h.006c2.075.001 3.354-1.447 4.22-3.136.889-1.705 1.489-3.767 2.255-5.37 1.518-3.1 3.06-5.563 5.158-7.366a12.725 12.725 0 0 1 2.774-1.828c1.097-.545 2.348-.975 3.789-1.287.604-.135 1.407-.188 2.32-.187 1.505 0 3.308.134 5.1.198.514.019 1.027.028 1.531.028 2.564-.016 4.969-.255 6.316-1.727 1.112-1.115 1.483-2.685 1.483-4.332-.008-3.516-1.654-7.663-2.047-9.944a26.927 26.927 0 0 1-.28-2.232c1.434 4.884 4.008 11.262 8.2 12.202.271.053.547.078.832.078 3.621-.03 8.543-3.866 10.31-6.749.638.801 1.516 1.177 2.464 1.177h.014c3.611-.041 8.424-4.977 9.911-10.137.271-.963.423-1.936.423-2.889a8.19 8.19 0 0 0-.115-1.387 6.852 6.852 0 0 0-1.71-3.527c3.413-3.734 5.614-8.12 5.621-12.161.005-1.999-.556-3.915-1.775-5.564 4.28 1.896 11.657 3.248 17.027 3.259 1.873-.001 3.5-.166 4.679-.551 2.845-.975 4.946-3.277 4.953-5.884 0-1.254-.499-2.559-1.608-3.771.43-.067.905-.117 1.405-.156 2.648-.224 6.029-.162 7.94-1.596 1.432-1.15 2.939-2.684 2.968-4.042-.003-.843-.639-1.461-1.986-1.716 2.107-1.079 3.11-3.092 3.101-5.111 0-1.396-.447-2.841-1.269-4.119.636.146 1.28.216 1.926.216 2.83-.003 5.662-1.331 7.889-3.332.083-.073.173-.152.262-.237 2.41-2.275 4.06-5.355 4.063-8.399a7.688 7.688 0 0 0-.957-3.76zm-39.044-21.017c.05 2.547-2.854 5.04-6.298 7.602-3.412 2.582-7.259 5.242-8.784 8.706a17.813 17.813 0 0 0-.826 1.966c-1.33 3.692-1.582 7.47-2.717 10.958-.472 1.444-1.088 2.843-1.99 4.178-1.438 2.129-3.526 4.736-5.946 7.151-.577.58-1.17 1.147-1.776 1.7-2.915 2.625-6.166 4.808-9.203 5.627.256-.269.5-.548.73-.839 1.675-2.167 3.182-4.184 4.467-6.725l.222-.278-.034.064c7.376-8.389 9.495-22.354 15.938-31.304l-.014-.01c2.173-2.209 3.988-4.591 4.551-7.678 3.947-.407 7.138-2.567 9.106-5.621 1.886 1.732 2.574 3.204 2.574 4.503zm-52.079 56.47c-3.185-2.227-4.893-4.892-6.138-7.967-1.409-3.492-2.155-7.514-3.617-11.787-2.429-7.293-6.689-14.889-10.993-21.262.975-.601 1.778-.827 2.508-.827 2-.024 3.666 1.801 6.636 2.868.531.181 1.094.757 1.651 1.312.563.546 1.121 1.101 1.846 1.115.181.001.366-.04.547-.126l.052-.015c2.775 8.304 2.128 25.146 8.956 31.312-.903 1.258-1.551 2.652-1.551 4.259a6.08 6.08 0 0 0 .103 1.118zm-4.709 3.14c.168-.012.336-.027.505-.044-.762.529-1.533 1.073-2.309 1.632a15.127 15.127 0 0 0 1.804-1.588zm-.233-.552h.004l.004.068-.004-.003-.004-.065zm.148-1.325a13.965 13.965 0 0 1-2.16-1.029c-1.545-.897-2.947-2.031-4.236-3.262-1.436-1.371-2.742-2.876-3.946-4.453a50.356 50.356 0 0 1-3.945-6.03c-.045-.08-.448-.893-.484-.885l-.003.001-.121-.234-.047-.088.001-.001-.815-1.583.012-.004c-2.062-4.259-3.314-8.376-3.31-11.16.004-1.817.517-2.989 1.561-3.385l.358-.139-.271-.271c-1.272-1.279-1.868-2.814-1.868-4.326 0-1.225.391-2.435 1.145-3.476 3.287 4.766 9.355 14.245 10.971 19.19.058.221.087.479.087.75.014 1.197-.622 2.583-.636 4.082 0 .325.033.657.118.989.198 2.213 2.388 5.509 3.251 7.369.178.384.435.749.652 1.112.212.356.428.71.649 1.06.411.651.843 1.29 1.315 1.9.89 1.149 1.933 2.171 3.162 2.955.715.456 1.477.861 2.293 1.104.138.041.544.098.617.234.086.161-.166.102-.256.102a9.652 9.652 0 0 1-.886-.043 42.095 42.095 0 0 1-1.694-.209c-.507-.074-1.038-.095-1.514-.27zm-30.644-4.742c-9.09-2.507-14.242-9.612-22.935-12.044-7.403-2.047-9.871-5.832-11.817-10.93a19.993 19.993 0 0 0 3.896 4.601c4.007 3.133 7.968 3.28 11.769 5.549 4.661 3.368 6.67 6.614 12.956 8.791 5.239 1.63 9.747 2.319 14.214 5.517 2.962 1.875 4.839 3.442 7.555 4.229l-.425-.015.001-.01c-4.805-.262-10.166-4.216-15.214-5.688zm8.362 1.069c-4.566-3.266-9.156-3.96-14.337-5.577-6.144-2.124-8.072-5.28-12.837-8.734-3.966-2.346-7.873-2.486-11.724-5.515-2.838-2.502-4.345-5.108-5.526-7.926-.718-2.106-1.495-4.381-2.558-6.776l-.004-.008-.119-.297c1.132-1.148 3.286-1.74 5.611-2.137 1.668-.285 3.422-.482 4.952-.768l-.035-.189.002-.002.036.196a19.058 19.058 0 0 0 1.64-.375l.007.004.005-.008.098-.028c.45-.134.86-.283 1.219-.467.409 1.5.41 3.795.715 5.77.311 2.081 1.05 3.979 3.18 3.984.729 0 1.591-.222 2.637-.702.632-.296 1.221-1.359 1.964-2.592 1.901 1.473 3.309 2.303 4.296 3.312 1.013 1.037 1.674 2.273 2.132 4.836.626 3.618.296 5.58.803 7.408.533 1.857 1.95 3.239 5.727 5.448 7.298 4.213 13.48 8.916 20.836 12.782 2.072 1.222 4.177 2.276 6.375 2.991l-2.77.048c-.235.008-.463.01-.686.01l-.392-.002c-5.156-.084-6.995-1.997-11.247-4.686zM40.371 75.396c-.877-4.922-.218-8.601-2.525-13.605.582.177 1.127.447 1.656.761.162.096.637.436.838.299.23-.157-.508-1.231-.508-1.231l-.222-.333c-.655-1.291-.834-1.97-.83-2.596.007-.512.143-.765.355-.946.216-.18.592-.302 1.13-.3.051 0 .104.001.161.004.059.002.118.006.18.01 3.393 3.272 1.561 7.149 3.744 10.983 1.347 2.278 4.252 3.814 6.288 5.546-1.064.884-1.911 1.974-2.195 3.417a5.993 5.993 0 0 0-.2 1.581c.009 2.313 1.125 4.401 1.118 7.072a9.7 9.7 0 0 1-.255 2.206 77.568 77.568 0 0 1-.77-.559c-3.333-3.384-6.977-7.804-7.965-12.309zm5.403 10.294c-4.153-3.519-6.839-7.297-8.285-13.099-.474-1.915-2.192-6.312-2.181-8.967-.003-.691.121-1.233.334-1.547.217-.306.475-.473 1.062-.486.147 0 .311.014.496.045l.022.004c2.452 5.058 1.749 8.689 2.658 13.851.814 3.674 3.26 7.204 5.894 10.199zm13.648-29.81c1.071 3.934 4.503 6.238 5.331 10.131-.587.332-1.077.869-1.068 1.735 0 .425.108.917.347 1.505l-.008-.006c-.601-.479-1.164-.98-1.845-1.349a5.514 5.514 0 0 0-.955-.409c-.351-.111-.686-.167-.985-.403-.534-.421-.975-1.014-1.418-1.526-.576-.665-1.146-1.334-1.72-2.001a135.5 135.5 0 0 0-3.242-3.659c-1.417-1.532-2.892-3.013-4.265-4.126-1.384-1.105-2.624-1.886-3.793-1.907a1.826 1.826 0 0 0-1.507.744c-.256.344-.429.774-.539 1.301-1.598-1.7-3.655-3.664-5.14-5.296.285-1.948.75-3.604 1.36-4.948 1.334-2.944 3.3-4.401 5.595-4.403 2.716-.008 5.834 1.919 9.071 6.394 0 0 .142.344.363.422.221.078.415-.339.415-.339.324-.361.437-.621.881-1.126 1.17 1.399 2.487 3.308 2.679 5.004-.02.305-.03.608-.03.911.001 1.151.142 2.281.473 3.351zm.082-4.078a1.727 1.727 0 0 0-.021-.207c.146-2.181.77-4.444 1.611-6.514.249-.61.513-1.203.791-1.776a20.345 20.345 0 0 1 2.464 1.788c1.149.983 2.179 2.133 2.793 3.355.065.413.135.831.209 1.253.034.2.071.396.108.595.01.069.018.143.023.223l.018-.001c.999 5.387 2.625 11.163 2.757 12.158l-.278.222c-1.588.993-2.448 1.6-2.85 2.046-.402.333-1.188.532-1.913.844-.955-4.052-4.351-6.36-5.312-10.044-.315-1.023-.452-2.103-.452-3.213 0-.24.007-.482.02-.725l.035-.002h-.003zm13.308-11.528c.255 3.738 1.949 6.449 3.504 9.987.013.027.03.069.056.124l.052 1.45-.001.009.001-.006v.011a13.665 13.665 0 0 0-.018.768c.002 3.752 1.024 8.047 1.989 10.754-.484-.395-1.017-.588-1.546-.587-.599.002-1.166.242-1.635.659a13.19 13.19 0 0 0 .409-1.72c.09-.571.081-1.145.127-1.719.006-.073.01-.152-.033-.211-.046-.062-.135-.08-.208-.059-.127.037-.251.16-.379.218-.146.065-.29.134-.433.205a27.1 27.1 0 0 0-1.04.548c-.858.472-1.701.971-2.536 1.482-.322-1.656-1.749-6.981-2.676-12.054a44.751 44.751 0 0 1-.109-.601c-.41-2.334-.693-4.561-.693-6.237-.002-.962.098-1.745.284-2.216.21-.485.353-.571.61-.584.488-.024.987.353 1.354.639.32.25.604.548.839.879.197.278.237.547.638.537.348-.009.521-.306.637-.592.13-.318.297-.618.478-.909.148-.239.35-.475.329-.775zm.013-2.221l.171.107-.171-.107zm9.746-3.99a4.669 4.669 0 0 0 2.142.532c2.476-.013 4.687-1.969 6.942-3.859 2.253-1.905 4.54-3.75 6.987-3.741.036 0 .074 0 .111.002 1.319-.05 2.924-.137 4.617-.137 5.077-.005 10.785.802 11.505 5.357.107.539.159 1.033.159 1.491l-.002.148c-.037 1.941-.98 3.337-2.715 4.893l-.076-.002c-.867.016-2.049.726-3.859 2.422-3.114 2.857-4.402 10.055-5.57 15.09.062-.626.095-1.25.095-1.873 0-2.386-.496-4.74-1.788-6.994-1.46-2.194-2.998-3.14-4.323-3.146a2.442 2.442 0 0 0-1.421.442c.064-.58.095-1.11.095-1.587 0-1.216-.196-2.096-.571-2.7-.371-.606-.954-.909-1.591-.902-1.544.019-3.426 1.528-5.046 3.688-1.248 1.68-2.316 3.769-2.823 5.923-.434-2.205-1.563-4.14-3.75-4.167-.654 0-1.382.18-2.188.572-1.379.593-2.207 1.85-2.655 3.426-.19-1.29-.319-2.622-.319-3.913-.002-2.496.479-4.823 1.859-6.384.384-.435.842-.723 1.319-.964 1.285-.642 2.897-.979 2.89-3.128 0-.153-.008-.316-.024-.489zm27.474 52.176c.107.014.298.865.328.977.105.391.187.788.253 1.188.162.977.255 1.978.275 2.969.007.327.205.578.45.779.454.373.9.736 1.516.735-2.225 2.742-3.541 6.728-4.592 9.958-1.373 3.774-.507 8.207-1.787 11.614-.951 1.968-3.048 3.762-4.831 5.72l-.071-.058c-1.812-1.478-2.459-3.503-2.466-6.041-.022-6.21 4.12-14.998 4.137-22.797 0-1.926-.258-3.803-.91-5.565l-.029-.057c.041-.063.007-.03.046-.09.451-.715.85-1.283 1.489-1.389.985-.246 1.828-.37 2.556-.37 1.031.001 1.822.242 2.449.742.463.372.842.89 1.144 1.589l-.012.091a.489.489 0 0 1 .055.005zm.471-.17c1.325-10.441 7.276-17.208 12.183-26.094 3.193-6.064 5.796-15.891 12.399-18.96-6.661 8.064-15.988 26.37-17.838 29.401-2.919 4.723-4.902 9.555-4.903 14.667 0 2.267.392 4.586 1.261 6.966l-.021.024a.802.802 0 0 0-.098.095c-.058.06-.115.122-.172.184a3.138 3.138 0 0 1-.434.033c-.612 0-1.214-.511-1.406-1.092-.146-.443-.135-.977-.176-1.441-.043-.488-.1-.974-.178-1.457a13.01 13.01 0 0 0-.265-1.267 9.314 9.314 0 0 0-.168-.563c-.039-.116-.199-.378-.184-.496zm-33.364.127a7.42 7.42 0 0 0-1.178 1.084c-1.062 1.221-1.625 2.725-1.625 4.253 0 1.542.576 3.109 1.773 4.425-1.098.617-1.556 1.975-1.553 3.696.003 2.764 1.145 6.63 3.031 10.681-5.418-5.581-10.546-14.344-13.908-20.268-1.591-2.73-2.388-5.758-3.809-8.566-.1-.193-.199-.376-.296-.555l-.023-.044-.026-.035c-1.171-1.62-2.776-2.667-3.994-3.797-1.184-1.098-2.118-2.489-2.069-4.16.012-.418.438-.405.718-.598.398-.274.861-.477 1.277-.724.234-.139.461-.289.682-.448.151-.109.36-.346.551-.36a.476.476 0 0 1 .205.047c.752.305 1.493.758 2.003 1.403 1.492 1.89 1.311 5.085 2.574 7.606.51 1.015 1.277 1.913 2.484 2.535.344.034.416-.117.23-.443-1.109-.574-1.791-1.374-2.268-2.319-1.204-2.329-.999-5.528-2.603-7.657l.006-.003v-.001c-.818-1.478-1.14-2.534-1.138-3.205.022-.641.24-.934.671-1.055l-.004-.003.033-.005c.13-.034.278-.053.445-.062l.019.019c.113-.005.235-.005.353.004l.003-.004.081.01.029.004.073.011c1.153.187 2.681.977 3.801 1.965.158.126.301.239.43.351 2.833 2.385 3.265 5.14 5.188 8.617.261.118.391.01.438-.241.01-.056-.133-.244-.163-.298-.061-.115-.122-.23-.181-.347a22.863 22.863 0 0 1-.317-.649c-.191-.408-.37-.822-.544-1.238-.318-.762-.617-1.533-.972-2.278a10.936 10.936 0 0 0-1.174-1.928c-.359-.471-.744-.92-1.125-1.373-.391-.465-.786-.882-.936-1.489a4.602 4.602 0 0 1-.145-.91c-.029-.709.357-1.179.97-1.49.707-.359 1.659-.543 2.302-1.054.316-.364 1.808-1.393 3.428-2.394 1.586-.987 3.334-1.991 4.306-2.444.002.065.004.13.004.195.003 1.436-.608 3.001-1.078 4.581-.272.926-.495 1.862-.495 2.798-.004 1.231.399 2.465 1.55 3.589.256.065.383-.038.35-.355-1.058-1.045-1.397-2.107-1.401-3.234 0-.679-.015-.761.174-1.477l.111-.5c.029-.195.151-.499.2-.687.367-1.313 1.3-2.095 2.226-2.091.324.001.64.095.919.257.361.21.656.52.894.86.133.189.243.393.357.594a.14.14 0 0 0 .038.049c.088.063.23-.054.286-.114.075-.081.125-.181.173-.279.032-.067.073-.129.109-.194a13.403 13.403 0 0 1 .6-.982c.25-.367.523-.72.826-1.045.26-.28.543-.539.851-.765.271-.199.562-.372.87-.508a3.962 3.962 0 0 1 1.595-.337c2.175-.01 4.554 1.787 6.637 4.329 3.15 3.806 5.634 9.246 6.087 12.255-.004.062-.004.129-.004.194 0 .093.002.184.004.271-.001.065-.002.121.002.157.015.161.229.307.375.235.375-.185.231-.929.209-1.234-.024-.326-.045-.597-.015-.921.048-.509.118-1.015.204-1.519a31.22 31.22 0 0 1 .719-3.122c.237-.849.498-1.692.77-2.531.141-.434.284-.866.429-1.298.139-.414.343-.847.429-1.275-.822 4.084-1.122 7.711-1.122 11.674 0 2.756.144 5.674.358 9.025-.555-.126-.98-.937-1.442-1.879-.511-1.005-1.125-2.157-2.432-2.17-.154 0-.315.016-.483.051-1.32.347-1.687 1.906-2.069 3.4-.353 1.504-.733 3.002-1.514 3.399-.038.013-.066.03-.078.037a1.44 1.44 0 0 1-.219.072l-.027.007-.025.013a.79.79 0 0 1-.351.086c-.416.015-.945-.418-1.494-.971-.555-.542-1.128-1.173-1.836-1.428-2.849-.992-4.487-2.872-6.802-2.896-1.01-.001-2.107.382-3.417 1.334-.032.03-.068.057-.105.084zm6.412 11.891c-2.364-4.062-5.083-8.189-6.897-10.817.095-.095.194-.188.297-.279 2.306 3.418 4.604 7.206 6.6 11.096zM48.742 78.986c0-.483.055-.969.189-1.468.277-1.408 1.128-2.446 2.247-3.324.263-.206.54-.402.825-.592.171 2.036 1.296 3.457 2.524 4.569 1.338 1.218 2.816 2.216 3.764 3.529.088.163.174.321.254.48 1.332 2.603 2.137 5.678 3.845 8.631 3.43 6.019 8.635 14.99 14.35 20.786-2.951-1.796-6.532-6.09-9.985-10.344-4.436-5.389-8.627-10.729-11.842-10.789a2.413 2.413 0 0 0-1.319.38c-.91-2.109-1.851-3-2.897-3.015-.37.001-.721.118-1.054.314.153-.733.217-1.427.217-2.086-.006-2.81-1.127-4.931-1.118-7.071zm6.172 11.978c2.7-.06 7.077 5.199 11.455 10.607 3.897 4.747 7.826 9.6 11.203 11.007v-.001c.269.11.54.216.816.309.109.037.224.058.33.101.101.041.19.108.264.186.133.141.22.318.314.486.103.186.208.37.313.555a57.067 57.067 0 0 0 1.61 2.641 53.24 53.24 0 0 0 1.764 2.549 44.17 44.17 0 0 0 1.897 2.394c.323.38.654.753.991 1.12.331.36.67.713 1.016 1.059a29.355 29.355 0 0 0 2.096 1.902c.35.286.708.563 1.074.828.355.257.717.503 1.088.736.358.225.725.438 1.099.636l.276.143c-6.498-.988-10.281-2.748-15.243-8.267-5.096-5.933-12.106-5.473-16.794-11.441-3.119-4.161-5.563-11.757-6.494-17.307l-.037.006c.301-.17.617-.248.962-.249zm3.366-20.01c-.033-.076-.264-.169-.336-.21-.358-.203-.887-.541-1.318-.49-.212.025-.311.188-.472.303-.221.156-.448.302-.678.444-.505.31-1.025.596-1.543.884-3.501-.173-5.067-2.446-6.23-5.356-1.061-2.669-1.696-5.815-3.076-8.114l-.012-.453a13.074 13.074 0 0 1-.006-.386c0-.307.01-.583.036-.826.069-.782.251-1.28.45-1.539.204-.256.384-.337.708-.346.665-.021 1.861.612 3.161 1.682 3.54 2.867 7.984 8.473 9.945 10.615a1.534 1.534 0 0 0-.727.34c-.317.276-.487.708-.485 1.243.002.578.183 1.3.583 2.209zm18.787-20.656l.044-.266.013-.006.051-.295-.004-.01.033-.153.072-.393.022.013c.415-1.54 1.18-2.693 2.411-3.219.767-.371 1.42-.526 1.981-.526 2.299-.035 3.363 2.75 3.459 5.551l-.001.007v.013l.002.029a7.986 7.986 0 0 0-.01 1.028l-.003.038a.43.43 0 0 0 .004.042c-.024.398-.066.78-.127 1.143l-.004.023c-.011.073-.028.153-.043.242-.018.117.069.318.198.33.225.021.308-.328.338-.486.389-2.094 1.066-2.738 1.689-2.723.86-.034 2.138 1.249 3.084 2.905.882 1.6 1.223 4.153 1.22 6.61 0 1.577-.137 3.118-.341 4.352-2.073-2.437-4.422-4.219-6.787-4.229-1.867-.003-3.649 1.149-5.142 3.825-1.027-2.488-2.322-7.4-2.319-11.528 0-.779.048-1.53.148-2.232l.011-.002a.842.842 0 0 0 .008-.053l-.007-.03zm18.596.765c-.761-1.266-1.077-2.463-1.077-3.459 0-.783.195-1.439.516-1.919l-.026-.006s.454-.555.5-.537c.003.001.007.007.012.015a1.934 1.934 0 0 1 1.208-.409c1.069-.005 2.497.8 3.897 2.908 1.235 2.157 1.713 4.413 1.714 6.732 0 2.241-.45 4.539-1.092 6.847-1.355 4.896-3.578 9.823-4.108 14.433-.916-3.175-2.962-7.31-5.642-10.578l.034-.178v-.001c.237-1.31.396-2.987.396-4.714-.003-2.504-.329-5.106-1.284-6.856-1.01-1.699-2.242-3.125-3.521-3.159-.616.009-1.133.36-1.533 1.09l-.004-.12-.003-.13-.001-.02c.185-2.647 1.453-5.42 3.014-7.517 1.554-2.108 3.439-3.506 4.644-3.485.933.002 1.638.752 1.661 3.104 0 .61-.053 1.322-.168 2.14-.459.595-.717 1.412-.717 2.36 0 1.102.348 2.384 1.148 3.716.313.14.441.033.432-.257zm-2.15 35.516c.359-1.52.803-2.856 1.692-3.03.13-.026.257-.039.374-.039.934-.015 1.466.868 1.984 1.895.515.986.96 2.134 2.08 2.171.029 0 .059 0 .088-.002.852-.051 1.434-.451 1.873-.941.46 1.463.653 3.024.653 4.65.015 7.481-4.115 16.215-4.137 22.797a12.28 12.28 0 0 0 .14 1.938c-1.149-2.729-1.833-6.253-2.403-9.894-.96-6.03-1.631-12.347-3.908-15.957.936-.701 1.208-2.199 1.564-3.588zm1.851 19.622c.768 4.798 1.675 9.45 3.728 12.425a7.117 7.117 0 0 0 1.858 2.264l.05.041c-.114.138-.225.277-.333.416-6.064-5.441-6.05-20.3-8.239-29.155 1.498 3.585 2.13 8.891 2.936 14.009zm13.608-29.034c0-4.215.506-8.44 2.485-11.979.549-.982 1.241-1.905 1.94-2.785a44.048 44.048 0 0 1 2.206-2.543c.763-.822 1.544-1.626 2.32-2.435a75.401 75.401 0 0 0 2.289-2.475 32.458 32.458 0 0 0 2.115-2.663 22.568 22.568 0 0 0 1.796-2.999c.147-.298.287-.599.419-.903.131-.302.294-.617.389-.931a.224.224 0 0 0 .01-.125c-.068-.233-.479-.421-.673-.531-.351-.201-.758-.334-1.147-.447-.619-.18-1.263-.253-1.905-.283a15.803 15.803 0 0 0-.533-.015c-.615-3.612-1.689-6.051-1.684-8.659.001-1.609.397-3.303 1.569-5.431 3.67 2.599 5.25 6.427 5.253 10.46.001 3.661-1.316 7.48-3.58 10.629-2.66 3.861-6.412 6.843-8.698 11.55-2.995 6.228-2.101 12.587-4.326 18.653-.126-1.972-.245-4.027-.245-6.088zm11.53-30.617c1.449-.001 2.8.236 3.819.925-2.844 7.206-9.376 10.939-13.297 17.464-2.047 3.666-2.552 7.977-2.552 12.229 0 2.287.146 4.56.282 6.709-.655-.386-1.438-.566-2.345-.565-.784 0-1.666.132-2.661.381-.72.133-1.163.645-1.542 1.204a18.516 18.516 0 0 1-1.123-6.327c-.017-9.413 7.184-17.325 8.414-26.264.263-2.296.275-3.647.319-4.4.018-.374.058-.598.099-.666.039-.051-.004-.043.165-.057.066 0 .155.007.264.021.431.053 1.16.188 2.292.187.462 0 .991-.022 1.601-.079 1.731-.222 4.075-.749 6.234-.761l.031-.001zm-10.267.14a2.082 2.082 0 0 0-.154-.006c-.224-.015-.502.09-.61.327-.278.617-.066 1.799-.469 5.234-1.162 8.719-8.399 16.659-8.417 26.325 0 2.189.377 4.465 1.283 6.85-.068.106-.136.213-.208.314-.076.112-.152.22-.231.323l-.018.007.004.012c-.373.486-.798.858-1.462.971-.215-3.356-.359-6.268-.359-9.011.001-5.488.576-10.296 2.331-16.628a74.88 74.88 0 0 1 .565-1.966c1.466-4.628 2.638-14.679 6.233-17.905 1.768-1.68 2.952-2.305 3.519-2.289.048 0 .091.004.131.012.328.053.509.364.52 1.057.01 1.571-1.164 4.478-2.658 6.373zm-66.43 11.695c.047.022.087.036.092.04l.211.101c1.376 2.192 2.03 5.401 3.127 8.187 1.078 2.754 2.68 5.154 5.926 5.603-.185.105-.371.212-.556.323l-.002.001.009.001-.632.369v.013c-.323.206-.639.422-.942.651-2.109-1.801-5.02-3.355-6.256-5.482-1.997-3.343-.386-7.193-3.384-10.614.716.148 1.54.424 2.407.807zm4.67 30.78c-.681.776-1.298 1.762-1.86 2.695-.832 1.41-1.641 2.73-2.008 2.838-1.013.466-1.812.662-2.437.662-1.73.006-2.347-1.483-2.685-3.563-.323-2.054-.288-4.519-.823-6.141l-.055-.168c2.64 2.23 5.712 3.708 8.911 3.722.317 0 .637-.015.957-.045zm32.575 36.314c-7.282-3.827-13.455-8.521-20.819-12.774-3.756-2.204-4.855-3.4-5.269-4.859-.439-1.486-.146-3.572-.778-7.304-.464-2.664-1.234-4.183-2.405-5.365-1.15-1.163-2.593-1.99-4.487-3.472.614-1 1.284-1.997 1.967-2.64l.008-.002-.001-.005.002-.002c.023-.018.025-.025.026-.023.045-.039.068-.061.08-.072l.062.022c.013-.036.022-.069.03-.1.438-.363.79-.502 1.173-.501.354.001.631.105.917.333.516.411.911.988 1.17 1.574.279.632.549 1.226.712 1.907.191.798.287 1.617.451 2.418.196.959.415 1.914.661 2.862a44.37 44.37 0 0 0 1.844 5.631c.718 1.76 1.571 3.472 2.622 5.058.215.324.43.658.675.961 5.134 6.356 12.187 5.908 16.832 11.485 5.136 5.772 9.357 7.656 16.166 8.655l-.786.029a16.514 16.514 0 0 1-1.733-.187c-3.161-.509-6.134-1.869-9.12-3.629zm6.365-13.401c-.012-1.021.45-2.183.594-3.435 1.257 3.868 1.994 7.616 3.381 11.071.943 2.36 2.218 4.581 4.169 6.544-1.984-1.439-3.209-3.433-4.89-6.286-.913-1.893-3.062-5.324-3.14-7.015l-.004-.05-.013-.047a3.052 3.052 0 0 1-.097-.782zm13.885 10.083c.253-.33.518-.66.803-.983l.033-.036c1.76-2.013 4.101-3.9 5.262-6.263l.011-.022.008-.021c1.385-3.799.51-8.246 1.806-11.665 1.134-3.53 2.616-7.852 5.01-10.322a.88.88 0 0 1 .08-.077l.067-.072c1.218-1.205 2.644-1.945 4.436-1.947 1.155 0 2.479.313 4.003 1.061a6.916 6.916 0 0 1-.143 1.231c-1.012 5.164-7.556 11.771-10.028 16.086-1.936 3.185-6.776 12.616-10.319 16.962-.548.691-1.157 1.378-1.89 1.879a.24.24 0 0 1-.074.039c-.057.014-.117-.015-.156-.059-.193-.217-.24-.681-.293-.956a5.226 5.226 0 0 1-.097-.991c-.002-1.392.581-2.629 1.481-3.844zm12.209-12.526c2.326-4.151 8.972-10.726 10.146-16.396.113-.545.154-1.085.218-1.635a.673.673 0 0 0-.035-.345c-.064-.145-.257-.204-.392-.264-.463-.205-.92-.426-1.394-.604a10.313 10.313 0 0 0-1.857-.516 8.074 8.074 0 0 0-1.38-.123c-1.884-.004-3.466.733-4.758 1.88a6.441 6.441 0 0 1-.073-.983c-.009-3.518 2.61-8.04 6.017-11.072 2.303-2.061 4.956-3.437 7.337-3.433a5.554 5.554 0 0 1 2.416.538c.399.193.773.437 1.116.719.231.19.471.375.663.605.132.158.26.612.507.607.22-.005.15-.56.144-.686-.018-.411.129-.802.248-1.192a10.57 10.57 0 0 1 1.008-2.301c.757-1.28 1.896-2.565 3.412-2.894.243-.053.49-.075.739-.075.395 0 .805.067 1.236.216-.535 2.948-2.279 5.251-4.441 7.443-3.921 3.99-9.227 7.57-10.617 14.045a.576.576 0 0 0-.014.099c-.975 5.614-2.833 11.672-5.57 17.09-1.271 2.516-2.738 4.899-4.39 7.035-.38.481-.806.936-1.264 1.364-2.142 1.983-5.051 3.406-7.418 5.205 3.254-4.857 6.818-11.739 8.396-14.327zm19.632-28.608c-5.436 8.803-7.765 21.021-14.108 28.741 2.543-5.257 4.279-11.036 5.216-16.44l.005-.042c1.157-5.441 5.223-8.814 8.887-12.259zm13.464-22.979c.816-.001 1.881-.226 3.519-.634.024.347.037.693.037 1.035 0 2.534-.667 4.939-1.873 6.97-1.88 3.203-5.075 5.472-9.1 5.862a4.335 4.335 0 0 0-1.597-.317c-3.103.035-5.225 3.517-5.869 6.539-1.274-1.293-2.797-1.862-4.385-1.858-2.574.004-5.308 1.451-7.67 3.559-3.297 2.951-5.882 7.202-6.158 10.831a19.32 19.32 0 0 1-.651-4.953c0-4.979 1.934-9.722 4.829-14.407 1.931-3.174 11.839-22.614 18.451-30.111.508-.576.993-1.081 1.453-1.499 1.003-.92 1.881-1.408 2.491-1.4.175 0 .33.036.476.108 1.145.601 1.555 1.442 1.564 2.496.027 3.221-4.329 8.146-5.772 9.747-.057.064-.107.12-.152.173-1.312 1.521-2.55 3.114-3.758 4.718a103.861 103.861 0 0 0-6.469 9.676 111.38 111.38 0 0 0-2.815 5.072 128.463 128.463 0 0 0-2.618 5.32 142.517 142.517 0 0 0-1.292 2.86c-.11.25-.405.66-.264.934a.195.195 0 0 0 .098.098c.051.018.108 0 .158-.021.207-.087.253-.323.336-.513l.31-.705a144.666 144.666 0 0 1 1.901-4.12 120.327 120.327 0 0 1 2.672-5.235c.918-1.693 1.88-3.363 2.888-5.005a102.51 102.51 0 0 1 3.167-4.846 105.169 105.169 0 0 1 3.509-4.758 113.244 113.244 0 0 1 2.554-3.15l.116-.131.052.094c1.471-.81 2.48-1.125 3.143-1.122.972.009 1.301.606 1.615 1.627.293 1.004.45 2.316 1.056 3.407.11.201.24.401.394.588.331.445.613.847.868 1.198.736 1.02 1.263 1.65 2.205 1.825.182.034.373.048.581.048zm15.717-18.737c0 .346-.057.683-.181 1.009-.294.846-2.128 1.81-4.136 2.66-2.01.871-4.173 1.687-5.244 2.597-2.618 2.692-5.719 8.064-6.868 11.88-.578-.179-.973-.622-1.603-1.482-.026-.309-.04-.614-.04-.915-.008-5.567 4.397-9.919 8.702-13.186 2.381-1.864 4.709-4.716 7.028-6.818 1.292 1.184 2.351 2.805 2.342 4.255zm-2.722-4.586c-2.342 2.134-4.656 4.958-6.953 6.753-4.325 3.29-8.888 7.727-8.895 13.581l.002.168a45.241 45.241 0 0 0-.408-.557 3.285 3.285 0 0 1-.289-.414h.008v-.001c.147-7.298 10.119-16.505 16.352-19.679l.183.149zm-23.107-5.576c.013-.214.018-.408.018-.597 0-.675-.073-1.288-.211-1.848 3.393-.07 9.307-3.681 12.491-3.659.384 0 .719.052.999.159 1.289.471 1.658 1.645 1.667 3.229.002 2.011-.653 4.509-.657 6.376 0 .139.004.275.014.41l.017.269.268-.039c1.049-.162 4.411-1.464 5.822-1.456.448.02.488.089.488.176.007.107-.098.387-.4.784-.301.407-.795.938-1.514 1.62-.083.31.063.401.344.362.659-.624 1.137-1.128 1.468-1.548.492.145 1.078.445 1.668.858-6.105 3.233-15.408 11.678-16.339 19.085-.281-.807-.43-1.703-.654-2.486-.281-1.043-.822-1.998-2.095-1.987-.642.002-1.439.223-2.486.722 1.813-2.079 5.197-6.173 5.222-9.308.009-1.196-.541-2.281-1.838-2.942a1.567 1.567 0 0 0-.702-.161c-.857.008-1.781.583-2.824 1.526l-.046-.241a5.25 5.25 0 0 1-.987.107c-1.378-.032-1.712-.689-1.752-1.881-.01-2.311 1.836-6.04 2.019-7.53zm-16.266-8.288c1.039-2.191 2.219-3.907 3.383-4.448.514-.239.918-.336 1.237-.336 1.383-.078 1.719 2.032 3.614 3.549 3.109 2.514 6.368 3.764 7.274 6.916.179.591.275 1.253.275 2.011 0 .179-.005.364-.015.554-.132 1.284-2.015 5.073-2.022 7.573 0 .655.129 1.248.495 1.692.367.444.954.688 1.744.688h.013c.216 0 .449-.017.7-.052a21.88 21.88 0 0 0-1.122 1.183c-7.611 2.761-10.232 13.34-13.543 19.547-4.749 8.615-10.607 15.338-12.138 25.537a4.177 4.177 0 0 0-.785-.968c2.708-6.501 1.58-13.15 4.654-19.489 2.218-4.585 5.934-7.545 8.657-11.479 2.317-3.226 3.669-7.136 3.671-10.917.002-4.244-1.493-8.309-5.47-11.003 0 0-.264-.218-.452-.179-.161.034-.213.241-.27.37-.125.28-.281.543-.422.815-.156.311-.302.628-.434.951a10.415 10.415 0 0 0-.547 1.742 10.728 10.728 0 0 0-.228 2.275c.005 2.732 1.077 5.158 1.678 8.663-2.142.054-4.38.552-5.994.758-.585.055-1.099.077-1.545.077a12.773 12.773 0 0 1-1.829-.13c1.468-1.984 2.579-4.737 2.586-6.446.009-.578-.143-1.113-.529-1.384 1.628-1.5 2.611-2.995 2.667-4.992l.031.012c.925-2.388 2.55-8.668 4.666-13.09zm-37.613-7.542c1.06.002 2.169.413 3.295 1.459.886.881 1.757 5.827 1.735 9.332.002 1.325-.118 2.466-.358 3.097l-.076.127c.015.436.181.458.428.258v-.001l.027-.043.019.01a.858.858 0 0 0 .056-.135c1.582-2.637 1.721-5.712 1.722-8.767 0-.71-.009-1.418-.009-2.12 0-.922.014-1.844.079-2.764.074-1.054.217-2.109.506-3.128a9.162 9.162 0 0 1 1.311-2.802 8.672 8.672 0 0 1 1.147-1.311 9.67 9.67 0 0 1 .663-.567c.066-.051.491-.5.668-.475s.295.447.358.885c0 0-.036.367.179.429.239.069.417-.548.507-.692.178-.287.405-.539.622-.796.406-.482.859-.938 1.378-1.3.389-.272.86-.529 1.35-.515.084 0 .167.007.25.021.345.062.612.282.802.57.144.217.247.461.331.707.052.151.095.305.135.459.044.167.027.323.036.494.006.102.02.286.149.309.187.033.247-.203.312-.325.083-.156.223-.274.352-.39.178-.16.371-.304.579-.423.36-.206.77-.338 1.188-.336.553.002 1.105.218 1.616.713-.619 1.164-1.074 2.467-1.075 3.741 0 .367-.051.761.034 1.118 0 0-.002.303.17.304.219.001.497-.276.497-.276 2.823-1.73 6.104-3.95 8.434-3.934 1.61.019 2.738.988 2.935 4.403.004.143.005.297.005.455 0 1.01-.077 2.172-.077 3.336-.038 3.057.602 6.326 4.721 6.547-1.8 3.887-3.228 8.989-4.148 11.735a9.923 9.923 0 0 0-.099-.598c-.877-5.032-6.935-5.762-11.997-5.767-1.709 0-3.322.088-4.616.138-.024-.003-.068-.003-.112-.003-2.709.009-5.053 1.964-7.31 3.859-2.254 1.909-4.431 3.753-6.619 3.741-.753-.001-1.287-.26-2.094-.762 0 0-.428-.477-.7-.239-.272.239.117.766.117.766.057.347.059.427.059.691-.007 1.673-1.011 1.92-2.295 2.527-.333-2.804-1.245-4.623-1.24-6.926.001-.888.131-1.856.481-2.996.799-2.658 1.421-4.807 1.422-7.03 0-1.687-.364-3.408-1.268-5.394 1.031-.864 2.206-1.416 3.418-1.416zm-3.435 22.958c-.808-1.45-1.083-2.948-1.084-4.507 0-.216.005-.432.015-.65.17 1.737.742 3.239 1.069 5.157zm-.377-21.197c.834 1.874 1.159 3.471 1.16 5.047 0 1.842-.451 3.665-1.091 5.846.315-1.671.607-3.364.609-5.053 0-1.759-.323-3.521-1.279-5.228.193-.214.394-.419.601-.612zm-3.155 5.453l.04.051.055-.227.075-.135-.037-.021.029-.118c.305-1.251 1.04-2.733 2.048-3.984.837 1.568 1.123 3.177 1.125 4.82.005 3.567-1.381 7.275-1.386 10.851-.001 1.916.409 3.806 1.669 5.578-.436.237-.874.536-1.253.966-1.502 1.711-1.982 4.161-1.983 6.715 0 .831.052 1.675.138 2.51-1.325-2.831-2.103-4.462-2.547-6.988 0-.278-.131-.714-.111-.999l-.018-1.255c.296-5.341-.324-13.054 2.156-17.764zm-12.524-2.076c.674-1.041 1.481-1.767 2.267-1.753.584-.001 1.269.368 2.037 1.453l.206.291.204-.293c.877-1.254 1.741-1.683 2.585-1.687 1.751-.025 3.639 2.027 4.89 3.636-2.557 4.656-2.072 11.968-2.279 17.284-.7 1.822-1.14 2.429-1.896 3.515-1.008-.92-1.807-1.386-2.599-1.407-.756-.013-1.309.555-1.543 1.224-.258.679-.348 1.547-.35 2.574 0 1.13.117 2.453.308 3.871-.602-.862-1.367-1.658-2.184-2.37.049-.959.069-1.862.069-2.723-.001-4.233-.488-7.517-.559-12.077.009-.191.013-.398.013-.608-.004-3.455-1.173-7.584-1.169-10.752 0-.06 0-.121.002-.177l-.002-.001zm-1.43 2.903l.036.009v-.001l.002-.01.025-.07.035-.039-.008-.006-.007-.008c.223-.612.516-1.3.861-1.948.136 3.16 1.158 6.968 1.154 10.101 0 .203-.004.404-.013.6.072 4.612.559 7.895.559 12.085 0 .74-.016 1.51-.05 2.32l-.046-.037c-1.279-3.859-1.864-5.888-1.864-8.625 0-1.423.159-3.044.469-5.21.087-.577.123-1.109.123-1.607-.008-2.776-1.106-4.45-1.101-7.465l.002-.008-.002-.028-.001-.032h-.128l.123.026-.177-.037.008-.01zm-3.212 7.057a3.56 3.56 0 0 0 .067-.477l.008-.002c-.002-.003-.003-.013-.006-.031.093-1.073.053-2.936.205-4.533.076-.805.205-1.542.409-2.048.214-.518.452-.737.746-.734.282-.006.762.224 1.4.879.018.016.036.035.056.056.025 3.104 1.109 4.796 1.101 7.387 0 .474-.035.981-.117 1.535-.312 2.178-.476 3.822-.476 5.282 0 2.647.54 4.667 1.66 8.084-.029-.089-.314-.243-.393-.309-.13-.108-.255-.221-.385-.329-.225-.186-.494-.43-.762-.548-.129-.057-.285-.071-.408-.002-.149.083-.214.261-.267.423-.079.242-.18.472-.261.713-.033.097-.263.603-.232.658-1.929-3.52-2.651-7.448-2.652-11.382.001-1.549.114-3.099.307-4.622zm-20.283 9.936c-.13-.796-.795-2.555-.793-3.901.039-1.043.289-1.676 1.517-1.704.243 0 .525.03.849.096.093.966.394 1.874.967 2.605l.394-.307c-.536-.681-.814-1.563-.88-2.531a7.4 7.4 0 0 1-.015-.473c-.001-1.575.509-3.296 1.239-4.605.725-1.319 1.691-2.176 2.434-2.157.507 0 1.043.352 1.517 1.412a14.798 14.798 0 0 0-.377 3.222c0 .63.051 1.191.17 1.626l.483-.131c-.1-.365-.153-.895-.153-1.495 0-.987.136-2.167.383-3.188l.013-.058.016-.007a.123.123 0 0 1-.009-.021c.32-1.38.94-2.377 1.333-2.305.221-.015.63.256 1.091 1.139.112.209.228.453.346.734l.461-.194a9.73 9.73 0 0 0-.296-.641c.334-1.279.838-1.618 1.425-1.627 1.181-.032 2.991 1.696 3.9 2.839l.194-.158.211.135v-.001c.435-.673.933-.919 1.417-.922.872-.011 1.821.89 2.012 2.196a3.31 3.31 0 0 1-.058.403 37.152 37.152 0 0 0-.314 4.708c0 4.116.778 8.256 2.908 11.969-.661 1.649-1.187 3.417-1.451 5.183a11.604 11.604 0 0 0-1.117-2.217c-.266-.414-.519-.913-.819-1.316-.166-.222-.553-.837-.89-.807-.199.018-.261.167-.353.315-.068.109-.936 1.083-.91 1.118-3.228-4.365-6.547-6.513-9.474-6.521-2.433-.004-4.513 1.519-5.887 4.345a4.936 4.936 0 0 1-.415-.865c-.712-1.875-.889-4.715-1.069-5.893zM24.737 51.701a8.594 8.594 0 0 1-.483-2.881c0-1.799.52-3.593 1.445-4.918.927-1.327 2.228-2.183 3.834-2.185.916 0 1.943.281 3.07.94l.204.121.131-.199c.7-1.061 1.494-1.46 2.282-1.462 1.424-.014 2.96 1.413 3.565 3.295.044.142.086.282.118.421l.061-.014c.138.303.295.58.475.819-.606 1.391-1.06 3.07-1.336 5.022l-.017.115.079.088c1.59 1.755 3.839 3.888 5.494 5.675l-.012.114c-.019.18-.03.37-.036.569-1.152-.457-2.22-.734-3.142-.77a4.376 4.376 0 0 0-.204-.005c-.674.001-1.291.143-1.765.529-.478.387-.726 1.005-.721 1.716.003.624.167 1.343.505 2.193a6.456 6.456 0 0 0-.916-.23 3.936 3.936 0 0 0-.664-.06c-.827-.013-1.518.343-1.895.931-.381.581-.5 1.304-.502 2.099.01 2.988 1.784 7.408 2.21 9.205 1.792 7.268 5.61 11.599 11.479 15.869a9.6 9.6 0 0 1-.479.012c-8.009.038-15.547-10.014-16.584-17.169a7.756 7.756 0 0 1-.053-.413 11.93 11.93 0 0 1-.025-.798c-.002-2.103.438-4.603.44-6.849 0-.913-.073-1.786-.285-2.578-1.305-4.168-5.138-5.689-6.273-9.202zm13.76 33.695l-.203.126c-.339.208-.77.382-1.27.537-4.189-2.729-5.41-7.56-6.251-12.825 1.087 4.188 3.959 8.937 7.724 12.162zM21.157 60.85c0-.131.005-.268.017-.41.026-.544.676-1.333 1.369-2.208.589-.761 1.324-1.52 1.509-2.496l.083.083c4.421 3.818 4.994 9.81 5.894 15.853.854 5.727 1.825 11.349 6.362 14.56-.327.081-.675.156-1.038.227-3.791-4.477-10.228-15.703-11.884-20.785-.41-1.376-1.139-2.066-1.642-2.764-.388-.55-.667-1.088-.67-2.06zm12.614 24.409c-5.497-4.688-12.28-14.423-12.257-21.056 0-.282.013-.558.037-.827.517.679 1.089 1.277 1.439 2.446 1.543 4.697 6.912 14.256 10.781 19.437zM17.185 68.338c-.759-1.74-1.302-3.684-.852-5.528a.392.392 0 0 1 .093-.198c.084-.079.224-.069.322-.008.211.105.374.361.552.515.423.368.874 1.027 1.432 1.176.199.053.368-.1.527-.196.162-.098.341-.181.514-.259.369-.166.764-.285 1.172-.285l.092.002a9.782 9.782 0 0 0-.022.645c.025 7.437 7.869 18.082 13.619 22.38-1.308.22-2.764.397-4.183.633-2.994-3.761-6.873-7.215-9.701-11.193-.815-2.701-2.435-5.092-3.565-7.684zm1.078 4.539a24.298 24.298 0 0 0 2.018 3.349l.038.14.052-.014c2.815 3.944 6.597 7.34 9.518 10.963-2.295.423-4.436 1.025-5.644 2.358-.065.074-.127.15-.186.228-2.122-1.895-3.64-4.387-4.833-6.973-1.035-2.245-1.849-4.583-2.76-6.882.28-1.451.573-2.37 1.797-3.169zM16.13 91.138c-2.382-3.061-4.432-6.491-5.654-10.185-.542-1.637-.926-3.357-.951-5.087-.01-.723.286-.531.878-.404a11.007 11.007 0 0 0 3.556.173c.143-.016 1.691-.306 1.683-.326 1.093 2.695 2.011 5.464 3.251 8.095 1.211 2.57 2.757 5.034 4.893 6.904a3.646 3.646 0 0 0-.462 1.835c0 .668.147 1.414.457 2.255-.95.798-1.564 1.685-1.894 2.623-2.179-1.671-4.076-3.721-5.757-5.883zm14.329 20.397c-2.835-2.749-8.4-8.19-8.373-12.692 0-.475.059-.939.189-1.389a4.91 4.91 0 0 1 .859-1.65c.191-.245.4-.474.622-.691.173-.169.529-.303.587-.568.036-.168-.091-.393-.149-.551-.076-.209-.156-.418-.21-.634a5.032 5.032 0 0 1-.16-1.215c.002-.685.171-1.242.475-1.72l.075-.108.028.062c.94 2.367 1.643 4.612 2.552 6.763 2.338 6.934 4.17 12.401 13.46 14.937 8.487 2.342 13.653 9.453 22.93 12.043 3.866 1.111 7.998 3.806 12.03 5.06-14.522-.863-28.833-4.14-39.873-12.964a46.843 46.843 0 0 1-5.042-4.683zm-1.525 51.042c-.006-.014-.005-.029.012-.043l-.012.043zm.154-.828c-.155.136-.309.271-.463.404-1.36-1.557-1.923-3.651-1.923-5.957-.003-3.844 1.624-8.127 3.574-11.355 0 0 .181-.255.118-.391s-.313-.164-.313-.164c-1.685-.513-1.971-1.137-2.139-1.915-.034-1.276 1.731-3.064 3.961-4.52 2.183-1.449 4.72-2.587 5.964-2.766.786.213 1.55.437 2.274.686 5.201 1.935 9.722 4.751 15.334 4.861-11.028 2.211-18.483 14.149-26.387 21.117zm.579.151c8.333-7.5 16.143-20.027 27.775-21.053.157-.013.314-.026.472-.037l-.021-.325c7.087-1.174 13.351-5.319 20.706-5.96 2.418-.232 4.612-.195 6.697-.398-9.501 2.89-21.794 6.032-30.539 8.853-10.676 3.397-18.329 12.516-25.535 20.695.038-.387.237-1.161.445-1.775zm44.173-17.576c-6.053 2.321-11.618 2.284-17.251 7.394-4.308 4.117-5.105 13.969-10.755 15.685 2.86-18.933 22.807-21.423 37.286-29.897-3.06 2.845-4.964 4.968-9.28 6.818zm11.586-8.857l-.009-.01-.095.081c-14.382 9.744-36.995 11.324-40.017 32.025a6.362 6.362 0 0 1-1.717.244c-2.191-.007-3.759-1.23-3.763-2.837-.001-1.005.619-2.122 2.203-3.391 0 0 .261-.117.311-.378.055-.287-.469-.323-.642-.299-.383.051-.759.073-1.136.169-.415.105-.82.251-1.218.408-.986.389-1.941.856-2.898 1.311l-.497.236c-2.151 1.031-4.391 2.044-5.649 2.035-.615-.025-.909-.167-1.038-.67 7.31-8.295 14.995-17.556 25.651-20.936 9.355-3.019 22.816-6.413 32.558-9.478a35.861 35.861 0 0 1-2.044 1.49zm3.235-2.766l-.624.232c-3.041 1.019-5.583.726-9.483 1.095-7.682.686-14.076 5.015-21.196 6.036-.523.049-1.048.072-1.563.072-5.584.004-10.118-2.826-15.488-4.835-.727-.25-1.48-.472-2.254-.682l-.003-.055-.002-.001c-.042.003-.094.006-.153.013-4.311-1.146-9.279-1.976-12.674-4.491 1.292-.781 2.561-2.143 4.052-2.399 0 0 .389.028.443-.09.054-.117-.221-.41-.221-.41-.652-1.031-.95-2.325-.95-3.771-.001-1.732.46-3.538 1.309-4.889.853-1.354 2.062-2.24 3.604-2.241.548 0 1.142.112 1.786.365 12.005 9.562 27.758 12.629 43.423 13.186 1.473.055 2.948.085 4.418.092.483.002.967.005 1.45.005 1.463 0 2.92-.019 4.372-.054a17.703 17.703 0 0 0 3.803.437c-1.346 1.197-2.679 1.924-4.049 2.385zM78.432 188.06c-.812 1.716-1.412 3.766-2.239 5.343-.847 1.591-1.792 2.596-3.34 2.598-.3 0-.628-.037-.99-.122-2.553-.409-4.524-3.519-5.782-7.191-1.269-3.648-1.869-7.748-2.001-9.847a36.853 36.853 0 0 1-.147-3.306c0-6.75 1.852-13.371 5.48-19.255 4.849-8.559 13.91-16.55 22.493-22.836-3.079 3.093-5.799 6.757-6.895 9.917-.75 1.974-2.137 4.662-2.145 6.839 0 .222.015.44.048.654.177.975.86 1.654 1.461 2.232.616.573 1.124 1.073 1.132 1.496.058.434.083.854.083 1.28.02 5.57-4.529 11.881-4.546 17.918-.004 2.324.694 4.617 2.593 6.767-2.151 1.921-3.704 4.456-5.205 7.513zm5.585-7.841c-1.826-2.074-2.47-4.215-2.473-6.439-.017-5.804 4.527-12.105 4.547-17.918 0-.446-.028-.889-.086-1.329-.064-.73-.698-1.234-1.285-1.808-.6-.57-1.179-1.181-1.313-1.953a3.737 3.737 0 0 1-.041-.572c-.008-1.974 1.339-4.659 2.114-6.668 1.128-3.286 4.167-7.245 7.501-10.443-2.709 3.134-5.167 6.936-6.025 10.169-.523 1.585-.73 2.861-.73 3.971.012 3.121 1.586 4.819 2.113 8.755.025.301.038.614.038.923.021 5.744-4.491 10.65-4.518 15.746-.004 1.962.7 3.943 2.584 5.944a13.754 13.754 0 0 0-2.426 1.622zm14.202-3.205c-1.673-.066-3.369-.187-4.844-.187-.95 0-1.809.049-2.535.21-1.471.318-2.772.761-3.928 1.323-1.889-1.966-2.547-3.831-2.55-5.709-.026-4.804 4.497-9.754 4.518-15.746 0-.323-.013-.649-.041-.978-.563-4.078-2.121-5.791-2.109-8.7 0-1.047.195-2.266.71-3.829.424-1.619 1.176-3.148 2.019-4.587a36.012 36.012 0 0 1 3.268-4.642 39.31 39.31 0 0 1 1.853-2.102c.587-.62 1.187-1.283 1.854-1.818.209-.168.476-.477.77-.463.027.001.056.007.073.029.011.014.014.032.017.049.121.726-.042 1.469-.243 2.166-.229.793-.53 1.564-.83 2.332-.264.676-.533 1.351-.765 2.039-.198.589-.312 1.171-.433 1.776a22.383 22.383 0 0 0-.438 4.389c0 2.387.385 4.707 1.04 7.157 1.326 5.302 3.357 9.721 3.354 15.098 0 .455-.015.918-.045 1.391-.03 3.259-.724 6.713-.725 10.056-.003.25.002.498.01.746zm8.585-5.021c-.001 1.513-.341 2.779-1.211 3.649-.906 1.065-3.086 1.428-5.588 1.412-.422 0-.852-.008-1.286-.022a21.532 21.532 0 0 1-.013-.763c-.001-3.274.692-6.726.724-10.037.03-.47.045-.944.045-1.41-.001-5.509-2.062-9.974-3.369-15.223-.648-2.424-1.024-4.698-1.024-7.031 0-1.402.136-2.826.433-4.317.171-2.006 2.302-5.536 2.318-7.895 0-.118-.006-.233-.017-.346 5.777 3.564 6.633 10.047 6.639 17.106 0 2.81-.137 5.689-.137 8.463 0 .313.001.626.005.938.027 1.987.141 3.907.448 5.705.444 2.458 2.04 6.537 2.033 9.771zm20.492-5.968c-.836-.004-1.543-.304-2.108-1.015-.043-.05-.077-.098-.116-.151l.002-.004c.037-.093-.024-.273-.116-.316-.118-.055-.255.016-.311.116a16.58 16.58 0 0 1-.303.516c-.488.796-1.125 1.504-1.789 2.156a19.16 19.16 0 0 1-2.539 2.088c-.889.613-1.833 1.16-2.834 1.573-.843.347-1.753.617-2.673.609-.255 0-.501-.021-.733-.066-4.384-.862-7.21-9.182-8.43-14.053a71.077 71.077 0 0 1-.027-1.901c0-2.742.138-5.621.138-8.463 0-1.763-.049-3.528-.233-5.282-.177-1.687-.478-3.369-1.004-4.985-.506-1.558-1.228-3.05-2.214-4.363-.914-1.219-2.033-2.223-3.286-3.082.206.107.486.011.689-.055.06-.02.634-.213.588-.267.593.709 1.169 1.363 1.937 1.895.697.483 1.465.855 2.258 1.152 1.106.415 2.257.691 3.4.986 2.829.729 5.62 1.542 7.686 4.569 4.183 6.115 4.005 11.012 11.594 14.157 3.367 1.486 6.693 2.632 9.8 4.607-1.46 4.917-6.235 9.618-9.376 9.579zm9.835-12.526c0 .81-.118 1.644-.331 2.478-3.165-2.012-6.387-3.119-9.733-4.596-7.363-3.047-7.099-7.686-11.376-13.98-2.167-3.182-5.147-4.046-7.975-4.771-2.475-.635-4.828-1.173-6.602-2.996 3.079 1.212 7.303.513 10.157 1.573 5.174 1.879 5.455 5.01 7.621 9.428 4.103 8.112 10.036 10.301 18.161 11.755.051.363.078.733.078 1.109zm3.294-17.074c.007 3.724-2.325 8.198-5.71 11.831.024.021.355.289.388.325a6.364 6.364 0 0 1 1.854 3.284c-8.003-1.468-13.61-3.571-17.617-11.451-2.103-4.29-2.503-7.731-7.899-9.675-3.246-1.16-7.833-.339-10.678-1.796.681-.377 1.359-1.055 2.103-1.936 2.088.581 4.201.788 6.321.788 5.434-.005 10.925-1.347 16.315-1.342 2.151 0 4.285.211 6.398.797 2.234.609 3.964 1.466 5.258 2.484 2.29 1.807 3.26 4.113 3.267 6.691zm25.384-8.741c.005 2.319-1.917 4.489-4.612 5.411-1.087.357-2.677.526-4.52.525-5.727.012-13.945-1.627-17.814-3.69a10.407 10.407 0 0 0-1.087-.979c-1.421-1.117-3.277-2.026-5.611-2.663-2.219-.614-4.447-.832-6.664-.832-5.55.004-11.045 1.346-16.315 1.341-1.911 0-3.79-.173-5.636-.64.144-.187.289-.381.436-.581 3.278-2.441 5.037-2.726 7.751-5.217.048-.045.415-.249.472-.278.111-.056.256-.13.361-.167.639-.222 1.016-.36 1.661-.562.606-.19 1.199-.42 1.778-.68 1.232-.554 2.401-1.242 3.515-2.002a35.648 35.648 0 0 0 3.37-2.63c.147-.128.293-.258.438-.388l.007-.006a7.139 7.139 0 0 0 1.919.271c3.5-.027 5.658-2.665 8.912-2.689.206-.013.392-.02.573-.02 4.787-.023 5.853 4.219 9.312 6.204 5.869 3.601 13.692 1.024 19.994 6.597l.023-.026c1.228 1.217 1.736 2.491 1.737 3.701zm-1.592-4.191c-6.535-5.551-14.4-3.041-19.907-6.511-3.223-1.759-4.41-6.249-9.566-6.273-.193 0-.391.006-.594.02-3.521.08-5.68 2.715-8.891 2.687-.466 0-.957-.052-1.482-.174.466-.434.922-.876 1.368-1.325l.159-.16c3.955-.591 7.102-3.1 10.736-3.084.718 0 1.456.094 2.231.32 4.034 1.034 6.126 6.162 10.282 7.952 6.473 2.321 12.292-.062 17.094 6.35-.508.048-.991.11-1.43.198zm14.569-16.603a7.921 7.921 0 0 1-2.368-.356h-.007l-.003-.001v.001c-.246 0-.338.143-.356.354l.036.051c1 1.326 1.543 2.885 1.541 4.353-.009 2.155-1.132 4.101-3.767 4.944 0 0-.167.264-.056.43s.167.167.167.167c2.034.131 2.546.651 2.542 1.286.029.973-1.378 2.566-2.776 3.648-1.62 1.254-4.861 1.285-7.507 1.48-5.05-6.968-11.238-4.466-17.493-6.766-3.904-1.612-5.989-6.781-10.332-7.968a8.384 8.384 0 0 0-2.365-.339c-3.638.015-6.649 2.255-10.143 2.976 2.148-2.238 3.991-4.57 5.316-6.532.965-1.428 1.618-2.919 2.112-4.427l.046-.147c3.64-2.02 9.834-4.825 14.646-4.819 1.178 0 2.271.165 3.222.544 4.623 1.891 7.249 4.935 12.449 4.942.67 0 1.38-.051 2.141-.16 2.134-.296 4.307-.485 6.466-.485 4.873 0 9.663.96 13.808 3.827-2.117 1.821-4.747 2.998-7.319 2.997zm-27.472-11.626c1.265.285 2.529.754 3.794 1.443 5.705 3.104 11.946 2.341 18.254 2.876-.355-.01-.711-.016-1.066-.016-2.188 0-4.383.192-6.535.49a14.61 14.61 0 0 1-2.071.155c-4.966.009-7.508-2.937-12.261-4.906a2.66 2.66 0 0 1-.115-.042zm35.441 8.041c-2.491-2.047-6.669-3.101-9.555-3.702-7.712-1.499-15.244.288-21.851-3.335-2.398-1.305-4.81-1.852-7.217-1.851-4.885.002-9.733 2.235-14.54 4.891.945-3.332 1.26-6.733 2.402-9.939 5.54-.666 14.373-6.468 20.835-6.451 2.188.003 4.256.841 5.696 2.548l.015-.024-.005.027c1.826.335 3.977.394 6.273.394 1.341 0 2.731-.02 4.131-.02 6.797-.004 13.756.512 16.663 6.063a7.17 7.17 0 0 1 .897 3.517c.003 2.792-1.501 5.699-3.744 7.882z" fill="#070707" data-color="2"></path>
        <path d="M89.011 133.349h-.001c.006-.005.006-.004.001 0z" fill="#070707" data-color="2"></path>
    </g>
</svg>