<svg preserveAspectRatio="xMidYMid meet" data-bbox="21.503 0.5 156.998 198.998" viewBox="21.503 0.5 156.998 198.998" height="200" width="200" xmlns="http://www.w3.org/2000/svg" data-type="color" role="presentation" aria-hidden="true">
    <g>
        <path d="M124.744 160.3c-2.921.152-5.882-.881-8.552-2-1.049-.44-1.895-1.084-2.632-1.842-.803-.313-1.539-.829-2.15-1.417-.834-.802-1.569-1.876-1.752-3.043-.055-.353.086-.667.443-.783l.01-.003c.051-.248.05-.522-.022-.819-.111-.464-.217-.929-.325-1.393.48-.345.825-.897.857-1.657.094-2.236-1.172-4.027-2.408-5.754-2.216-3.095-4.332-6.176-6.383-9.403-.875-1.377-1.756-2.766-2.324-4.297-.481-1.298-1.406-2.724-1.791-3.965-.366-1.181.041-2.707-.327-4.016-.759-2.699-2.819-5.033-5.543-5.808-1.264-.359-2.607-.371-3.906-.491-2.276-.211-4.434.186-6.618.043-2.663-.174-5.383-.789-7.983-1.365-2.078-.461-4.157-1.008-6.055-1.975-1.925-.98-3.645-2.382-5.685-3.092-1.973-.687-2.797-1.646-3.908-3.401-1.153-1.822-4.042-.134-2.881 1.701 1.705 2.694 3.982 4.982 6.243 7.199 1.199 1.175 2.524 2.383 3.979 3.345l.062-.002c.435 0 .795.232 1.003.573.56.016 1.117.053 1.675.131.351.049.511.483.443.783-.083.365-.453.49-.779.444a11.72 11.72 0 0 0-1.336-.091c-.221.33-.608.555-1.006.555-.596 0-1.054-.437-1.167-.991l-.032.013c-.032.604-.6 1.095-1.191 1.098-.047 0-.094.002-.14.003-.105.537-.63.957-1.174.957h-.688c.213.386.172.88-.341 1.128-9.656 4.668 12.514 25.731 15.606 28.517 2.655 2.392 4.832 5.101 7.386 7.564 2.85 2.748 6.089 5.053 9.359 7.263.459.258.915.523 1.367.792.222.077.447.13.672.154.012.099.048.193.071.29.93.578 1.836 1.193 2.696 1.884 2.442 1.96 5.004 3.865 7.405 5.927-.076-.347-.139-.697-.21-1.045-.571-2.818-1.776-5.549-2.32-8.428-.526-2.781-.948-5.529-1.787-8.244a46.694 46.694 0 0 0-6.735-13.52c-2.588-3.583-4.288-8.455-8.431-10.613-.789-.411-.446-1.413.217-1.636a33.162 33.162 0 0 0-1.776-1.644.865.865 0 0 1-.212-.273 209.022 209.022 0 0 0-1.913-1.622c-.4-.527-.824-1.038-1.268-1.529-1.147-1.267-2.435-2.694-3.868-3.633a5.348 5.348 0 0 0-2.762-.875c-.692-.489-1.387-.976-2.083-1.459a18.186 18.186 0 0 0-1.509-.956c.204-.089.39-.209.555-.354a1.7 1.7 0 0 0 .962.087 9.69 9.69 0 0 0 1.758-.507c.19.187.453.301.755.327a3.61 3.61 0 0 0 1.362-.154c.421-.13.756-.525.793-.962.363-.128.724-.263 1.082-.41a.697.697 0 0 1 .317-.054 1.6 1.6 0 0 0-.016.121c-.062.718.387 1.369.95 1.761.923.642 2.223.571 3.23 1.197 1.199.745 2.168 1.849 3.028 2.955 1.812 2.327 3.194 4.874 4.754 7.363 2.225 3.55 4.698 5.242 8.147 7.356 3.229 1.979 4.941 4.207 6.231 7.006.355.769.975 1.38 1.308 2.208 1.224 3.047 2.282 6.23 3.737 9.171 1.56 2.28 3.097 4.512 5.724 5.667 1.66.73 3.44 1.406 5.258 1.848 1.528-.194 3.061-.352 4.573-.659.372-.075.735-.181 1.101-.277-.058-.53-.434-1.005-1.13-.969z" fill="#FEF4E0" data-color="1"></path>
        <path d="M172.178 54.975c-2.121 2.398-4.781 4.198-8.235 5.108-1.49.392-3.104.531-4.718.691-1.601.379-3.215.696-4.83 1.123-.859.227-1.655.555-2.414.944-.042.03-.086.055-.127.086-2.451 1.837-4.252 4.226-6.959 5.793-.026.015-.053.025-.079.039-1.701 2.112-4.245 2.896-6.914 3.719-.968.299-1.924.582-2.881.866-2.765 1.038-5.612 1.847-8.489 2.569a69.964 69.964 0 0 1-5.416 1.574c-5.268 1.675-10.806 2.987-16.111 4.107-5.733 1.21-11.606 1.807-17.465 1.597a60.868 60.868 0 0 1-8.839-.957c-2.102-.388-6.418-.687-7.904-2.362a1.907 1.907 0 0 1-.757-.494c-2.894-.795-5.489-1.906-8.513-2.973a1.972 1.972 0 0 1-.572-.32c-.125-.043-.252-.081-.377-.124a62.207 62.207 0 0 1-5.63-2.263c-2.585-.709-5.032-1.639-7.356-3.229a32.453 32.453 0 0 1-2.048-.294c-1.15-.209-.66-1.966.483-1.758 2.608.474 5.233.596 7.864.64a2.574 2.574 0 0 1 1.649-.627c.405 0 .783.103 1.125.281 1.747-.682 3.441-1.562 5.123-2.524 3.854-2.203 7.882-3.767 11.171-6.866 1.823-1.717 3.083-3.853 4.51-5.886 2.951-4.206 5.588-8.535 8.147-12.99 2.182-3.799 4.313-7.631 6.235-11.571.16-.327.347-.6.548-.843a4.288 4.288 0 0 1-.215-.911c-.555-4.862-1.67-9.227-1.113-13.757-.187-.462-.36-.925-.338-1.439a.735.735 0 0 1 .136-.4c-.263-.899-.493-1.805-.627-2.723a4.631 4.631 0 0 1 1.348-1.587c1.006-.765 2.041-1.506 3.124-2.16a.715.715 0 0 1 .182-.356 5.977 5.977 0 0 1 2.677-1.604c.273-1.072-.962-2.471-2.331-1.851-.208.094-.414.196-.62.298a2.167 2.167 0 0 0-.587-.667c-.192-.062-.383-.137-.575-.188-.598-.158-1.373-.098-2.064-.097a.652.652 0 0 1-.248-.048c-.85.112-1.729.209-2.547.423a.652.652 0 0 1-.325.471 1.532 1.532 0 0 0-.125.07c-.019.012-.041.029-.053.038a3.259 3.259 0 0 0-.181.172c-.12.125-.229.259-.343.39-.295.341-.634.644-.952.963a.67.67 0 0 1-.626.179c-.147.351-.26.723-.343 1.104-.598 2.717-.172 5.475.553 8.122.673 2.459 1.594 4.874 1.913 7.418.126 1.005.176 2.013.156 3.018a.754.754 0 0 1 .121.377l.003.058c.006.031.013.063.021.094.022.088.049.175.075.262.032.109.059.22.091.329.103.347.042.711-.198.917.005.138-.001.277-.018.418a12.245 12.245 0 0 1-.893 3.389c0 .229.028.446.087.646-.196.091-.379.21-.556.34-.614 1.169-1.394 2.27-2.308 3.472-7.608 9.998-16.39 19.75-27.689 25.766-3.7 2.399-8.489 3.207-12.823 2.668-3.886-.483-7.476-2.472-11.328-2.876-1.182-.124-2.728-.118-3.711-.892a3.998 3.998 0 0 0-.212-.157c-1.091-.015-2.183-.006-3.275-.005-.169 0-.334-.018-.493-.052a3.533 3.533 0 0 0-.233.213c-.438.442-.719 1.097-.813 1.78.335.201.664.448.971.797 7.918 9.002 13.185 20.401 15.021 32.281.421 2.722.695 5.455.9 8.193.163.62.295 1.246.381 1.894.046.553.093 1.105.146 1.654.036.375.123.736.253 1.074-.001.051-.005.102-.003.153.134 3.383.347 6.777 1.326 10.035.65 2.163 1.194 4.363 1.506 6.603.335 2.402 1.778 4.758 2.499 7.084a79.358 79.358 0 0 1 3.546 22.536c.054 4.615-.896 9.275-1.721 13.812.024.109.046.218.085.322-.064.054-.117.12-.176.181-.18.983-.363 1.965-.547 2.947.047 2.946-.415 5.978-1.067 8.815-.251 1.093-.734 2.1-1.224 3.094a59.727 59.727 0 0 1-1.449 5.266c.002.021.002.041.005.062-.012.006-.022.018-.034.024-.696 2.104-1.531 4.165-2.597 6.158-.229.429-.629.51-.983.398-1.042.943-1.777 2.138-2.248 3.464-.115.325-.086.682.037 1.01 1.427-.7 2.795-1.516 4.135-2.376a1.01 1.01 0 0 0 .32-.207c.224-.145.446-.291.669-.438.023-.126.031-.255.027-.384l.112-.138c.142-.175.259-.321.327-.507.602-.2 1.061-.696 1.342-1.366a17.758 17.758 0 0 1 .646-1.322c.277-.51.581-1.002.905-1.484.182-.271.27-.591.28-.92.073-.028.142-.066.213-.1a58.957 58.957 0 0 0 1.336-3.193c.043-.159.101-.322.179-.488.938-2.527 1.68-5.074 2.166-7.589.086-.446.402-.641.743-.652.478-2.819.843-5.703.627-8.543-.004-.048-.011-.096-.017-.144.938-.438 1.512-1.42 1.618-2.525.644-6.761.171-13.577-1.297-20.203a2.307 2.307 0 0 0-.164-.476c.484-.734.692-1.64.368-2.473-2.112-5.428-1.821-11.237-2.184-16.954-.881-2.356-1.786-4.745-1.695-7.291a.644.644 0 0 1 .516-.621c-.645-3.072-1.371-6.134-1.694-9.263-.643-6.235-1.364-12.532-2.475-18.716l.027.064a51.203 51.203 0 0 1 1.8 4.436c.061-.012.124-.019.188-.022.648-.029 1.186.571 1.192 1.197.001.09.006.179.013.268.06.33.16.65.282.962.326.732.746 1.411 1.169 2.088.354-.222.583-.63.441-1.157a55.882 55.882 0 0 0-3.233-8.866c-.5-1.082-1.929-.43-1.963.57-.157-.859-.322-1.716-.495-2.57-.198-.959-.411-3.8-1.151-4.448.173.152.358.289.534.438.147-.75 1.225-1.188 1.634-.337 1.213 2.519 3.972 3.875 6.497 4.694 2.37.769 4.856 1.225 7.101 2.311.247.12.511.25.782.207.658-.105.738-1.017.649-1.68a33.83 33.83 0 0 0 4.337 1.662c.715.22 1.448.351 2.19.438.143.017.288.031.433.043a1.657 1.657 0 0 0-.565 1.011c.172.035.34.089.497.17.61.315.906.554 1.384 1.051.197.205.323.423.41.644.17-.08.319-.184.44-.312-.022.245-.016.497.017.747a.642.642 0 0 1 .351.294c.472.889.988 1.642 1.592 2.361.12.042.243.076.372.099 1.28.228 1.977.572 2.477 1.854.368.944.865 1.733 1.667 2.364.442.348 1.051.489 1.47.822.516.411.849 1.062 1.334 1.535 1.681 1.639 3.91 2.814 5.906 4.014 4.218 2.537 8.619 4.777 13.24 6.468a44.676 44.676 0 0 0 8.917 2.252c3.525.513 7.347.1 10.575 1.877.137.076.294.209.241.357 1.662-.122 2.898.757 4.45.905l.102.01c.85-.663 1.246-1.766 1.189-2.838-.197-.299-.389-.602-.594-.896a8.755 8.755 0 0 0-.225-.31l-.073-.091a4.471 4.471 0 0 0-.659-.667c-.227-.186-.24-.51-.131-.764a3.024 3.024 0 0 0-.863-.265c-.206-1.406-1.092-2.608-2.351-3.132a4.428 4.428 0 0 0-1.047-1.488 4.545 4.545 0 0 0-.133-.621 4.987 4.987 0 0 1-.842-.758c-2.19-2.407-4.77-4.408-7.373-6.339-2.432-1.804-4.562-3.923-6.959-5.726-1.685-1.268-3.611-2.178-5.561-2.951a40.812 40.812 0 0 0-4.164-1.389c1.048-.094 2.094-.192 3.14-.29 6.023-.568 12.258-.787 18.341-1.476 6.116-.693 11.654-2.207 17.398-4.246a.47.47 0 0 0 .208-.109c.31.083.639.108.971.114a75.872 75.872 0 0 0 8.932-4.751 55.108 55.108 0 0 0 4.952-4.056c.371-.468.725-.953 1.034-1.477.551-.933.483-1.833.088-2.556a.429.429 0 0 0 .127-.136c.021-.04.028-.083.048-.124a.454.454 0 0 0 .243-.309l.233-.883a.456.456 0 0 0-.151-.486.47.47 0 0 0-.102-.175c.012.001.023-.005.035-.004a.4.4 0 0 0 .454-.304c.745.822 1.913 1.294 2.978.903.882-.324 1.801-.427 2.727-.514a53.015 53.015 0 0 1 3.916-2.021c3.864-1.815 7.302-3.845 10.234-7.002.058-.062.121-.101.18-.159a3.243 3.243 0 0 0-.066-.44 34.483 34.483 0 0 0 3.058-2.098c.802-.614.547-1.737-.071-2.152zM34.505 65.051c-.029-.001-.058 0-.087.001l-.098-.077c.132.023.265.048.397.075h-.212zm7.22 4.162a154.409 154.409 0 0 0-5.393-3.394.649.649 0 0 0-.57-.034 1.079 1.079 0 0 0-.258-.417l-.218-.169-.055-.03c.389.099.785.223 1.198.383 1.832.712 3.481 1.853 5.267 2.672.453.208.908.394 1.366.569a2.73 2.73 0 0 0-1.337.42zm1.265 9.827a17.622 17.622 0 0 0-.913-1.695c.535.346 1.072.689 1.613 1.024a1.934 1.934 0 0 0-.7.671zm6.512 2.624a.396.396 0 0 0-.034-.022l.036.018-.002.004zm21.302 8.989c-.033-.5-.256-.983-.669-1.275.078-.015.156-.032.232-.051.519.099 1.039.19 1.56.273-.45.246-.839.597-1.123 1.053z" fill="#FEF4E0" data-color="1"></path>
        <path d="M176.492 50.568c.44-1.044.958-2.032 1.305-3.117.178-.558.345-1.121.475-1.693.102-.447.368-1.178.137-1.612a.38.38 0 0 0-.092-.118.324.324 0 0 0-.174-.059c-.593-.051-.658.606-.777 1.023a26.52 26.52 0 0 1-.277.911c-.185.571-.39 1.135-.619 1.69a18.754 18.754 0 0 1-1.488 2.9 16.6 16.6 0 0 1-3.893 4.255c-1.522 1.174-3.217 2.1-4.954 2.908-1.906.886-3.869 1.643-5.821 2.419-.329.131-.66.296-.999.399-2.093.636-3.563.046-6.537 1.466-3.85 1.83-5.318 6.062-9.739 7.576-11.161 4.011-24.774 7.618-36.543 10.718-4.679 1.29-9.515 1.867-14.443 1.867-15.94.005-32.834-6.05-48.138-13.507.644.172 1.263.305 1.852.391 1.412.163 2.79.24 4.141.24 15.635 0 27.743-10.519 34.778-24.843 3.358-6.559 8.065-10.723 8.075-18.801 0-1.067-.083-2.201-.261-3.415-.638-3.72-1.418-6.963-1.415-9.737.002-1.712.324-3.444 1.237-4.912 1.133-1.822 2.984-3.057 4.868-3.99.477-.236.964-.45 1.455-.655.305-.127.699-.184.941-.429.331-.336.023-.808-.384-.872-.554-.087-1.121-.113-1.679-.203-.738-.119-1.474-.254-2.21-.385C93.962.743 92.595.502 91.219.5c-2.257-.02-4.296.776-5.69 3.316-.775 1.325-1.079 2.782-1.078 4.279.025 5.493 3.951 11.754 3.923 16.362 0 .397-.028.78-.087 1.147a9.304 9.304 0 0 1-.202.765c-2.119 7.045-13.218 14.48-18.505 20.83-5.426 6.55-8.072 9.839-16.027 12.577a21.43 21.43 0 0 1-7.343 1.264c-3.64 0-7.202-.837-10.707-1.743-3.736-.965-7.468-1.996-11.314-2.413-.705-.076-1.437-.141-2.146-.112-.249.01-.527.123-.54.423a.514.514 0 0 0 .086.299c.263.412.775.764 1.126 1.11.386.381.764.772 1.097 1.201.483.623.953 1.257 1.408 1.901a58.571 58.571 0 0 1 2.587 4.001c1.65 2.79 3.082 5.706 4.345 8.692 1.3 3.074 2.42 6.222 3.411 9.409a151.264 151.264 0 0 1 2.685 9.883 248.724 248.724 0 0 1 2.165 10.114 585.72 585.72 0 0 1 1.851 10.101c.578 3.282 1.145 6.567 1.744 9.845.57 3.124 1.168 6.243 1.843 9.346.081.374.164.748.248 1.121a106.192 106.192 0 0 1 2.585 23.128c0 3.836-.219 7.674-.69 11.481-.467 3.777-1.183 7.526-2.192 11.196-.992 3.607-2.27 7.138-3.878 10.514a54.796 54.796 0 0 1-2.372 4.451 50.441 50.441 0 0 1-1.352 2.153c-.248.375-.549.711-.752 1.115-.178.353-.382 1.173.256 1.24.142.015.272-.073.388-.156.699-.527 1.439-.957 2.194-1.397a22.201 22.201 0 0 0 1.867-1.209 16.208 16.208 0 0 0 2.854-2.616c1.674-1.971 2.761-4.342 3.722-6.724.479-1.186.932-2.383 1.388-3.578 3.282-8.608 4.423-17.096 4.422-25.621-.001-12.317-2.373-24.715-4.118-37.734-.987-8.469-1.216-18.423-2.765-27.68 4.054 9.985 9.182 18.392 11.797 27.04-1.786 1.182-2.63 2.883-2.618 4.839.018 3.789 2.914 8.546 7.246 13.746 13.003 15.546 39.361 34.862 42.518 37.864l.004.006s.38.257.647.081-.035-.585-.035-.585c-.46-.792-.838-1.64-1.15-2.536l-.006-.017.017-.014-.036-.042a24.4 24.4 0 0 1-.829-3.064c-.772-3.707-.99-7.802-1.979-11.466-2.389-9.011-6.697-15.883-12.6-22.758-5.663-6.592-11.837-16.636-21.04-18.004.506.051 1.018.078 1.537.078 2.026 0 4.136-.402 6.275-1.274.468 2.021 1.309 2.748 2.246 2.952.979.221 1.765.075 2.554.845 3.188 3.003 3.114 4.56 5.935 8.813 2.952 3.975 5.97 5.883 8.643 7.708 2.679 1.83 5 3.556 6.779 7.228 2.12 4.727 3.784 9.266 6.098 12.671 2.297 3.395 5.336 5.663 10.01 5.663h.038c1.123 0 2.243-.126 3.347-.331a29.312 29.312 0 0 0 3.908-1.033 42.21 42.21 0 0 0 2.477-.916c.262-.106.881-.43.463-.755a.654.654 0 0 0-.433-.133c-.416.019-.825.07-1.243.083-.483.015-.966.023-1.448.023-5.835.011-13.199-1.175-16.094-6.252-.327-.579-.448-1.188-.448-1.853-.011-1.662.809-3.596.82-5.57 0-.427-.041-.858-.142-1.288l-.006-.028-.011-.028c-.525-1.301-3.243-5.373-4.16-6.501-2.945-4.58-5.818-8.461-7.937-13.294-1.083-2.201-1.034-3.971-1.489-5.719-.449-1.757-1.509-3.391-4.621-4.955-.097-.046-.196-.098-.306-.15-1.745-.917-3.643-1.134-5.518-1.134-1.799.001-3.587.199-5.245.199-.466 0-.922-.015-1.364-.054-2.661-.233-5.362-.84-7.945-1.501-2.847-.729-5.656-1.673-8.296-2.976-2.505-1.237-4.895-2.82-6.765-4.923a14.64 14.64 0 0 1-1.497-1.996c-.22-.353-.424-.717-.61-1.09-.205-.411-.328-.872-.731-1.137-.08-.052-.172-.098-.283-.007a.362.362 0 0 0-.118.192c-.118.462.005.972.049 1.439.048.524.092 1.049.18 1.567.14.82.264 1.818.622 2.574-3.566-7.526-6.078-16.275-9.632-22.274a46.684 46.684 0 0 0-.552-1.54c6.243 6.961 16.137 6.922 24.498 10.28 6.469 8.345 13.569 14.438 22.788 19.441a42.984 42.984 0 0 0 12.531 4.529c3.352.656 6.756.948 10.15 1.285 1.883.187 3.767.375 5.641.638.949.133 1.895.285 2.836.465.516.099 1.082.161 1.607.295.49.125 1.022.483 1.538.415a.345.345 0 0 0 .269-.182c.07-.142-.003-.259-.073-.366-1.821-2.782-3.621-5.542-5.692-8.147a80.419 80.419 0 0 0-7.145-7.866c-2.626-2.53-5.431-4.879-8.421-6.964-2.934-2.045-6.053-3.84-9.349-5.23a.02.02 0 0 1-.008-.004c1.466-.221 2.986-.302 4.528-.302 3.966-.001 8.08.532 11.858.534 1.546-.001 3.037-.09 4.442-.347 3.754-.484 11.903-3.127 19.182-6.797 7.247-3.695 13.692-8.289 13.764-13.188 0-.119-.004-.238-.012-.358.456.035.911.053 1.365.053 9.089-.015 17.418-6.909 22.464-13.831 1.187-1.368 2.216-2.995 3.052-4.979zM106.7 81.009c11.766-3.098 25.393-6.709 36.602-10.736 4.788-1.711 6.333-6.048 9.812-7.606 2.774-1.338 4.048-.735 6.44-1.427l.017-.005.017-.007c5.903-2.355 11.227-4.165 14.888-8.669a37.771 37.771 0 0 1-1.662 2.487c-3.462 3.949-8.429 5.662-14.152 7.947-2.087.634-3.562.043-6.537 1.466-3.847 1.833-5.313 6.064-9.735 7.577-11.162 4.011-24.774 7.619-36.546 10.717-4.398 1.213-8.893 1.755-13.444 1.755-2.078 0-4.165-.113-6.262-.327-14.747-1.505-29.853-8.041-43.681-15.413 15.649 7.735 33.071 14.129 49.599 14.135 4.986.001 9.894-.584 14.644-1.894zM90.291 12.43c.002 2.923.796 6.184 1.425 9.865.172 1.168.251 2.262.251 3.288.01 7.707-4.509 11.702-7.989 18.438-6.964 14.157-18.818 24.405-34.07 24.404-1.322 0-2.668-.077-4.04-.234-3.818-.541-9.203-3.251-14.219-6.054 4.177 1.852 8.578 3.443 12.448 4.003 1.533.176 3.025.262 4.486.262h.008c15.406.001 27.161-9.566 34.137-23.783 2.887-5.625 6.739-9.47 7.808-15.552.175-1.018.271-2.093.271-3.246a23.43 23.43 0 0 0-.261-3.419c-.458-2.674-.806-4.957-.804-6.935.014-2.049.363-3.776 1.358-5.321-.59 1.327-.82 2.759-.809 4.284zM46.218 61.842c2.454 0 4.972-.368 7.593-1.308 8.107-2.771 10.988-6.297 16.375-12.82 5.14-6.245 16.315-13.587 18.654-21.107.088-.282.164-.566.225-.854.071-.434.101-.861.101-1.295-.03-4.989-3.948-11.216-3.924-16.362.002-1.392.277-2.69.972-3.878 1.306-2.305 2.899-2.896 5.003-2.916 1.931-.004 4.238.579 6.808.954-6.993 2.898-9.111 6.368-9.078 11.211 0 2.071.357 4.389.815 7.062.172 1.171.251 2.265.251 3.292 0 1.107-.093 2.136-.261 3.109-.996 5.783-4.753 9.565-7.733 15.327C75.112 56.298 63.64 65.596 48.583 65.6c-1.43 0-2.892-.084-4.385-.256-6.172-.884-13.955-4.57-19.811-7.635 7.671.888 14.451 4.12 21.821 4.132l.01.001zm7.526 96.356c-.001 8.454-1.13 16.833-4.37 25.332-2.798 7.228-4.332 10.914-10.735 14.381 7.775-11.547 10.834-26.204 10.835-40.564 0-8.059-.964-16.026-2.604-23.305-5.028-22.301-6.861-52.102-20.503-72.071 4.788 4.089 10.032 7.728 13.665 12.377l-.009.007c.202.282.418.56.637.833l.003.007.029.035a23.435 23.435 0 0 1 1.52 2.411l-.031.017a16.175 16.175 0 0 0 .442.767c.061.132.122.255.175.371.516 1.103.98 2.245 1.402 3.419l-.086.056-.003.001v.001l-.077.05-.001-.001c.056.085.108.169.16.252a78.977 78.977 0 0 0 1.781 5.77c2.378 10.35 2.502 22.25 3.659 32.219 1.749 13.056 4.112 25.423 4.111 37.635zm50.701 12.132c.105.495.22.985.347 1.469-14.519-15.604-38.262-30.173-41.171-52.762l.249-.053c1.568 11.472 12.706 21.819 19.999 29.566 4.323 4.736 11.32 9.636 16.129 15.046 1.93 2.17 3.502 4.419 4.417 6.746l.03-.012zM84.45 148.002c-7.306-7.721-18.214-17.992-19.775-28.986 16.747 6.065 30.822 24.999 34.927 42.971-4.819-5.072-11.203-9.646-15.152-13.985zm-21.373-29.661c-1.135.274-2.107.631-2.924 1.066-1.08-3.52-2.556-6.984-4.195-10.513.122.217.244.433.369.646 2.044 3.509 4.47 6.557 7.554 8.624-.282.056-.547.113-.804.177zM46.376 86.646c2.079 4.414 3.908 9.739 6.057 14.866-2.01-4.209-4.025-8.61-5.697-13.386-.114-.497-.234-.99-.36-1.48zm18.31 51.246c-4.305-5.13-7.079-9.859-7.061-13.229.012-1.815.736-3.231 2.497-4.318.722-.442 1.628-.821 2.724-1.118 3.171 23.684 28.319 38.417 42.494 54.355.101.285.209.567.325.845-4.156-3.408-14.745-11.499-24.962-20.561-5.928-5.259-11.72-10.835-16.017-15.974zm25.343-1.491c5.858 6.827 10.078 13.57 12.433 22.444.742 2.732 1.043 5.779 1.501 8.767-.896-1.54-2.026-3.027-3.303-4.471-3.711-18.294-17.706-37.812-34.78-44.523.559-.067 1.108-.1 1.647-.1 9.73-.041 16.381 10.683 22.502 17.883zm-22.502-18.685c-.818 0-1.658.072-2.518.219-2.147-1.294-3.985-3.076-5.603-5.192 2.543 2.648 5.82 4.5 9.486 5.043a14.604 14.604 0 0 0-1.365-.07zm42.783 38.723c-2.233-3.274-3.899-7.788-6.033-12.557-1.86-3.856-4.365-5.72-7.054-7.552-2.693-1.837-5.583-3.663-8.44-7.508-2.727-4.088-2.712-5.789-6.037-8.931-1.053-1.017-2.194-.852-2.915-1.043-1.201-.319-1.418-1.76-1.505-2.851-.009-.113-.021-.233-.091-.322-.096-.121-.276-.145-.424-.102-.148.043-.275.138-.404.224-.395.263-.956.395-1.405.544-.537.178-1.083.329-1.635.451a15.105 15.105 0 0 1-3.242.357c-5.739.001-10.751-3.393-13.678-8.28a19.123 19.123 0 0 1-2.467-6.774c4.635 8.989 10.104 11.415 15.56 12.146 5.843.79 11.604-.171 16.647 3.159 10.043 6.661 14.627 17.149 19.631 27.588.884 1.976 1.062 5.988 2.808 9.503 1.738 3.526 5.183 6.533 12.335 6.533h.071c1.052 0 2.185-.063 3.406-.195-2.19.636-4.084.927-5.735.926-4.431-.011-7.148-2.041-9.393-5.316zm13.29 3.738c-.543.03-1.065.045-1.567.045-6.808-.019-9.864-2.643-11.562-5.832 2.834 4.012 8.19 5.408 13.129 5.787zm-43.435-46.512c.488.043.966.06 1.449.06 1.718-.001 3.504-.2 5.245-.199 1.818 0 3.573.213 5.165 1.05.109.052.207.103.312.153 2.986 1.534 3.773 2.869 4.202 4.441.424 1.579.383 3.497 1.536 5.853 2.162 4.928 5.077 8.851 8.005 13.413l.013.02.015.019c.809.965 3.584 5.152 4.034 6.271.081.35.114.707.114 1.075.011 1.746-.808 3.67-.819 5.57 0 .202.01.404.032.605-.901-2.745-1.158-5.557-1.929-7.344-5.003-10.418-9.635-21.093-19.917-27.921-5.371-3.516-11.311-2.489-16.974-3.283-4.57-.646-9.005-2.353-13.071-8.493 5.801 5.627 15.698 7.788 22.588 8.71zM43.312 78.029l-.003-.008-.008-.013-.018-.035c4.79 4.449 11.834 8.291 18.581 10.419-7.304-1.891-14.388-3.448-18.552-10.363zm26.259 12.356l-.114-.046-.054.139-.033.02.016.024-.061.157a47.992 47.992 0 0 0-3.962-1.332c1.644.375 3.242.629 4.753.747-.182.094-.363.192-.545.291zm22.762 19.826c-7.875-4.276-14.161-9.329-19.859-15.946 5.191 3.859 14.029 7.993 23.248 11.898 9.783 4.134 19.977 7.966 26.544 10.741-10.312-1.777-17.955-.769-28.164-5.775a48.71 48.71 0 0 1-1.769-.918zM70.598 91.642c11.033 4.146 22.446 4.63 33.071 10.22 6.293 3.316 12.817 10.061 19.195 14.426-6.588-2.799-16.922-6.675-26.836-10.864-10.844-4.572-21.202-9.572-25.43-13.782zm53.902 24.769c-6.634-4.204-13.598-11.624-20.464-15.26-10.931-5.731-22.503-6.169-33.486-10.383.425-.22.858-.43 1.295-.626a26.031 26.031 0 0 1 10.936-2.383c.898 0 1.797.044 2.695.13 3.023.291 6.019 1.052 8.951 2.187 12.417 4.8 23.612 16.283 30.073 26.335zm26.466-47.833c-.59 0-1.182-.03-1.775-.094l-.521-.055.089.522c.042.243.062.488.062.734.072 4.136-6.107 8.866-13.325 12.472-7.189 3.631-15.348 6.266-18.947 6.721-1.36.249-2.806.337-4.322.337-3.706.001-7.824-.533-11.858-.533-1.984 0-3.952.13-5.842.523l.012.056c-2.935-1.122-5.943-1.877-8.986-2.17a28.846 28.846 0 0 0-2.771-.135 26.808 26.808 0 0 0-11.155 2.405c-9.543-.113-24.055-6.911-30.294-14.608a.395.395 0 0 0-.029-.039c-4.17-5.775-10.642-9.885-16.04-14.774 17.744 10.44 39.541 22.861 60.791 25.041 2.121.217 4.237.331 6.342.331 4.613 0 9.18-.551 13.648-1.783 11.769-3.098 25.397-6.707 36.604-10.735 4.79-1.711 6.334-6.047 9.809-7.607 2.775-1.341 4.052-.737 6.44-1.427l.015-.006.019-.007c4.03-1.616 7.772-2.954 10.912-5.071-4.945 5.388-11.756 9.914-18.878 9.902z" fill="#070707" data-color="2"></path>
    </g>
</svg>