<svg data-bbox="7 3 36 45" xmlns="http://www.w3.org/2000/svg" viewBox="0 0 50 50" height="50" width="50" data-type="shape">
    <g>
        <path d="M38.473 34.564L43 39.273v2.298H7v-2.298l4.527-4.71V22.959c0-3.662.88-6.82 2.64-9.474 1.797-2.729 4.294-4.504 7.492-5.326V6.532c0-.972.323-1.803.97-2.495C23.275 3.346 24.066 3 25 3c.934 0 1.734.346 2.398 1.037.665.692.997 1.523.997 2.495v1.626c3.162.822 5.64 2.616 7.437 5.382 1.76 2.654 2.641 5.793 2.641 9.418v11.606zM25 48c-1.364 0-2.523-.47-3.477-1.411-.955-.94-1.432-2.078-1.432-3.41h9.818c0 1.332-.487 2.47-1.46 3.41C27.473 47.529 26.324 48 25 48z" fill-rule="evenodd"></path>
    </g>
</svg>