<svg width="21" height="34" viewBox="0 0 78 125" fill="none" xmlns="http://www.w3.org/2000/svg">
  <path d="M76 39C76 18.5655 59.4345 2 39 2C18.5655 2 2 18.5655 2 39C2 48 5 55.5 10 62C17.6534 71.9494 32.5 94 34 101C35.5179 108.084 36 117.667 36.5 121.5C36.5 122 37.5 123 39.5 123C41.1 123 41.8333 122 42 121.5C42.5 117.667 42.9821 108.084 44.5 101C46 94 60.5 71.375 68 62C76 52 76 41 76 39Z" fill="#EA4335" stroke="white" stroke-width="4" />
  <path d="M40 52.5H39.5C31.768 52.5 25.5 46.232 25.5 38.5C25.5 30.768 31.768 24.5 39.5 24.5H40C47.732 24.5 54 30.768 54 38.5C54 46.232 47.732 52.5 40 52.5Z" fill="#811411" />
</svg>