<svg width="58" height="73" viewBox="0 0 58 73" fill="none" xmlns="http://www.w3.org/2000/svg">
<g filter="url(#filter0_i_240_327)">
<path d="M29.3107 39.8679C28.2214 39.8552 27.1544 40.1764 26.2533 40.7885C25.3521 41.4005 24.6601 42.2739 24.2704 43.2911C23.8806 44.3083 23.8119 45.4206 24.0734 46.478C24.5681 48.4788 25.7329 50.3876 25.7329 52.4486V54.179C25.7329 55.1279 26.1099 56.0379 26.7808 56.7089C27.4518 57.3798 28.3618 57.7568 29.3107 57.7568C30.2596 57.7568 31.1696 57.3798 31.8406 56.7089C32.5115 56.0379 32.8885 55.1279 32.8885 54.179V52.4486C32.8885 50.3876 34.0533 48.4788 34.548 46.478C34.8095 45.4206 34.7408 44.3083 34.351 43.2911C33.9613 42.2739 33.2693 41.4005 32.3681 40.7885C31.467 40.1764 30.4 39.8552 29.3107 39.8679ZM47.1996 25.5568H25.7329C21.781 25.5568 18.5774 22.3531 18.5774 18.4012C18.5721 16.2767 19.1975 14.1984 20.3743 12.4296C21.5511 10.6607 23.2264 9.28091 25.188 8.46487C27.1495 7.64883 29.3091 7.43328 31.3933 7.84551C33.4774 8.25774 35.3924 9.27921 36.8956 10.7806C38.2406 12.1547 39.2027 13.8568 39.6862 15.7179C39.8037 16.1736 40.0098 16.6018 40.2927 16.9779C40.5756 17.354 40.9299 17.6707 41.3352 17.9099C41.7405 18.1491 42.189 18.3061 42.655 18.372C43.121 18.4379 43.5954 18.4113 44.0511 18.2939C44.5069 18.1764 44.935 17.9704 45.3111 17.6874C45.6872 17.4045 46.0039 17.0503 46.2431 16.645C46.4823 16.2396 46.6394 15.7912 46.7053 15.3252C46.7711 14.8592 46.7446 14.3847 46.6271 13.929C45.8121 10.8335 44.1955 8.00754 41.9403 5.73589C39.4365 3.23991 36.2492 1.54179 32.781 0.855953C29.3128 0.170119 25.7191 0.527324 22.4537 1.88246C19.1884 3.2376 16.3978 5.52991 14.4343 8.46993C12.4709 11.4099 11.4226 14.8658 11.4218 18.4012C11.4218 22.3531 7.89018 25.4111 4.78452 27.855C4.45229 28.1164 4.13417 28.3985 3.8322 28.7005C1.81931 30.7134 0.688477 33.4435 0.688477 36.2901V61.3345C0.688477 64.1812 1.81931 66.9113 3.8322 68.9242C5.84509 70.937 8.57515 72.0679 11.4218 72.0679H47.1996C50.0462 72.0679 52.7763 70.937 54.7892 68.9242C56.8021 66.9113 57.9329 64.1812 57.9329 61.3345V36.2901C57.9329 33.4435 56.8021 30.7134 54.7892 28.7005C52.7763 26.6876 50.0462 25.5568 47.1996 25.5568ZM50.7774 61.3345C50.7774 62.2834 50.4004 63.1935 49.7295 63.8644C49.0585 64.5354 48.1485 64.9123 47.1996 64.9123H11.4218C10.4729 64.9123 9.5629 64.5354 8.89194 63.8644C8.22098 63.1935 7.84403 62.2834 7.84403 61.3345V36.2901C7.84403 35.3412 8.22098 34.4312 8.89194 33.7602C9.5629 33.0893 10.4729 32.7123 11.4218 32.7123H47.1996C48.1485 32.7123 49.0585 33.0893 49.7295 33.7602C50.4004 34.4312 50.7774 35.3412 50.7774 36.2901V61.3345Z" fill="black"/>
</g>
<defs>
<filter id="filter0_i_240_327" x="0.688477" y="0.516113" width="57.2446" height="75.5518" filterUnits="userSpaceOnUse" color-interpolation-filters="sRGB">
<feFlood flood-opacity="0" result="BackgroundImageFix"/>
<feBlend mode="normal" in="SourceGraphic" in2="BackgroundImageFix" result="shape"/>
<feColorMatrix in="SourceAlpha" type="matrix" values="0 0 0 0 0 0 0 0 0 0 0 0 0 0 0 0 0 0 127 0" result="hardAlpha"/>
<feOffset dy="4"/>
<feGaussianBlur stdDeviation="2"/>
<feComposite in2="hardAlpha" operator="arithmetic" k2="-1" k3="1"/>
<feColorMatrix type="matrix" values="0 0 0 0 0 0 0 0 0 0 0 0 0 0 0 0 0 0 0.25 0"/>
<feBlend mode="normal" in2="shape" result="effect1_innerShadow_240_327"/>
</filter>
</defs>
</svg>
