<svg preserveAspectRatio="none" data-bbox="2.5 46.501 195.003 107.002" viewBox="2.5 46.501 195.003 107.002" height="200" width="200" xmlns="http://www.w3.org/2000/svg" data-type="color" role="presentation" aria-hidden="true">
    <g>
        <path d="M193.903 63.067l-.001.024c-.035.016-.071.029-.103.048a1.119 1.119 0 0 0-.196-.105l.001-.089c0-.021-.005-.041-.006-.063l.329-.011a1.33 1.33 0 0 0-.024.196z" fill="#F9EBD2" data-color="1"></path>
        <path d="M172.574 88.536a15.938 15.938 0 0 1-5.047 2.095c-.634.142-1.274.254-1.917.341a1.37 1.37 0 0 1-.79.469c-11.704 2.156-23.481 3.055-35.282 3.364-6.158.161-12.393-.106-18.611-.085-1.27.244-2.519.32-3.865.143-.182-.024-.364-.039-.546-.06-3.724.123-7.435.399-11.11 1.024a1.05 1.05 0 0 1-.437-.02 1.567 1.567 0 0 0-.388.453c1.179.438 2.33 1.114 3.534 1.606 1.548.634 3.132.9 4.697 1.284 1.581.012 3.168.136 4.784.322 1.63.188 3.204-.16 4.768-.577a2.155 2.155 0 0 0-.082.659c.02.451.126.914.344 1.313-.206.628-.23 1.372.037 2.037.091.226.183.452.276.677-.014.044-.021.091-.033.136.128.147.247.327.345.565 3.196 7.749 8.612 10.386 14.403 10.961.175-.048.349-.099.522-.152.244.001.494-.024.755-.072 2.331-.425 4.651-.906 6.958-1.442a2.06 2.06 0 0 1 .058-.041c1.653-1.142 3.583-1.477 5.507-1.816.491-.522.802-1.218.771-1.923-.056-1.261-.839-2.36-2.072-2.722l-.099-.028c-3.03-2.546-6.027-5.282-9.389-6.936a18.292 18.292 0 0 0-5.909-1.762c1.995-.207 3.988-.527 5.972-.792.378-.05.687-.24.93-.512.109.266.266.487.469.637.315-.609.841-1.033 1.507-.896 1.741.357 3.493.706 5.25 1.006a1.31 1.31 0 0 1 .751-.403c3.733-.557 7.629-1.069 11.495-1.339 0-.095.006-.192-.003-.285 6.927-.205 13.622-3.357 20.525-4.123.254-.141.504-.292.744-.457l.078-.067c.291-.258.613-.446.948-.56.227-.864-.053-1.971-.848-2.022z" fill="#F9EBD2" data-color="1"></path>
        <path d="M82.112 107.649c-.997-.577-1.888-.881-2.848-.876-.692-.266-1.471-.243-2.181.034a2.194 2.194 0 0 0-.694.196c-.625-.058-1.207.31-1.666.899-.389.019-.767.007-1.161-.121-.803-.26-1.566-.597-2.404-.476a2.982 2.982 0 0 0-1.804.993 1.334 1.334 0 0 0-1.05-.504c-2.132 0-2.136 4.537 0 4.537.091 0 .177-.011.261-.027.39 1.462 1.421 2.732 2.593 2.564.607-.087 1.18.315 1.793.454.96.217 1.885.142 2.851.063 1.894-.155 3.776-.399 5.65-.823 2.228-.506 2.804-5.673.66-6.913z" fill="#F9EBD2" data-color="1"></path>
        <path d="M69.484 104.336c.379-.982.716-1.949.954-2.969.48-.025.949-.353 1.259-1.107 1.005-2.446 2.162-5.227 2.525-8.025.272-2.091-.527-4.279-1.943-4.64-.07.679-.383 1.297-1.014 1.526-3.408 1.235-3.023 9.636-3.024 13.36 0 .83-.304 1.389-.713 1.685-.047.379-.153.67-.294.892.72.641 1.733.617 2.25-.722z" fill="#F9EBD2" data-color="1"></path>
        <path d="M64.698 115.972c-.723-1.375-1.713-2.491-2.858-2.823a25.828 25.828 0 0 0-.986-.087 2.715 2.715 0 0 0-.81.232c-.507.232-.928.08-1.235-.266a14.572 14.572 0 0 0-3.595.644c.247-.665.416-1.406.682-2.152.595-1.67 1.457-3.142 2.073-4.803a35.397 35.397 0 0 0 1.494-5.219c.301-1.475.767-3.399.45-4.936-.214-1.04-.822-1.835-1.553-2.061a3.08 3.08 0 0 1-.054.535c-.585-.128-1.2.244-1.519.97l-1.197 2.725c-.163.37-.211.794-.178 1.207-.095.18-.18.378-.248.6l-.256.833-.224.527c-.106.25-.164.523-.184.8l-.063.207c-.011.036-.02.072-.029.109-.983 2.852-1.742 5.844-2.522 8.903-.081.608-.16 1.157-.24 1.597.059.815.42 1.522.916 1.883-.239.65-.217 1.434-.01 2.09.379-.273.846-.313 1.329.074 2.13 1.707 4.887 2.318 7.346 2.045.79-.088 4.435-.67 3.681-2.172a2.224 2.224 0 0 1-.21-1.462z" fill="#F9EBD2" data-color="1"></path>
        <path d="M45.776 120.629c-.551-.209-.998-.819-.97-1.844.144-5.233.361-10.62 1.772-15.543.033-.116.075-.217.118-.317l.077-1.167c.113-1.715-1.491-2.828-2.493-1.959-.612.531-.941 1.261-1.181 2.079.074.319.095.678.026 1.079-1.079 6.279.863 12.421.916 18.725.642.118 1.343-.184 1.735-1.053z" fill="#F9EBD2" data-color="1"></path>
        <path d="M54.282 123.524c-2.686-.506-5.355-.703-8.064-.476-.992.083-1.516 1.122-1.581 2.185.057.017.113.026.173.054 3.29 1.507 7.017 4.111 10.349 1.911.172-.407.291-.891.34-1.486.071-.873-.562-2.064-1.217-2.188z" fill="#F9EBD2" data-color="1"></path>
        <path d="M182.975 81.536A11.338 11.338 0 0 1 181.41 83c.469.09.954.083 1.423-.061a6.584 6.584 0 0 0 2.222-1.181 2.828 2.828 0 0 1-1.262-.662c-.253.201-.53.348-.818.44z" fill="#F9EBD2" data-color="1"></path>
        <path d="M195.87 50.448a.947.947 0 0 0-.006-.396l-.002-.01c-.003-.073-.001-.146-.004-.219a.392.392 0 0 0-.036-.016 8.25 8.25 0 0 1-.162-1.557c-.007-1.057-1.343-1.233-1.821-.552a6.801 6.801 0 0 0-1.139.084c-.221.225-.45.443-.694.646-.96.797-2.007 1.631-3.15 2.155a7.484 7.484 0 0 1-1.199.419c-.423.41-.813.846-1.168 1.313.085.52.17 1.041.252 1.562.126.218.274.423.446.61.034.086.065.174.094.263a4.78 4.78 0 0 1 .546 2.445c.086.754.138 1.509.167 2.264.18.989.318 1.993.398 3 .227.6.328 1.235.303 1.904 0 1.033-.064 2.021-.202 3.046-.084.627-.144 1.262-.324 1.871-.038.13-.081.258-.124.387-.036.234-.072.468-.11.702-.609 3.77-1.868 7.47-3.885 10.697 1.672-1.4 3.036-3.04 4.354-4.78a25.636 25.636 0 0 0 2.834-4.755c.98-2.127 1.824-4.309 2.381-6.586.124-.505.236-1.015.338-1.526a38.176 38.176 0 0 0 1.913-12.971z" fill="#F9EBD2" data-color="1"></path>
        <path d="M196.616 47.051c.159 7.921-.878 14.43-2.796 19.807-2.096 5.902-5.287 10.472-9.174 14.007a24.444 24.444 0 0 0 2.192-4.397c2.734-7.25 4.027-12.475-.192-25.146-.413-.699-.746-.568-1.036 0 4.384 12.847 3.038 17.821.468 24.607-1.107 2.947-2.747 5.471-4.804 7.634-6.898 4.858-15.346 7.197-23.632 8.297-2.964.393-5.904.633-8.74.778-.007-.001-.028.002-.068-.001 0 0-.036.008-.036.006l-.033-.002s-.041.008-.044.005l-.037-.002-.03.006c-.265.011-.499.024-.732.035-1.989.086-3.921.131-5.768.154l-2.949-.024a818.314 818.314 0 0 0-9.108-.028c-7.433.026-14.677.225-21.786.883-13.381 1.237-26.294 4.129-39.081 10.636 2.71-3.422 5.277-8.703 5.641-13.109.087-1.106-.051-2.031-.388-2.732-1.112-2.155-3.501-1.707-5.21-.188a6.1 6.1 0 0 0-.958 1.098c-1.308 1.912-1.626 4.822-1.763 7.799-.129 2.981-.057 6.085-.393 8.336a8.9 8.9 0 0 1-.06.46c-.352.196-.703.399-1.059.596 0 0-.135.069-.148.091a100.873 100.873 0 0 0-8.949 5.818c.883-1.353 1.693-2.945 2.397-4.614.02-.037.046-.093.068-.156.995-2.391 1.763-4.926 2.169-7.15.047-.267.091-.535.131-.805.154-1.045.26-2.142.142-3.204a3.538 3.538 0 0 0-.018-.144c-.072-.536-.212-1.067-.45-1.508-.241-.448-.61-.744-.972-.983-.3-.199-.63-.388-.957-.486-.779-.235-1.629-.149-2.308.466-1.951 1.767-2.994 6.397-3.747 11.016-.73 4.609-1.075 9.242-1.265 10.772-.01.084-.045.382-.067.555a122.287 122.287 0 0 0-5.731 4.984c.758-2.94 1.069-6.596 1.319-8.816.249-2.32 1.051-4.766 1.238-7.361.025-.373.034-.749.031-1.116-.021-1.471-.246-2.741-.653-3.702-.531-1.324-1.58-2.063-2.657-1.477-.036.02-.069.037-.101.052-.12.071-.23.146-.34.235-.545.436-1.095 1.15-1.633 2.184-1.777 3.397-1.592 7.469-.984 11.445.563 3.66 1.483 7.325 1.72 10.466-.873.817-1.742 1.641-2.605 2.477-1.713 1.662-3.411 3.35-5.103 5.029-7.087 7.045-14.105 13.942-21.935 18.047-3.399 1.785-6.951 3.044-10.735 3.561-.867.492-.137 1.349.507 1.254 3.599-.533 7.128-1.825 10.505-3.597 7.968-4.182 15.046-11.154 22.136-18.196 1.692-1.682 3.387-3.367 5.094-5.023.826-.8 1.658-1.589 2.494-2.371l.014.078a4.337 4.337 0 0 0 .187.636c.756 2.01 2.66 3.324 4.696 4.141 2.098.814 4.344 1.059 5.805.49.348-.14.658-.329.915-.601.951-.985 1.31-2.199 1.069-3.282-.276-1.232-1.113-2.092-2.03-2.721a6.238 6.238 0 0 0-.796-.459c-.44-.213-.979-.333-1.589-.426-1.976-.26-4.689-.004-6.631.623a121.576 121.576 0 0 1 6.276-5.477c3.288 2.954 9.136 5.1 12.905 3.647.781-.308 1.354-.832 1.701-1.524 1.038-2.224-.167-5.083-1.84-6.676a5.03 5.03 0 0 0-1.104-.8c-1.479-.775-3.165-.43-4.874.25a99.298 99.298 0 0 1 6.276-4.008c1.644 2.132 3.538 4.514 5.425 6.181 1.088.959 2.627 1.565 4.305 1.839 2.061.331 4.325.143 6.161-.735a6.315 6.315 0 0 0 1.153-.686l.028-.023a5.619 5.619 0 0 0 1.536-1.728c.464-.81.72-1.576.766-2.325a3.44 3.44 0 0 0-1.19-2.849c-.718-.635-1.633-1.022-2.57-1.258a7.18 7.18 0 0 0-.387-.076c-3.408-.515-8.494 1.931-12.156 1.313a5.198 5.198 0 0 1-1.576-.505c8.364-4.697 16.772-7.753 25.331-9.73l.626.334c6.369 3.297 11.875 3.8 18.121 2.796 4.377 12.982 8.953 16.87 14.224 16.654 2.118-.087 4.172-.754 6.131-1.519 2.327-.909 4.585-1.986 6.888-2.953 1.962-.824 3.981-1.428 5.981-2.139.119-.042.25-.098.298-.215.075-.182-.094-.364-.244-.491-.653-.552-1.223-1.234-1.765-1.897a110.036 110.036 0 0 0-1.711-2.032 29.454 29.454 0 0 0-2.49-2.581c-1.46-1.33-3.088-2.474-4.881-3.31-1.643-.766-3.392-1.262-5.169-1.605a38.61 38.61 0 0 0-1.169-.206 1265.66 1265.66 0 0 1 3.198-.187c.582-.028 1.17-.064 1.764-.094.444-.02.895-.048 1.342-.068.14-.008.279-.019.413-.026l1.112-.057c.795-.046 1.601-.085 2.417-.131.526-.033 1.054-.061 1.585-.094 9.61-.583 20.103-1.568 29.035-4.552 5.612-1.881 10.63-4.542 14.416-8.454 5.571-3.905 10.205-9.451 13.034-17.349 1.998-5.597 3.055-12.353 2.891-20.46-.003-.829-.87-.439-.87.069zM51.814 123.316c.574.086 1.07.206 1.398.367.237.11.47.25.704.405.805.529 1.439 1.303 1.58 1.97l.007.032c.106.55.022 1.159-.776 2.04-.139.15-.354.294-.631.403-1.175.481-3.364.291-5.336-.491-1.961-.75-3.702-2.125-4.193-3.6a.704.704 0 0 0-.039-.12l-.011-.037c.131-.065.273-.128.425-.188 1.787-.717 4.843-1.059 6.872-.781zm-7.744-.969c-.315-3.158-1.169-6.589-1.677-9.93-.595-3.896-.716-7.561.842-10.523.486-.936.959-1.527 1.368-1.853a1.964 1.964 0 0 1 .315-.204c.685-.323 1.156-.018 1.611.974l.005.011c.308.724.516 1.813.534 3.118.002.327-.006.665-.027.99-.156 2.329-.948 4.759-1.233 7.296-.274 2.658-.736 7.391-1.738 10.121zm9.165-17.194c.697-4.535 1.87-9.026 3.371-10.275a1.9 1.9 0 0 1 .142-.113c.939-.695 2.511-.018 3.068 1.202.569 1.247.178 2.993-.07 4.304-.381 2.095-1.125 4.555-2.085 6.86l-.029.062-.019.047c-1.224 2.927-2.808 5.592-4.397 6.975a5.007 5.007 0 0 1-1.14.766c.207-2.057.544-5.943 1.159-9.828zm9.664 7.894c.324.169.637.398.928.672a6.345 6.345 0 0 1 1.631 2.601c.302.956.306 1.809-.011 2.441l-.002.003c-.21.419-.586.803-1.233 1.061-3.205 1.306-8.732-.563-11.841-3.185.352-.281.704-.56 1.056-.834 1.322-.591 2.732-1.394 4.115-2.035 2.018-.946 3.95-1.492 5.357-.724zm4.705-3.918c4 .619 9.145-1.833 12.156-1.314.114.018.228.043.334.066.844.209 1.657.574 2.194 1.054.544.502.771.974.739 1.627-.025.421-.182.98-.579 1.668a4.605 4.605 0 0 1-1.234 1.389l-.023.013-.027.021c-.3.233-.639.433-1.013.607-1.65.795-3.802.988-5.734.673-1.572-.249-3-.845-3.877-1.628-1.347-1.187-2.743-2.813-4.055-4.458.362.128.736.22 1.119.282zm-.537-3.931c.281-2.343.216-5.238.338-7.954.121-2.916.481-5.571 1.532-7.065.236-.347.51-.657.805-.923.739-.668 1.621-1.062 2.375-1.086.76-.022 1.339.295 1.647.936l.001.003c.204.424.322 1.046.252 1.964-.339 4.725-3.93 11.328-6.95 14.125zm74.76 4.857c-6.995 2.261-12.637 6.012-17.443 6.168-4.58.141-8.519-2.751-12.591-13.637 6.064 4.971 14.906 11.574 21.908 7.806a9.408 9.408 0 0 0 1.295-.853c.037-.027.643-.565.661-.578l-.706-.563-.209-.172-.002.002c-6.524-5.322-15.838-8.338-23.533-7.257l-.132-.383c.325-.059.653-.121.982-.187 11.782-2.125 20.586-2.272 29.77 9.654zm-29.094-8.059c7.075-.599 15.249 2.213 21.228 6.961a8.907 8.907 0 0 1-.577.347c-6.211 3.455-14.652-2.398-20.651-7.308zm54.31-10.034c-8.824 2.949-19.279 3.939-28.872 4.518-.529.033-1.058.063-1.585.095-.811.047-1.617.086-2.414.131l-1.113.057a70.21 70.21 0 0 1-.412.026c-.447.02-.898.048-1.338.069-.6.03-1.189.065-1.768.093-.632.035-1.256.071-1.871.108-5.286.304-9.879.685-13.244 1.512-7.73 1.862-13.808 2.061-21.027-1.393 4.922-1.041 9.896-1.747 14.944-2.214 7.085-.656 14.309-.855 21.734-.881 2.999-.012 6.031.005 9.102.027l2.954.025c1.857-.022 3.797-.068 5.794-.156.245-.011.487-.024.733-.036-.008.001.016.002.051-.002.014 0 .033 0 .056-.002.021 0 .053 0 .088-.005l.032-.002v-.001c2.875-.146 5.83-.385 8.81-.78 5.69-.766 11.494-2.099 16.851-4.453-2.3 1.293-4.823 2.371-7.505 3.264z" fill="#070707" data-color="2"></path>
    </g>
</svg>