<svg preserveAspectRatio="xMidYMid meet" data-bbox="30.995 2 138.005 196.002" viewBox="30.995 2 138.005 196.002" height="200" width="200" xmlns="http://www.w3.org/2000/svg" data-type="color" role="presentation" aria-hidden="true">
    <g>
        <path d="M73.708 138.965c.027.01.054.015.081.027a5.18 5.18 0 0 1 1.46.967c.428.315.833.655 1.229 1.005.334-.116.662-.297.972-.521a1.369 1.369 0 0 1-.4-.885c-.194-2.457-.472-4.976-2.256-6.833-1.751-1.823-4.046-3.137-6.026-4.72-.134-.057-.263-.127-.399-.182-.009-.064-.032-.126-.043-.19-.358-.351-.432-.763-.319-1.138a9.826 9.826 0 0 0-.5-1.131c-1.562-.907-3.056-1.897-4.276-3.377-.098-.119-.188-.244-.284-.364-.082-.05-.164-.096-.247-.147-.905-.552-1.687-1.67-2.268-2.531-.697-1.032-1.255-2.154-1.732-3.304-.459-1.107-.725-2.268-1.066-3.415-.365-1.228-1.041-2.028-1.765-3.035-.461-.641-.927-1.282-1.473-1.855a14.726 14.726 0 0 0-3.055-2.438c-2.247-1.355-4.796-2.131-7.369-2.56-3.44-.572-5.916-1.573-8.66-2.939a.95.95 0 0 0-.317-.173l-.002-.002c-.28-.233-.564-.461-.85-.686-.091-.118-.165-.278-.231-.393-.257-.449-.903-.644-1.348-.355a1.068 1.068 0 0 0-.439.571l-.007.013c-.273.519-.089 1.022.354 1.354l.304.23.007.005c.194.233.406.45.634.651l-.064.069c.74 3.549 2.412 6.707 3.726 10.079.777 1.993 1.494 4.007 2.216 6.02.767 1.369 1.59 2.666 2.484 3.836 3.638 4.762 8.821 8.649 13.393 12.722 1.988.065 3.544.918 5.414 1.532 3.019.99 6.267 1.127 9.285 2.114a13.429 13.429 0 0 1 3.837 1.979z" fill="#FFF5E1" data-color="1"></path>
        <path d="M35.662 54.978c.293 2.806.397 5.627.279 8.448-.158 3.775-1.003 7.617 1.253 11.012 1.842 2.771 4.784 4.703 7.314 6.793l5.708 4.714c.948 1.166 2.025 2.225 3.163 3.208a64.03 64.03 0 0 0 2.73 2.201c.447.346.897.69 1.345 1.035a68.809 68.809 0 0 1 .503.39c.234.182.466.365.698.549a42.81 42.81 0 0 1 2.16 1.828c-.102.509-.023 1.076.32 1.654.754 1.273 1.47 2.522 1.987 3.843.445.047.839.332.944.925.396 2.244.953 4.465 2.474 6.226.933 1.079 2.109 1.887 3.178 2.817.585-.338.999-.927 1.172-1.586a17.357 17.357 0 0 1-1.654-2.973c-.241-.083-.339-.552-.386-.941a21.162 21.162 0 0 1-.472-1.437 1.245 1.245 0 0 1-.445-.671c-.536-1.859-.783-3.778-.904-5.705a41 41 0 0 0-1.298-2.356 96.775 96.775 0 0 1-.522-5.501c.152-.528.273-1.066.476-1.605.291.032.591-.061.843-.259a4.984 4.984 0 0 0 1.416-1.791c.31-.151.622-.29.918-.416a.867.867 0 0 0 .022.084c.162.503.682.847 1.212.691 2.717-.8 4.982-2.602 6.909-4.631.337-.355.666-.719.99-1.086 2.257-.268 3.961-1.25 5.364-3.044 2.126-7.281 3.668-14.898 2.529-22.49-.131-.872-.22-1.846-.511-2.672-.356-1.011-.735-2.014-1.102-3.02-.204-.558-.407-1.117-.604-1.677a69.382 69.382 0 0 1-1.919-6.475c-.513-2.104-.786-4.197-1.117-6.333a.745.745 0 0 0-.18-.373l-.187-3.474c-.129-2.413-.196-4.839-.386-7.248-.103-1.308-.386-2.389-1.343-3.347-.772-.772-1.692-1.435-2.525-2.139a3.55 3.55 0 0 0-1.082-.63l-.081-.088a8.317 8.317 0 0 0-.526-.503c-.095-.426-.469-.791-.919-.794a7.398 7.398 0 0 1-.439-.434c-.041-.045-.08-.093-.121-.138l-.018-.019-.009-.013c-.158-.214-.323-.381-.589-.455-.236-.065-.55-.036-.759.1-.409.265-.681.909-.354 1.354.292.397.614.748.975 1.076.019.107.057.213.114.315 1.085 1.944 1.596 4.148 1.865 6.344.137 1.113.212 2.233.268 3.352.051 1.011.206 2.08.168 3.088l-.258 6.894-.054 1.436a6.489 6.489 0 0 0-.569.29 6.395 6.395 0 0 0-.68.455c.048.095.07.198.066.307l-.001.04a2.59 2.59 0 0 1-.031.23l-.004.018a.978.978 0 0 1-.248.425.817.817 0 0 1-.361.211l-.218.029a.8.8 0 0 1-.408-.11c-.168.2-.328.408-.474.623a61.82 61.82 0 0 1-.035-1.054c-.001-.031-.299-.268-.337-.34-.105-.203-.067-.349-.063-.56.01-.495.019-.99-.022-1.495a27.875 27.875 0 0 0-.47-3.227 44.617 44.617 0 0 0-3.635-10.741c-.701-1.442-1.296-2.927-2.009-4.36a60.864 60.864 0 0 1-3.159-7.585l-.001-.003a10.351 10.351 0 0 1-.123-.233c-.329-.641-.624-1.299-.972-1.93a9.399 9.399 0 0 0-.569-.917l-.067-.092c-.05-.06-.099-.121-.151-.18a9.709 9.709 0 0 0-.376-.41c-.94-.969-2.04-1.758-3.059-2.639-.234.33-.297.776-.065 1.144.091.144.188.282.288.417a1.158 1.158 0 0 0-.03.105c-.084.372-.073.808.148 1.136.029.044.057.088.082.134.061.199.161.388.294.55.009.073.023.147.044.221.2.727.385 1.458.553 2.193.01.042.022.084.036.124a1.18 1.18 0 0 1-.772.326c.457 1.09.93 2.171 1.439 3.233a7.545 7.545 0 0 0-.99-.554 5.644 5.644 0 0 0-.157-.389c-.35-.78-.974-1.37-1.649-1.865-.524-.385-1.118-.658-1.702-.936a20.729 20.729 0 0 1-1.835-.984 21.633 21.633 0 0 1-1.878-1.286c-.279-.22-.529-.38-.892-.429-.331-.045-.702-.002-.991.185a1.863 1.863 0 0 0-.558.56c-.232.362-.229.8-.157 1.203.063.353.208.686.351 1.015.07.18.13.362.172.55.01.178.005.356-.009.534-.096.532-.26 1.048-.42 1.564-.179.575-.359 1.149-.546 1.721a44.807 44.807 0 0 1-1.168 3.22c-.25.579-.519 1.149-.813 1.706-.053.083-.1.171-.142.265-.275.504-.57.996-.89 1.473-.192.286-.245.722-.185 1.072-.14.166-.242.354-.305.565-.673 1.537-1.496 3-2.302 4.469-.844 1.538-1.647 3.098-2.36 4.702-.76 1.707-1.445 3.451-1.987 5.241-.55 1.818-.93 3.67-1.172 5.554a26.43 26.43 0 0 0-.218 3.676 76.425 76.425 0 0 0-.243 3.556c.153 1.074.319 2.15.472 3.224z" fill="#FFF5E1" data-color="1"></path>
        <path d="M83.734 139.392c-.767-6.246-1.94-12.015-5.144-17.455-1.143.224-2.164 1.236-1.799 2.705l2.268 9.139c.436.068.842.338 1.019.873.864 2.607 2.345 4.962 2.938 7.662.356.231.731.337 1.098.346-.014-.734.086-1.536.337-2.23a1.331 1.331 0 0 1-.717-1.04z" fill="#FFF5E1" data-color="1"></path>
        <path d="M84.511 114.733c.263 5.552.962 11.079 2.887 16.304 1.063 2.883 2.477 5.442 4.151 7.902.468.654.937 1.306 1.402 1.963.233.312.466.624.707.935.69.89 1.33 1.799 1.939 2.723.014.051.034.099.049.15a226.241 226.241 0 0 0 4.042 5.569c2.192 2.904 4.299 5.692 5.757 8.982 1.405 2.319 2.465 4.814 3.399 7.393.075.03.149.064.228.087-.224-3.11-.809-6.328-.923-9.482-.307-.2-.514-.543-.479-1.038.046-.673.084-1.345.12-2.017-.486-.779-.737-1.736-.557-2.845.471-2.895.387-5.91.1-8.871a55.437 55.437 0 0 1-1.184-5.194c-.637-1.97-1.46-3.425-2.501-4.678-2.019-1.655-4.101-3.287-6.208-5.011-3.375-2.762-5.551-6.512-6.84-10.603a33.65 33.65 0 0 1-.788-2.11c-.053-.011-.101-.037-.154-.044-.008-.156-.007-.313-.014-.469l-.003-.009a1.222 1.222 0 0 1-.019-.706c-.011-.275-.013-.55-.022-.825a36.885 36.885 0 0 1-.453-3.905c-.471-1.777-.865-3.566-1.105-5.39a2.93 2.93 0 0 0-1.846-.152c-.902 3.724-1.05 7.568-1.685 11.341zm8.584 16.606a103.09 103.09 0 0 0 4.034 5.996 2.282 2.282 0 0 0-.382.052c-1.47-2.003-2.844-4.053-3.855-6.38.068.11.134.222.203.332z" fill="#FFF5E1" data-color="1"></path>
        <path d="M89.268 160.273c.41.271.817.537 1.207.801a99.414 99.414 0 0 0 3.54 2.274c.042.004.079-.007.122.001 2.803.513 5.71 1.969 7.78 3.972a2.04 2.04 0 0 0 .547-.333 1.344 1.344 0 0 1-.294-.198c-2.259-2.032-4.561-4.031-7.026-5.808-2.15-1.55-4.392-3.046-6.134-5.075-1.754-2.044-2.351-4.834-3.041-7.369-.68-.625-1.864-.71-2.621-.264-.306.18-.535.406-.7.659.145.197.284.407.405.653 1.89 3.85 3.404 7.555 6.215 10.687z" fill="#FFF5E1" data-color="1"></path>
        <path d="M158.786 192.587c-6.236 3.505-13.968.828-20.352-.835l-7.671-1.999c-2.986-.058-6.004-.239-8.81-1.237-3.085-1.097-4.994-3.817-7.14-6.155-.537-.585-1.084-1.185-1.396-1.916-.209-.49-.307-1.027-.568-1.492-.219-.391-.542-.711-.814-1.066-.767-1.004-1.118-2.283-1.901-3.274-.553-.699-1.302-1.231-1.805-1.967-.452-.662-.74-1.519-1.462-1.864a1.525 1.525 0 0 0-.636 1.543c.078.375.295.703.508 1.021.579 1.164 1.51 2.254 2.234 3.335a6816.88 6816.88 0 0 1 2.293 3.426c.958 1.432 1.981 2.846 2.896 4.302.833 1.325 1.701 2.441 2.944 3.415 1.142.895 2.4 1.615 3.657 2.331 1.167.665 2.538 1.474 3.844 1.814l11.671 3.042c3.855 1.005 7.702 2.104 11.655 2.645 1.125-.192 2.257-.369 3.349-.685 1.459-.423 2.522-1.345 3.864-1.967a9.756 9.756 0 0 1 2.011-.664c1.303-.556 2.777-.819 4.176-.862-.418-.889-1.445-1.511-2.547-.891z" fill="#FFF5E1" data-color="1"></path>
        <path d="M121.135 191.623a23.361 23.361 0 0 1-10.813-3.289c-3.303-1.98-6.06-4.704-8.704-7.483-2.635-2.77-5.214-6.452-8.956-7.732-2.021-.691-4.179-.552-6.276-.681-1.853-.114-3.653-.646-5.296-1.506a2.935 2.935 0 0 0-.783-.281l-1.247-1.42a.797.797 0 0 0-.152-.133 19.58 19.58 0 0 1-.088-.216c-.71-1.769-1.24-3.621-2.201-5.28-2.298-3.967-6.365-5.16-10.692-5.192-.5-.004-.95.138-1.329.377-.494-.674-1.326-1.129-2.132-1.129a2.4 2.4 0 0 0-1.32.392c-.328 2.34-.317 4.962.277 7.259.608 2.348 1.811 4.501 3.156 6.498.606.9 1.256 1.791 2.117 2.448.756.577 1.645.95 2.545 1.253 2.392.806 4.933.981 7.326 1.768a9.256 9.256 0 0 1 2.576 1.305c.066.02.133.035.198.056.138-.005.282.028.428.085l.029-.022c1.835.865 3.658 1.775 5.342 2.915 2.831 1.918 4.875 4.81 7.675 6.784 1.181.832 2.467 1.501 3.703 2.248.692.418 1.372.863 2.111 1.189.525.231 1.074.4 1.622.568 5.765 1.771 11.886 4.097 18.009 2.96 1.89-.351 3.587-1.073 5.414-1.239-.002-.088 0-.178-.012-.262-.196-1.301-1.218-2.172-2.527-2.24z" fill="#FFF5E1" data-color="1"></path>
        <path d="M168.99 191.67a.24.24 0 0 0-.086-.14c-.063-.049-.153-.057-.227-.083l-.322-.111a7.775 7.775 0 0 0-.532-.165c-5.995-1.589-13.096 2.219-18.985 2.115-6.092-.072-11.323-2.073-17.347-3.446-2.374-.54-4.856-.873-7.229-1.522-1.898-.518-3.722-1.233-5.38-2.403-3.926-2.763-5.446-7.377-8.196-11.31-.039-.195-.088-.39-.089-.593-.002-.548.22-1.102.348-1.63a36.64 36.64 0 0 0 .359-1.642c.208-1.062.37-2.132.482-3.208.219-2.105.241-4.226.103-6.337-.146-2.233-.465-4.451-.872-6.649-.063-.34-.128-.68-.195-1.02-1.01-5.123-1.951-10.226-3.347-15.296-1.228-4.543-2.755-6.426-6.281-9.177a30.207 30.207 0 0 1-3.201-2.888 27.806 27.806 0 0 1-2.57-3.098 27.925 27.925 0 0 1-2.01-3.282 31.51 31.51 0 0 1-1.538-3.453 38.99 38.99 0 0 1-1.155-3.612 54.194 54.194 0 0 1-.86-3.758 86.524 86.524 0 0 1-.653-3.892 180.524 180.524 0 0 1-.535-4.013 714.86 714.86 0 0 1-.251-2.048l-.126-1.034c-.021-.175-.033-.352-.056-.527-.021-.162-.014-.337-.064-.495-.077-.243-.365-.411-.608-.289-.218.11-.305.406-.37.622l-.174.578a146.311 146.311 0 0 0-.957 3.364c-2.387 8.855-3.613 17.78-1.027 27.131 1.037 3.729 3.792 6.837 5.673 9.933 2.317 3.775 3.416 8.387 6.479 11.954 3.988 4.629 6.992 9.292 9.656 14.839 1.054 2.151 3.011 5.806 2.877 8.237-2.646-3.35-6.043-6.316-9.078-9.107-1.742-1.601-3.534-3.145-5.289-4.731-.643-.581-1.252-1.225-1.921-1.776-.811-.667-1.476-1.443-2.188-2.208a34.61 34.61 0 0 1-1.833-2.126c-1.142-1.445-2.148-3.002-2.922-4.677a19.715 19.715 0 0 1-1.672-5.906c-.839-6.788-2.463-15.159-5.623-21.254-2.407-4.624-6.091-8.57-8.414-12.955-3.22-6.067-4.333-12.607-4.202-19.297l.003-.067a.379.379 0 0 0 .065.163c.163.257.363.378.641.192.174-.117.349-.231.524-.346.324-.213.648-.424.975-.631a31.864 31.864 0 0 1 1.788-1.063 24.428 24.428 0 0 1 3.633-1.59c3.13-1.089 5.983-3.496 8.026-6.051 1.307-1.638 2.136-4.01 2.798-6.454.633-2.355 1.1-4.78 1.602-6.643l.007-.022c.008-.034.008-.034.016-.058 1.06-3.944 1.948-8.068.896-12.129-1.263-4.826-3.682-8.681-4.59-13.634-.7-3.757-2.031-7.229-2.5-10.924-.257-1.975.199-4.011.082-6.125-.235-3.417-3.028-5.891-5.758-7.55-2.358-1.433-4.953-2.387-7.508-3.375-.063-.024-.118-.041-.16-.054l-.004.014c-.041-.008-.076-.014-.103-.021-.426.274-.464.559-.179.853l.027.005-.017.056a42.79 42.79 0 0 1 1.57.52l.007.007.048.017c2.876 1.645 3.448 6.219 3.989 9.439.475 2.744 1.123 4.864 1.1 7.485-.027 2.989-.331 6.018-.324 9.062-.366-1.759-.32-3.649-.794-5.51-.709-2.714-2.006-5.715-3.037-8.258-1.989-4.916-4.443-9.337-6.56-14.111-1.481-3.358-2.124-4.98-5.369-7.26-1.3-.91-2.966-2.536-4.795-3.048-.489-.137-1.539-.365-1.908.128-.102.136-.11.355.025.459.547.421 1.277.65 1.889.962 1.076.55 2.307 1.148 3.005 2.179 1.074 1.577.379 4.541 1.029 6.895-.461-.369-1.025-.716-1.705-1.072-1.267-.654-2.407-1.538-3.605-2.306a17.888 17.888 0 0 0-1.989-1.13c-.64-.302-2.59-1.367-2.198.257.183.757.131 1.632.066 2.407-.1 1.188-.346 2.362-.658 3.511-.864 3.216-2.354 6.52-3.298 8.145a337.281 337.281 0 0 1-6.746 11.141c-1.474 2.325-2.423 4.209-2.924 6.07-.754 2.791-.47 5.469.455 9.352.743 3.069 2.038 5.74 1.59 8.725a5.077 5.077 0 0 1-.121.563c-.208.783-.593 1.592-.834 2.48-.06.224-.111.454-.145.689-.418 2.805-.595 6.811-.052 9.618 1.102 5.449 7.642 8.814 11.135 11.874 2.887 2.484 5.233 5.534 8.406 7.999 4.983 3.855 7.029 7.712 9.296 9.723.026.072.053.142.08.211l.099-.038c.016 1.816.194 3.496.671 4.871 1.165 3.208 4.982 4.432 6.899 6.38 5.215 5.185 4.769 8.412 5.763 15.025.785 5.158 3.872 8.393 5.283 13.098.868 2.844.865 5.978 1.198 9.057-2.322-4.759-3.171-11.178-6.311-15.654-1.582-2.243-3.418-4.469-5.75-6.335-2.902-2.29-5.436-2.633-7.501-5.62-2.038-2.935-3.493-6.947-4.228-10.454-.797-3.882-2.948-6.526-6.52-8.737-1.551-.967-3.217-1.608-4.936-2.077-3.951-1.075-8.187-1.26-12.081-2.325a22.44 22.44 0 0 1-2.162-.704c-.365-.141-.738-.259-1.095-.421-.309-.14-.569-.361-.825-.579-.2-.17-.634-.689-.927-.394-.135.136.012.522.059.685.088.308.145.366.183.608l.002.009.005.015c.298 1.448-.001 3.138.475 4.705 1.721 5.488 4.932 11.5 7.607 16.664 4.549 8.814 10.327 13.017 19.452 16.585 1.322.519 2.635.936 3.943 1.293 3.163.862 6.287 1.371 9.437 2.103.171.039.336.08.497.124 1.422.393 2.423.934 3.671 2.109 1.321 1.246 2.332 2.998 3.316 4.785 1.1 2.001 2.164 4.044 3.713 5.472.102.17.207.337.319.503.11.556.241 1.117.406 1.672 1.307 4.381 4.675 6.829 8.342 8.925 3.679 2.098 7.696 3.894 10.518 6.884 2.775 2.929 5.499 7.257 7.306 11.079 1.384 2.916 2.161 5.035 3.458 6.739 1.3 1.707 3.116 2.912 6.386 3.945 1.269.402 2.566.814 3.883 1.228-1.983-.205-3.571-.497-4.905-.86-4.103-1.118-5.84-2.924-9.38-5.145-5.502-3.405-9.923-12.09-17.065-14.081a10.886 10.886 0 0 0-.934-.212c-2.811-.485-5.708.567-7.782-.028a3.788 3.788 0 0 1-.703-.267c-2.699-1.34-4.715-4.43-6.015-7.191-1.489-3.212-2.724-4.557-5.098-5.184-.803-.219-1.726-.368-2.843-.516a12.697 12.697 0 0 1-1.645-.336c-1.503-.41-2.913-1.079-4.351-1.668-.373-.153-.743-.316-1.124-.45-.562-.197-1.126-.374-1.682-.59a1.03 1.03 0 0 0-.241-.073.345.345 0 0 0-.242.046c-.117.079-.144.225-.184.353a5.19 5.19 0 0 0-.126.459 20.774 20.774 0 0 0-.418 2.946 21.379 21.379 0 0 0 .083 3.878c.147 1.301.414 2.59.806 3.839a18.427 18.427 0 0 0 1.563 3.61 16.523 16.523 0 0 0 2.355 3.192 15.804 15.804 0 0 0 1.049 1.01c.108.095.272.19.358.305 1.236 1.017 2.622 1.621 4.055 2.012 3.034.823 6.299.73 9.066 1.489 1.78.49 3.338 1.299 4.578 2.903 4.171 5.418 8.762 9.324 15.332 12.134a37.532 37.532 0 0 0 4.867 1.678c1.77.483 3.567.854 5.383 1.157 3.914.647 7.464-.029 11.259-.288 1.283-.096 2.406-.887 3.457-1.603.481-.337.967-.674 1.485-.952.214-.115.434-.221.663-.3.658-.228 1.384-.172 2.077-.127.424.132.847.267 1.272.395.864.26 1.73.516 2.597.766.807.232 1.616.46 2.426.681 4.04 1.102 8.098 2.044 11.995 2.611 2.851.419 4.782-.231 6.525-1.104 1.749-.873 3.33-1.931 5.681-2.478.598-.141 1.196-.284 1.795-.424.674-.159 1.349-.315 2.025-.464.7-.155 1.402-.303 2.106-.439a43.92 43.92 0 0 1 2.036-.348 20.892 20.892 0 0 1 1.816-.192c.12-.007.247-.025.368-.018.11.007.232.044.336-.011a.365.365 0 0 0 .124-.126c.089-.13.206-.406.161-.598zm-96.048-53.573a12.118 12.118 0 0 0-.531-.132c-3.185-.741-6.298-1.248-9.403-2.095a37.782 37.782 0 0 1-3.856-1.265c-9.036-3.555-14.518-7.544-18.998-16.177-2.68-5.166-5.868-11.154-7.549-16.522-.199-.611-.238-1.315-.26-2.066 1.317 2.447 3.333 5.192 4.265 6.946 1.3 2.417 2.212 4.889 3.92 7.098 3.267 4.2 6.579 9.739 11.419 12.622 1.067.636 2.178 1.06 3.302 1.366 2.725.74 5.518.811 8.046 1.505 1.438.392 2.788.977 4.02 1.983 2.545 2.075 4.689 4.899 7.118 7.27a9.364 9.364 0 0 0-1.493-.533zm7.584 7.434c.09-2.873-2.968-5.183-4.652-6.742-2.707-2.418-5.053-5.683-8.011-8.105-1.347-1.101-2.825-1.735-4.339-2.148-2.666-.724-5.456-.795-8.046-1.505-1.068-.291-2.103-.688-3.089-1.275-4.576-2.707-7.876-8.14-11.176-12.409-1.607-2.068-2.509-4.486-3.841-6.974-1.222-2.268-4.04-6.018-5.032-8.559 1.135.536 2.308.943 3.499 1.268 4.02 1.094 8.258 1.279 12.081 2.326 1.662.454 3.244 1.066 4.706 1.976 3.449 2.157 5.361 4.529 6.128 8.177.759 3.6 2.233 7.693 4.367 10.773 2.289 3.262 5.009 3.655 7.671 5.802 2.243 1.795 4.029 3.952 5.584 6.159 2.536 3.568 3.53 8.697 5.244 13.196-.369-.631-.729-1.292-1.094-1.96zm-13.088 13.768c.559.153 1.141.276 1.757.359 1.104.146 1.995.292 2.731.493 2.122.601 3.024 1.539 4.543 4.718 1.347 2.835 3.405 6.083 6.412 7.598.28.14.568.246.862.327 2.491.65 5.36-.429 7.855.046.291.053.577.117.861.194 6.627 1.765 11.058 10.308 16.834 13.98 3.439 2.148 5.316 4.074 9.611 5.247.147.04.296.079.448.117-3.148-.233-6.233-.728-9.303-1.565a45.525 45.525 0 0 1-4.355-1.429c-7.994-3.077-13.585-8.114-20.633-12.923-1.726-1.176-3.641-1.855-5.591-2.388-1.655-.45-3.336-.797-4.963-1.243-1.659-.453-3.26-1.005-4.721-1.86-1.66-.958-3.078-3.175-4.293-4.972-1.56-2.199-1.833-6.32-3.681-8.855 1.867.668 3.575 1.593 5.626 2.156zm55.578 34.779c-1.042.724-2.086 1.397-3.026 1.452-3.865.271-7.333.919-11.059.298a53.478 53.478 0 0 1-5.297-1.137 36.598 36.598 0 0 1-4.755-1.64c-6.436-2.758-10.875-6.532-14.986-11.866-1.373-1.783-3.147-2.696-5.036-3.209-2.942-.796-6.201-.703-9.066-1.489-1.353-.37-2.614-.927-3.733-1.845-5.163-4.241-6.801-11.599-5.546-17.698 2.129 1.926 2.393 6.711 4.269 9.546 1.215 1.773 2.632 4.088 4.571 5.233 1.558.911 3.235 1.486 4.929 1.948 1.662.452 3.344.8 4.963 1.243 1.909.52 3.727 1.173 5.333 2.268 6.986 4.76 12.638 9.865 20.808 13.015a46.323 46.323 0 0 0 4.438 1.456l.01.003c4.659 1.271 9.346 1.762 14.177 1.758-.333.21-.662.44-.994.664zM88.169 96.976c.001.007.002.015.005.022l-.005-.022zm-.205 5.367c1.331 10.408 3.258 19.984 12.7 27.396 3.479 2.753 4.746 4.288 5.979 8.723 1.383 5.022 2.32 10.103 3.331 15.233 1.121 5.697 1.515 10.435.723 15.507-.297-6.828-2.418-13.194-4.71-18.944-3.497-8.723-10.846-14.817-15.118-23.034-3.694-7.05-3.25-16.358-2.905-24.881zm22.425 72.042c-.002.002-.002.002-.001-.002l.001.002zm-2.76-9.677c-2.692-5.608-5.745-10.348-9.782-15.033-2.895-3.342-3.998-7.895-6.394-11.838-1.948-3.181-4.628-6.249-5.576-9.711-2.527-9.138-1.34-17.878 1.028-26.67.089-.329.179-.658.271-.987-.327 8.962-1.182 19.256 2.928 27.159 4.402 8.411 11.716 14.493 15.08 22.954 2.314 5.801 4.419 12.169 4.66 18.962-.667-1.821-1.627-3.58-2.215-4.836zM79.687 23.953c.12 1.949-.346 4.009-.076 6.185.492 3.831 1.833 7.319 2.507 10.973.957 5.15 3.398 9.033 4.604 13.696.988 3.793.163 7.763-.894 11.681l-.016.058-.007.021c-.514 1.912-.979 4.329-1.603 6.643-.643 2.401-1.47 4.687-2.636 6.136-1.96 2.458-4.725 4.768-7.635 5.775a25.64 25.64 0 0 0-2.697 1.102c1.208-.776 2.417-1.466 3.701-2.469 1.296-1.026 3.28-1.868 4.602-3.399 1.265-1.478 2.125-3.268 2.635-5.158.671-2.491.736-5.163.296-7.572-.479-2.607-.994-5.375-1.597-7.975-.81-3.373-3.685-5.903-4.126-8.756-.474-2.824.421-6.474.989-9.401.823-4.229.189-8.317-.038-12.391-.203-3.827-.856-9.055-4.721-12.776 3.514 1.859 6.579 4.458 6.712 7.627zm-6.373-.288c-.412-2.265-.753-5.409-2.174-7.756 4.73 3.49 5.453 9.035 5.694 13.239.235 4.134.843 8.14.052 12.176-.552 2.901-1.499 6.608-.993 9.713.581 3.281 3.473 5.797 4.136 8.81.596 2.573 1.11 5.331 1.589 7.936.418 2.281.354 4.834-.28 7.186-.481 1.787-1.29 3.456-2.455 4.817-1.128 1.332-3.04 2.168-4.479 3.282-1.861 1.467-3.7 2.282-5.677 3.874.498-.778 1.02-1.497 1.46-1.941 1.361-1.398 3.262-2.492 4.834-3.959 1.804-1.683 2.893-2.933 3.414-4.88.16-.593.267-1.244.335-1.987.53-5.875-.66-11.549-1.961-17.158-1.152-4.946-2.389-9.855-2.654-14.79-.195-3.586.238-7.24.273-10.92.021-2.778-.656-4.966-1.114-7.642zM56.51 5.584c.16.122.317.239.471.349 3.117 2.225 3.549 3.489 5.077 6.904 2.138 4.821 4.588 9.232 6.548 14.085 1.036 2.555 2.321 5.534 3.002 8.151.487 1.83.374 3.89.906 5.957-2.075-1.276-4.636-2.021-6.24-3.476-3.948-3.447-3.277-11.726-3.36-16.867-.066-1.311.424-4.011-.919-5.429-.287-.288-.649-.44-1.011-.539-.697-.186-1.458-.205-1.995-.356-.247-.066-.434-.156-.552-.261a2.375 2.375 0 0 1-.451-.519c-1.272-1.788-.128-5.517-1.476-7.999zm-1.89 6.914c1.28.667 2.019 1.257 2.423 1.908.582.931.565 2.199.265 4.469-.383 2.954-1.026 5.808-1.783 8.618-1.161 4.308-2.59 8.509-3.745 12.796-1.409 5.231-2.412 10.593-1.997 16.424.32 4.397 2.429 8.755 3.103 13.006.784 4.945 1.902 8.387 5.654 12.055 2.649 2.64 3.289 3.454 3.867 7.304.156 1.08.328 2.153.384 3.285a22.254 22.254 0 0 0-.233-1.251c-.88-4.1-2.327-4.998-5.14-7.64-2.229-2.109-4.29-4.76-6.245-7.195-3.172-3.928-3.644-8.833-6.387-13.247-4.137-6.605-3.355-13.542-1.455-20.609.785-2.912 1.76-5.836 2.647-8.743.764-2.514 2.947-7.472 4.275-12.4.765-2.846 1.255-5.689 1.009-8.11-.131-1.339-.513-2.569-1.215-3.565 1.557.907 3.168 2.153 4.573 2.895zm.01 77.931c-3.064-2.371-5.4-5.404-8.37-7.969-3.657-3.124-9.953-6.545-10.85-11.381-.514-2.626-.35-6.605.059-9.322.028-.197.07-.392.123-.59.21-.786.595-1.595.834-2.48.058-.215.107-.436.142-.661.479-3.324-.913-6.119-1.604-9.057-.915-3.851-1.158-6.334-.462-8.922.467-1.732 1.366-3.539 2.819-5.83a336.99 336.99 0 0 0 6.765-11.17c.991-1.713 2.491-5.042 3.385-8.356.546-2.044.875-4.073.669-5.749 1.393.916 2.054 2.395 2.262 4.313.232 2.234-.23 5-.983 7.793-1.306 4.851-3.468 9.759-4.267 12.373-.883 2.892-1.861 5.825-2.654 8.771-1.923 7.122-2.772 14.394 1.557 21.302 2.629 4.168 3.098 9.132 6.445 13.329 1.951 2.428 4.03 5.109 6.327 7.282 2.9 2.757 4.01 3.281 4.887 7.195.539 2.432.569 5.199 1.161 7.768-1.818-2.073-4.033-5.376-8.245-8.639zm9.031 7.845c-.179-1.268-.171-2.588-.055-3.77.209-2.076-.099-3.859-.342-5.551-.544-3.928-1.45-5.204-4.12-7.802-3.602-3.547-4.61-6.667-5.403-11.571-.719-4.422-2.809-8.767-3.096-12.928-.405-5.692.571-10.948 1.968-16.135 1.145-4.25 2.575-8.452 3.745-12.796.763-2.832 1.417-5.726 1.806-8.732.216-1.683.323-2.938.049-3.994.174.092.36.157.546.209.688.183 1.446.202 1.996.355.285.078.497.184.628.318.901.802.669 3.404.663 4.83.141 5.051-.757 13.498 3.651 17.499 2.149 1.899 5.833 2.914 7.767 4.519l.044-.132-.226-.43.006.114c.273 5.049 1.528 10.005 2.677 14.94 1.3 5.598 2.458 11.177 1.94 16.881a10.788 10.788 0 0 1-.307 1.838c-.468 1.724-1.377 2.791-3.169 4.47-1.467 1.38-3.377 2.474-4.861 3.984-1.036 1.06-2.257 3.116-2.977 4.541.174-6.752 1.6-13.638 3.39-20.282.47-1.744.982-3.475 1.514-5.201.266-.863.537-1.724.809-2.585.265-.837.641-1.7.815-2.56.029-.142.032-.29-.002-.433-.091-.384-.52-.445-.727-.056-.123.23-.235.456-.356.688-1.73 3.477-3.206 7.823-4.361 12.112-.438 1.624-.83 3.238-1.169 4.794-.961 4.396-1.443 8.287-1.782 12.761-.196 2.577-.83 6.422-1.061 10.105zm1.404 7.323c-.446-1.274-.622-2.96-.623-4.807-.005-4.238.891-9.304 1.144-12.555.338-4.45.814-8.291 1.765-12.64.337-1.543.726-3.144 1.159-4.754l.096-.354c-1.57 6.157-2.767 12.509-2.887 18.781-.134 6.795.999 13.499 4.304 19.724a34.74 34.74 0 0 0 1.358 2.312c-2.209-1.918-5.475-3.182-6.316-5.707zm92.968 87.842c-2.512.586-4.193 1.715-5.87 2.546-1.684.831-3.343 1.402-6.018 1.022-3.847-.56-7.874-1.493-11.892-2.59-4.725-1.289-9.439-2.804-13.84-4.197-3.19-1.016-4.779-2.104-5.961-3.644-1.184-1.544-1.968-3.63-3.363-6.583-1.845-3.898-4.594-8.273-7.461-11.304-2.991-3.156-7.096-4.966-10.717-7.042-3.631-2.078-6.736-4.375-7.94-8.417-.119-.4-.22-.807-.309-1.219l-.005-.011c-.08-.187-.159-.769-.197-1.073-.563-3.464-.369-7.249-1.44-10.793-1.515-4.939-4.547-8.129-5.255-12.972-.527-3.561-.652-6.291-1.571-8.922.815 1.207 1.581 2.432 2.238 3.701 3.073 5.916 4.704 14.225 5.532 20.958 1.259 10.113 8.94 15.358 16.101 21.96.597.548 1.197 1.094 1.795 1.641.609.557 1.216 1.116 1.818 1.682a88.699 88.699 0 0 1 1.794 1.73 56.922 56.922 0 0 1 1.722 1.787 39.72 39.72 0 0 1 1.603 1.851c.505.624.998 1.269 1.448 1.934.374.552.724 1.12 1.063 1.694.344.582.675 1.17 1.008 1.758.335.593.671 1.187 1.02 1.773.35.589.713 1.172 1.099 1.738a20.48 20.48 0 0 0 1.245 1.654c.452.538.938 1.049 1.459 1.521a13.5 13.5 0 0 0 1.248 1.004c1.767 1.248 3.695 1.998 5.651 2.531 2.446.667 4.943 1.001 7.264 1.532 5.946 1.347 11.246 3.387 17.527 3.467 5.692.041 12.105-3.074 17.358-2.423-2.706.377-5.947 1.192-8.154 1.706z" fill="#070707" data-color="2"></path>
    </g>
</svg>